G04 EAGLE Gerber RS-274X export*
G75*
%MOMM*%
%FSLAX34Y34*%
%LPD*%
%INBottom Copper*%
%IPPOS*%
%AMOC8*
5,1,8,0,0,1.08239X$1,22.5*%
G01*
%ADD10R,1.778000X1.778000*%
%ADD11C,1.778000*%
%ADD12C,1.930400*%
%ADD13R,1.930400X1.930400*%
%ADD14C,2.032000*%
%ADD15C,1.676400*%
%ADD16C,3.302000*%
%ADD17R,3.000000X3.000000*%
%ADD18C,3.000000*%
%ADD19C,2.184400*%
%ADD20R,2.184400X2.184400*%
%ADD21C,0.508000*%
%ADD22C,0.457200*%

G36*
X798009Y3816D02*
X798009Y3816D01*
X798147Y3819D01*
X800947Y4039D01*
X801088Y4063D01*
X801230Y4077D01*
X801336Y4105D01*
X801391Y4114D01*
X801440Y4132D01*
X801533Y4155D01*
X806860Y5886D01*
X806875Y5893D01*
X806892Y5897D01*
X807083Y5981D01*
X807274Y6063D01*
X807288Y6072D01*
X807304Y6079D01*
X807568Y6247D01*
X812099Y9539D01*
X812112Y9550D01*
X812127Y9559D01*
X812282Y9699D01*
X812438Y9835D01*
X812449Y9849D01*
X812462Y9860D01*
X812661Y10101D01*
X815953Y14632D01*
X815962Y14647D01*
X815973Y14660D01*
X816077Y14840D01*
X816184Y15019D01*
X816190Y15035D01*
X816199Y15050D01*
X816314Y15340D01*
X818045Y20667D01*
X818076Y20806D01*
X818117Y20943D01*
X818133Y21051D01*
X818145Y21106D01*
X818148Y21158D01*
X818161Y21253D01*
X818381Y24053D01*
X818381Y24115D01*
X818389Y24252D01*
X818389Y478950D01*
X818384Y479012D01*
X818381Y479150D01*
X818252Y480794D01*
X818228Y480935D01*
X818214Y481077D01*
X818186Y481182D01*
X818177Y481238D01*
X818159Y481287D01*
X818136Y481379D01*
X817120Y484506D01*
X817113Y484522D01*
X817109Y484539D01*
X817071Y484624D01*
X817055Y484676D01*
X817006Y484774D01*
X816943Y484921D01*
X816934Y484935D01*
X816927Y484951D01*
X816871Y485038D01*
X816851Y485077D01*
X816820Y485118D01*
X816759Y485214D01*
X814826Y487874D01*
X814815Y487887D01*
X814806Y487902D01*
X814667Y488057D01*
X814530Y488214D01*
X814517Y488224D01*
X814505Y488237D01*
X814264Y488436D01*
X811604Y490369D01*
X811590Y490378D01*
X811576Y490389D01*
X811397Y490493D01*
X811218Y490600D01*
X811202Y490606D01*
X811187Y490615D01*
X810896Y490730D01*
X807769Y491746D01*
X807630Y491778D01*
X807493Y491818D01*
X807385Y491834D01*
X807330Y491846D01*
X807278Y491849D01*
X807184Y491862D01*
X805540Y491991D01*
X805478Y491991D01*
X805340Y491999D01*
X18206Y491999D01*
X18145Y491994D01*
X18007Y491991D01*
X16152Y491845D01*
X16012Y491822D01*
X15870Y491807D01*
X15764Y491780D01*
X15708Y491770D01*
X15659Y491753D01*
X15567Y491729D01*
X12039Y490583D01*
X12023Y490576D01*
X12007Y490572D01*
X11817Y490488D01*
X11625Y490406D01*
X11611Y490397D01*
X11595Y490390D01*
X11331Y490222D01*
X8330Y488042D01*
X8317Y488030D01*
X8303Y488021D01*
X8147Y487882D01*
X7991Y487746D01*
X7980Y487732D01*
X7967Y487721D01*
X7768Y487480D01*
X5588Y484479D01*
X5579Y484464D01*
X5568Y484451D01*
X5463Y484271D01*
X5357Y484092D01*
X5351Y484077D01*
X5342Y484062D01*
X5227Y483771D01*
X4081Y480243D01*
X4049Y480104D01*
X4008Y479967D01*
X3993Y479859D01*
X3980Y479804D01*
X3978Y479752D01*
X3965Y479658D01*
X3819Y477803D01*
X3819Y477741D01*
X3811Y477604D01*
X3811Y17344D01*
X3816Y17282D01*
X3819Y17145D01*
X3954Y15425D01*
X3978Y15284D01*
X3992Y15142D01*
X4020Y15037D01*
X4029Y14981D01*
X4046Y14932D01*
X4070Y14840D01*
X5133Y11568D01*
X5140Y11552D01*
X5144Y11536D01*
X5228Y11346D01*
X5310Y11154D01*
X5319Y11140D01*
X5326Y11124D01*
X5494Y10860D01*
X7516Y8078D01*
X7527Y8065D01*
X7536Y8050D01*
X7675Y7895D01*
X7812Y7738D01*
X7825Y7727D01*
X7837Y7715D01*
X8078Y7516D01*
X10860Y5494D01*
X10875Y5485D01*
X10888Y5474D01*
X11067Y5370D01*
X11247Y5263D01*
X11263Y5257D01*
X11278Y5248D01*
X11568Y5133D01*
X14840Y4070D01*
X14979Y4038D01*
X15116Y3998D01*
X15224Y3982D01*
X15278Y3970D01*
X15330Y3967D01*
X15425Y3954D01*
X17145Y3819D01*
X17207Y3819D01*
X17344Y3811D01*
X797948Y3811D01*
X798009Y3816D01*
G37*
%LPC*%
G36*
X477433Y159511D02*
X477433Y159511D01*
X472578Y161522D01*
X468862Y165238D01*
X466851Y170093D01*
X466851Y175347D01*
X468862Y180202D01*
X472578Y183918D01*
X477433Y185929D01*
X482687Y185929D01*
X487542Y183918D01*
X490003Y181457D01*
X490029Y181435D01*
X490052Y181409D01*
X490202Y181291D01*
X490348Y181168D01*
X490378Y181151D01*
X490405Y181130D01*
X490573Y181040D01*
X490739Y180945D01*
X490772Y180933D01*
X490802Y180917D01*
X490983Y180858D01*
X491163Y180794D01*
X491197Y180789D01*
X491230Y180778D01*
X491419Y180752D01*
X491607Y180721D01*
X491642Y180721D01*
X491676Y180716D01*
X491867Y180724D01*
X492058Y180727D01*
X492092Y180733D01*
X492126Y180735D01*
X492312Y180776D01*
X492500Y180812D01*
X492532Y180825D01*
X492566Y180832D01*
X492742Y180906D01*
X492920Y180975D01*
X492949Y180993D01*
X492981Y181006D01*
X493142Y181110D01*
X493304Y181209D01*
X493330Y181232D01*
X493360Y181250D01*
X493594Y181457D01*
X506748Y194611D01*
X506853Y194738D01*
X506965Y194858D01*
X506997Y194910D01*
X507036Y194957D01*
X507118Y195099D01*
X507206Y195238D01*
X507230Y195295D01*
X507260Y195348D01*
X507315Y195502D01*
X507377Y195655D01*
X507390Y195714D01*
X507411Y195772D01*
X507437Y195934D01*
X507472Y196095D01*
X507477Y196172D01*
X507484Y196216D01*
X507483Y196277D01*
X507491Y196407D01*
X507491Y245553D01*
X507477Y245717D01*
X507470Y245881D01*
X507457Y245941D01*
X507451Y246002D01*
X507408Y246161D01*
X507372Y246321D01*
X507349Y246377D01*
X507333Y246436D01*
X507262Y246584D01*
X507199Y246736D01*
X507166Y246788D01*
X507139Y246843D01*
X507044Y246976D01*
X506954Y247115D01*
X506903Y247172D01*
X506877Y247209D01*
X506834Y247251D01*
X506748Y247349D01*
X498809Y255288D01*
X498682Y255393D01*
X498562Y255505D01*
X498510Y255537D01*
X498463Y255576D01*
X498321Y255658D01*
X498182Y255746D01*
X498125Y255770D01*
X498072Y255800D01*
X497918Y255855D01*
X497765Y255917D01*
X497706Y255930D01*
X497648Y255951D01*
X497486Y255977D01*
X497325Y256012D01*
X497248Y256017D01*
X497204Y256024D01*
X497143Y256023D01*
X497013Y256031D01*
X493517Y256031D01*
X493353Y256017D01*
X493189Y256010D01*
X493129Y255997D01*
X493068Y255991D01*
X492910Y255948D01*
X492749Y255912D01*
X492693Y255889D01*
X492634Y255873D01*
X492486Y255802D01*
X492334Y255739D01*
X492283Y255706D01*
X492227Y255679D01*
X492094Y255584D01*
X491956Y255494D01*
X491898Y255443D01*
X491861Y255417D01*
X491819Y255374D01*
X491721Y255288D01*
X488373Y251939D01*
X487811Y251706D01*
X487695Y251646D01*
X487576Y251594D01*
X487496Y251542D01*
X487412Y251498D01*
X487309Y251418D01*
X487200Y251346D01*
X487131Y251280D01*
X487056Y251222D01*
X486969Y251125D01*
X486874Y251036D01*
X486818Y250958D01*
X486754Y250888D01*
X486685Y250777D01*
X486608Y250672D01*
X486566Y250586D01*
X486516Y250505D01*
X486468Y250384D01*
X486411Y250268D01*
X486385Y250176D01*
X486349Y250087D01*
X486323Y249959D01*
X486288Y249834D01*
X486278Y249740D01*
X486259Y249646D01*
X486256Y249516D01*
X486243Y249386D01*
X486251Y249291D01*
X486248Y249196D01*
X486268Y249067D01*
X486278Y248937D01*
X486303Y248845D01*
X486317Y248751D01*
X486360Y248628D01*
X486392Y248502D01*
X486433Y248415D01*
X486464Y248325D01*
X486527Y248211D01*
X486582Y248093D01*
X486636Y248015D01*
X486683Y247932D01*
X486765Y247831D01*
X486840Y247724D01*
X486908Y247657D01*
X486968Y247583D01*
X487067Y247499D01*
X487159Y247407D01*
X487238Y247353D01*
X487311Y247291D01*
X487423Y247225D01*
X487530Y247151D01*
X487647Y247094D01*
X487699Y247063D01*
X487741Y247048D01*
X487811Y247014D01*
X488373Y246781D01*
X491731Y243423D01*
X493549Y239035D01*
X493549Y234285D01*
X491731Y229897D01*
X488373Y226539D01*
X487811Y226306D01*
X487695Y226246D01*
X487576Y226194D01*
X487496Y226142D01*
X487412Y226098D01*
X487309Y226018D01*
X487200Y225946D01*
X487131Y225880D01*
X487056Y225822D01*
X486969Y225725D01*
X486874Y225636D01*
X486818Y225558D01*
X486754Y225488D01*
X486685Y225377D01*
X486608Y225272D01*
X486566Y225186D01*
X486516Y225105D01*
X486468Y224984D01*
X486411Y224868D01*
X486385Y224776D01*
X486349Y224687D01*
X486323Y224559D01*
X486288Y224434D01*
X486278Y224340D01*
X486259Y224246D01*
X486256Y224116D01*
X486243Y223986D01*
X486251Y223891D01*
X486248Y223796D01*
X486268Y223667D01*
X486278Y223537D01*
X486303Y223445D01*
X486317Y223351D01*
X486360Y223228D01*
X486392Y223102D01*
X486433Y223015D01*
X486464Y222925D01*
X486527Y222811D01*
X486582Y222693D01*
X486636Y222615D01*
X486683Y222532D01*
X486765Y222431D01*
X486840Y222324D01*
X486908Y222257D01*
X486968Y222183D01*
X487067Y222099D01*
X487159Y222007D01*
X487238Y221953D01*
X487311Y221891D01*
X487423Y221825D01*
X487530Y221751D01*
X487647Y221694D01*
X487699Y221663D01*
X487741Y221648D01*
X487811Y221614D01*
X488373Y221381D01*
X491731Y218023D01*
X493549Y213635D01*
X493549Y208885D01*
X491731Y204497D01*
X488373Y201139D01*
X483985Y199321D01*
X479235Y199321D01*
X475190Y200997D01*
X475111Y201022D01*
X475036Y201055D01*
X474897Y201089D01*
X474760Y201132D01*
X474678Y201142D01*
X474598Y201162D01*
X474456Y201170D01*
X474313Y201188D01*
X474231Y201184D01*
X474149Y201189D01*
X474007Y201173D01*
X473864Y201165D01*
X473784Y201147D01*
X473702Y201137D01*
X473564Y201096D01*
X473425Y201063D01*
X473350Y201031D01*
X473271Y201007D01*
X473143Y200942D01*
X473012Y200885D01*
X472943Y200840D01*
X472869Y200803D01*
X472755Y200716D01*
X472636Y200637D01*
X472576Y200580D01*
X472511Y200531D01*
X472414Y200425D01*
X472310Y200327D01*
X472261Y200260D01*
X472205Y200199D01*
X472128Y200079D01*
X472044Y199963D01*
X472008Y199889D01*
X471964Y199820D01*
X471909Y199687D01*
X471846Y199559D01*
X471824Y199479D01*
X471793Y199403D01*
X471763Y199263D01*
X471723Y199125D01*
X471715Y199044D01*
X471698Y198963D01*
X471683Y198717D01*
X471679Y198677D01*
X471680Y198667D01*
X471679Y198651D01*
X471679Y193198D01*
X470828Y191144D01*
X465446Y185762D01*
X465299Y185701D01*
X465196Y185647D01*
X465088Y185602D01*
X464996Y185543D01*
X464900Y185493D01*
X464808Y185421D01*
X464710Y185358D01*
X464594Y185256D01*
X464544Y185217D01*
X464520Y185190D01*
X464475Y185151D01*
X460559Y181235D01*
X460422Y181071D01*
X460285Y180911D01*
X460279Y180899D01*
X460270Y180889D01*
X460165Y180705D01*
X460058Y180522D01*
X460053Y180510D01*
X460047Y180498D01*
X459976Y180299D01*
X459903Y180099D01*
X459900Y180086D01*
X459896Y180074D01*
X459861Y179862D01*
X459825Y179656D01*
X459825Y179643D01*
X459822Y179630D01*
X459825Y179416D01*
X459826Y179206D01*
X459828Y179193D01*
X459829Y179179D01*
X459869Y178968D01*
X459907Y178763D01*
X459912Y178748D01*
X459914Y178737D01*
X459928Y178701D01*
X460009Y178467D01*
X460249Y177887D01*
X460249Y172633D01*
X458238Y167778D01*
X454522Y164062D01*
X449667Y162051D01*
X444413Y162051D01*
X439558Y164062D01*
X435842Y167778D01*
X433831Y172633D01*
X433831Y177887D01*
X435842Y182742D01*
X439558Y186458D01*
X444413Y188469D01*
X449667Y188469D01*
X450247Y188229D01*
X450450Y188165D01*
X450651Y188100D01*
X450664Y188098D01*
X450677Y188094D01*
X450888Y188067D01*
X451097Y188038D01*
X451110Y188039D01*
X451124Y188037D01*
X451334Y188048D01*
X451547Y188057D01*
X451560Y188059D01*
X451573Y188060D01*
X451779Y188108D01*
X451987Y188154D01*
X451999Y188159D01*
X452012Y188162D01*
X452206Y188246D01*
X452402Y188328D01*
X452413Y188335D01*
X452425Y188340D01*
X452602Y188457D01*
X452780Y188572D01*
X452792Y188582D01*
X452801Y188588D01*
X452830Y188616D01*
X453015Y188779D01*
X456931Y192695D01*
X457006Y192785D01*
X457088Y192868D01*
X457150Y192957D01*
X457220Y193041D01*
X457278Y193142D01*
X457344Y193238D01*
X457412Y193377D01*
X457443Y193432D01*
X457455Y193466D01*
X457481Y193519D01*
X457542Y193666D01*
X459758Y195881D01*
X459863Y196008D01*
X459975Y196128D01*
X460007Y196180D01*
X460046Y196227D01*
X460128Y196369D01*
X460216Y196508D01*
X460240Y196565D01*
X460270Y196618D01*
X460325Y196772D01*
X460387Y196925D01*
X460400Y196984D01*
X460421Y197042D01*
X460447Y197204D01*
X460482Y197365D01*
X460487Y197442D01*
X460494Y197486D01*
X460493Y197547D01*
X460501Y197677D01*
X460501Y240111D01*
X460490Y240241D01*
X460488Y240371D01*
X460470Y240464D01*
X460461Y240560D01*
X460427Y240685D01*
X460402Y240813D01*
X460368Y240902D01*
X460343Y240994D01*
X460287Y241111D01*
X460240Y241233D01*
X460190Y241314D01*
X460149Y241401D01*
X460074Y241506D01*
X460006Y241617D01*
X459943Y241689D01*
X459887Y241767D01*
X459794Y241857D01*
X459708Y241955D01*
X459633Y242014D01*
X459565Y242081D01*
X459457Y242153D01*
X459355Y242234D01*
X459271Y242279D01*
X459192Y242333D01*
X459073Y242385D01*
X458958Y242447D01*
X458867Y242476D01*
X458780Y242515D01*
X458653Y242546D01*
X458530Y242586D01*
X458435Y242599D01*
X458342Y242622D01*
X458213Y242630D01*
X458084Y242647D01*
X457988Y242643D01*
X457893Y242649D01*
X457764Y242634D01*
X457634Y242629D01*
X457541Y242608D01*
X457446Y242597D01*
X457321Y242560D01*
X457194Y242531D01*
X457106Y242495D01*
X457015Y242467D01*
X456899Y242408D01*
X456779Y242358D01*
X456699Y242306D01*
X456613Y242263D01*
X456510Y242184D01*
X456401Y242114D01*
X456303Y242027D01*
X456255Y241991D01*
X456224Y241958D01*
X456166Y241907D01*
X454522Y240262D01*
X449667Y238251D01*
X444413Y238251D01*
X439558Y240262D01*
X435842Y243978D01*
X433831Y248833D01*
X433831Y254087D01*
X435842Y258942D01*
X439558Y262658D01*
X444413Y264669D01*
X449667Y264669D01*
X454522Y262658D01*
X456166Y261013D01*
X456266Y260930D01*
X456359Y260839D01*
X456390Y260819D01*
X456408Y260802D01*
X456455Y260772D01*
X456512Y260725D01*
X456625Y260660D01*
X456732Y260587D01*
X456774Y260569D01*
X456788Y260560D01*
X456831Y260542D01*
X456903Y260501D01*
X457025Y260458D01*
X457144Y260405D01*
X457197Y260392D01*
X457205Y260389D01*
X457240Y260381D01*
X457327Y260350D01*
X457455Y260329D01*
X457582Y260298D01*
X457643Y260295D01*
X457645Y260294D01*
X457680Y260292D01*
X457771Y260277D01*
X457898Y260279D01*
X457957Y260275D01*
X457961Y260275D01*
X458031Y260271D01*
X458126Y260282D01*
X458222Y260283D01*
X458349Y260308D01*
X458478Y260323D01*
X458570Y260350D01*
X458664Y260369D01*
X458785Y260415D01*
X458840Y260432D01*
X458845Y260433D01*
X458846Y260434D01*
X458909Y260453D01*
X458995Y260496D01*
X459084Y260531D01*
X459195Y260598D01*
X459235Y260619D01*
X459252Y260627D01*
X459254Y260629D01*
X459311Y260657D01*
X459387Y260715D01*
X459468Y260765D01*
X459566Y260851D01*
X459587Y260867D01*
X459618Y260889D01*
X459622Y260894D01*
X459669Y260929D01*
X459734Y261000D01*
X459806Y261063D01*
X459886Y261165D01*
X459890Y261168D01*
X459932Y261212D01*
X459938Y261221D01*
X459975Y261261D01*
X460026Y261341D01*
X460085Y261416D01*
X460144Y261526D01*
X460184Y261585D01*
X460190Y261599D01*
X460216Y261640D01*
X460253Y261729D01*
X460298Y261813D01*
X460334Y261924D01*
X460366Y261996D01*
X460371Y262017D01*
X460387Y262057D01*
X460407Y262150D01*
X460437Y262241D01*
X460452Y262348D01*
X460473Y262434D01*
X460474Y262461D01*
X460482Y262497D01*
X460490Y262627D01*
X460498Y262687D01*
X460497Y262732D01*
X460501Y262809D01*
X460501Y272223D01*
X460487Y272387D01*
X460480Y272551D01*
X460467Y272611D01*
X460461Y272672D01*
X460418Y272831D01*
X460382Y272991D01*
X460359Y273047D01*
X460343Y273106D01*
X460272Y273254D01*
X460209Y273406D01*
X460176Y273458D01*
X460149Y273513D01*
X460054Y273646D01*
X459964Y273785D01*
X459913Y273842D01*
X459887Y273879D01*
X459844Y273921D01*
X459758Y274019D01*
X450549Y283228D01*
X450422Y283333D01*
X450302Y283445D01*
X450250Y283477D01*
X450203Y283516D01*
X450061Y283598D01*
X449922Y283686D01*
X449865Y283710D01*
X449812Y283740D01*
X449658Y283795D01*
X449505Y283857D01*
X449446Y283870D01*
X449388Y283891D01*
X449226Y283917D01*
X449065Y283952D01*
X448988Y283957D01*
X448944Y283964D01*
X448883Y283963D01*
X448753Y283971D01*
X444413Y283971D01*
X439558Y285982D01*
X435842Y289698D01*
X433831Y294553D01*
X433831Y299807D01*
X435842Y304662D01*
X439558Y308378D01*
X444413Y310389D01*
X449667Y310389D01*
X454522Y308378D01*
X458238Y304662D01*
X460249Y299807D01*
X460249Y294553D01*
X459370Y292431D01*
X459306Y292228D01*
X459241Y292027D01*
X459239Y292014D01*
X459235Y292001D01*
X459208Y291790D01*
X459179Y291581D01*
X459180Y291567D01*
X459178Y291554D01*
X459189Y291344D01*
X459198Y291131D01*
X459201Y291118D01*
X459201Y291105D01*
X459249Y290899D01*
X459295Y290691D01*
X459300Y290679D01*
X459303Y290666D01*
X459387Y290472D01*
X459469Y290276D01*
X459476Y290265D01*
X459481Y290253D01*
X459598Y290076D01*
X459713Y289898D01*
X459724Y289886D01*
X459730Y289877D01*
X459757Y289848D01*
X459920Y289663D01*
X465336Y284247D01*
X465436Y284164D01*
X465529Y284073D01*
X465609Y284020D01*
X465682Y283958D01*
X465795Y283894D01*
X465902Y283821D01*
X465990Y283782D01*
X466073Y283735D01*
X466195Y283691D01*
X466314Y283639D01*
X466407Y283616D01*
X466497Y283584D01*
X466626Y283563D01*
X466752Y283532D01*
X466847Y283526D01*
X466941Y283511D01*
X467072Y283512D01*
X467201Y283504D01*
X467296Y283515D01*
X467392Y283517D01*
X467519Y283541D01*
X467648Y283556D01*
X467740Y283584D01*
X467834Y283602D01*
X467955Y283649D01*
X468079Y283687D01*
X468164Y283730D01*
X468254Y283765D01*
X468365Y283832D01*
X468481Y283891D01*
X468557Y283949D01*
X468638Y283998D01*
X468736Y284085D01*
X468839Y284163D01*
X468904Y284233D01*
X468976Y284297D01*
X469056Y284398D01*
X469145Y284494D01*
X469196Y284575D01*
X469255Y284650D01*
X469316Y284764D01*
X469386Y284874D01*
X469423Y284962D01*
X469468Y285047D01*
X469508Y285170D01*
X469557Y285291D01*
X469577Y285384D01*
X469607Y285475D01*
X469625Y285604D01*
X469652Y285731D01*
X469660Y285860D01*
X469668Y285921D01*
X469667Y285966D01*
X469671Y286043D01*
X469671Y289835D01*
X471489Y294223D01*
X474847Y297581D01*
X475409Y297814D01*
X475525Y297874D01*
X475644Y297926D01*
X475724Y297978D01*
X475809Y298023D01*
X475912Y298102D01*
X476020Y298174D01*
X476089Y298240D01*
X476164Y298298D01*
X476252Y298395D01*
X476346Y298485D01*
X476402Y298562D01*
X476466Y298633D01*
X476535Y298743D01*
X476612Y298848D01*
X476654Y298934D01*
X476704Y299015D01*
X476752Y299136D01*
X476809Y299253D01*
X476835Y299344D01*
X476871Y299433D01*
X476897Y299561D01*
X476932Y299686D01*
X476942Y299781D01*
X476961Y299874D01*
X476964Y300004D01*
X476977Y300134D01*
X476969Y300229D01*
X476972Y300324D01*
X476952Y300453D01*
X476942Y300583D01*
X476917Y300675D01*
X476903Y300769D01*
X476860Y300892D01*
X476828Y301018D01*
X476787Y301105D01*
X476756Y301195D01*
X476693Y301309D01*
X476638Y301427D01*
X476584Y301505D01*
X476537Y301588D01*
X476455Y301689D01*
X476380Y301796D01*
X476312Y301863D01*
X476252Y301937D01*
X476153Y302021D01*
X476061Y302113D01*
X475982Y302167D01*
X475909Y302229D01*
X475797Y302295D01*
X475690Y302369D01*
X475573Y302426D01*
X475521Y302457D01*
X475479Y302472D01*
X475409Y302506D01*
X474847Y302739D01*
X471489Y306097D01*
X469671Y310485D01*
X469671Y315235D01*
X471489Y319623D01*
X474847Y322981D01*
X475409Y323214D01*
X475525Y323274D01*
X475644Y323326D01*
X475724Y323378D01*
X475809Y323423D01*
X475912Y323502D01*
X476020Y323574D01*
X476089Y323640D01*
X476164Y323698D01*
X476252Y323795D01*
X476346Y323885D01*
X476402Y323962D01*
X476466Y324033D01*
X476535Y324143D01*
X476612Y324248D01*
X476654Y324334D01*
X476704Y324415D01*
X476752Y324536D01*
X476809Y324653D01*
X476835Y324744D01*
X476871Y324833D01*
X476897Y324961D01*
X476932Y325086D01*
X476942Y325181D01*
X476961Y325274D01*
X476964Y325404D01*
X476977Y325534D01*
X476969Y325629D01*
X476972Y325724D01*
X476952Y325853D01*
X476942Y325983D01*
X476917Y326075D01*
X476903Y326169D01*
X476860Y326292D01*
X476828Y326418D01*
X476787Y326505D01*
X476756Y326595D01*
X476693Y326709D01*
X476638Y326827D01*
X476584Y326905D01*
X476537Y326988D01*
X476455Y327089D01*
X476380Y327196D01*
X476312Y327263D01*
X476252Y327337D01*
X476153Y327421D01*
X476061Y327513D01*
X475982Y327567D01*
X475909Y327629D01*
X475797Y327695D01*
X475690Y327769D01*
X475573Y327826D01*
X475521Y327857D01*
X475479Y327872D01*
X475409Y327906D01*
X474847Y328139D01*
X471489Y331497D01*
X469671Y335885D01*
X469671Y340635D01*
X471489Y345023D01*
X473853Y347386D01*
X473936Y347486D01*
X474027Y347579D01*
X474080Y347659D01*
X474141Y347732D01*
X474206Y347845D01*
X474279Y347952D01*
X474317Y348040D01*
X474365Y348123D01*
X474408Y348245D01*
X474461Y348364D01*
X474484Y348457D01*
X474516Y348547D01*
X474537Y348675D01*
X474568Y348802D01*
X474574Y348897D01*
X474589Y348991D01*
X474587Y349121D01*
X474595Y349251D01*
X474584Y349346D01*
X474583Y349442D01*
X474558Y349569D01*
X474543Y349698D01*
X474516Y349790D01*
X474497Y349884D01*
X474451Y350005D01*
X474413Y350129D01*
X474370Y350215D01*
X474335Y350304D01*
X474268Y350415D01*
X474209Y350531D01*
X474151Y350607D01*
X474101Y350688D01*
X474015Y350786D01*
X473937Y350889D01*
X473866Y350954D01*
X473803Y351026D01*
X473701Y351106D01*
X473605Y351195D01*
X473525Y351246D01*
X473450Y351305D01*
X473335Y351366D01*
X473226Y351436D01*
X473137Y351473D01*
X473053Y351518D01*
X472929Y351558D01*
X472809Y351607D01*
X472716Y351627D01*
X472625Y351657D01*
X472496Y351675D01*
X472369Y351702D01*
X472239Y351710D01*
X472179Y351718D01*
X472134Y351717D01*
X472057Y351721D01*
X471457Y351721D01*
X469671Y353507D01*
X469671Y373813D01*
X471457Y375599D01*
X491763Y375599D01*
X493549Y373813D01*
X493549Y353507D01*
X491763Y351721D01*
X491163Y351721D01*
X491033Y351710D01*
X490903Y351708D01*
X490810Y351690D01*
X490714Y351681D01*
X490589Y351647D01*
X490461Y351622D01*
X490372Y351588D01*
X490280Y351563D01*
X490163Y351507D01*
X490041Y351460D01*
X489960Y351410D01*
X489873Y351369D01*
X489768Y351294D01*
X489657Y351226D01*
X489585Y351163D01*
X489507Y351107D01*
X489417Y351014D01*
X489319Y350928D01*
X489260Y350853D01*
X489193Y350785D01*
X489121Y350677D01*
X489040Y350575D01*
X488995Y350491D01*
X488941Y350412D01*
X488889Y350293D01*
X488827Y350178D01*
X488798Y350087D01*
X488759Y350000D01*
X488728Y349873D01*
X488688Y349750D01*
X488675Y349655D01*
X488652Y349562D01*
X488644Y349433D01*
X488627Y349304D01*
X488631Y349208D01*
X488625Y349113D01*
X488640Y348984D01*
X488645Y348854D01*
X488666Y348761D01*
X488677Y348666D01*
X488714Y348541D01*
X488743Y348414D01*
X488779Y348326D01*
X488807Y348235D01*
X488866Y348119D01*
X488916Y347999D01*
X488968Y347919D01*
X489011Y347833D01*
X489090Y347730D01*
X489160Y347621D01*
X489247Y347523D01*
X489283Y347475D01*
X489310Y347450D01*
X489317Y347441D01*
X489329Y347430D01*
X489367Y347386D01*
X491731Y345023D01*
X493549Y340635D01*
X493549Y335885D01*
X491731Y331497D01*
X488373Y328139D01*
X487811Y327906D01*
X487695Y327846D01*
X487576Y327794D01*
X487496Y327742D01*
X487412Y327698D01*
X487309Y327618D01*
X487200Y327546D01*
X487131Y327480D01*
X487056Y327422D01*
X486969Y327325D01*
X486874Y327236D01*
X486818Y327158D01*
X486754Y327088D01*
X486685Y326977D01*
X486608Y326872D01*
X486566Y326786D01*
X486516Y326705D01*
X486468Y326584D01*
X486411Y326468D01*
X486385Y326376D01*
X486349Y326287D01*
X486323Y326159D01*
X486288Y326034D01*
X486278Y325939D01*
X486259Y325846D01*
X486256Y325716D01*
X486243Y325586D01*
X486251Y325491D01*
X486248Y325396D01*
X486268Y325267D01*
X486278Y325137D01*
X486303Y325045D01*
X486317Y324951D01*
X486360Y324828D01*
X486392Y324702D01*
X486433Y324615D01*
X486464Y324525D01*
X486527Y324411D01*
X486582Y324293D01*
X486636Y324215D01*
X486683Y324132D01*
X486765Y324031D01*
X486840Y323924D01*
X486908Y323857D01*
X486968Y323783D01*
X487067Y323699D01*
X487159Y323607D01*
X487238Y323553D01*
X487311Y323491D01*
X487423Y323425D01*
X487530Y323351D01*
X487647Y323294D01*
X487699Y323263D01*
X487741Y323248D01*
X487811Y323214D01*
X488373Y322981D01*
X491731Y319623D01*
X493549Y315235D01*
X493549Y310485D01*
X491731Y306097D01*
X488373Y302739D01*
X487811Y302506D01*
X487695Y302446D01*
X487576Y302394D01*
X487496Y302342D01*
X487412Y302298D01*
X487309Y302218D01*
X487200Y302146D01*
X487131Y302080D01*
X487056Y302022D01*
X486969Y301925D01*
X486874Y301836D01*
X486818Y301758D01*
X486754Y301688D01*
X486685Y301577D01*
X486608Y301472D01*
X486566Y301386D01*
X486516Y301305D01*
X486468Y301184D01*
X486411Y301068D01*
X486385Y300976D01*
X486349Y300887D01*
X486323Y300759D01*
X486288Y300634D01*
X486278Y300539D01*
X486259Y300446D01*
X486256Y300316D01*
X486243Y300186D01*
X486251Y300091D01*
X486248Y299996D01*
X486268Y299867D01*
X486278Y299737D01*
X486303Y299645D01*
X486317Y299551D01*
X486360Y299428D01*
X486392Y299302D01*
X486433Y299215D01*
X486464Y299125D01*
X486527Y299011D01*
X486582Y298893D01*
X486636Y298815D01*
X486683Y298732D01*
X486765Y298631D01*
X486840Y298524D01*
X486908Y298457D01*
X486968Y298383D01*
X487067Y298299D01*
X487159Y298207D01*
X487238Y298153D01*
X487311Y298091D01*
X487423Y298025D01*
X487530Y297951D01*
X487647Y297894D01*
X487699Y297863D01*
X487741Y297848D01*
X487811Y297814D01*
X488373Y297581D01*
X491731Y294223D01*
X493549Y289835D01*
X493549Y285085D01*
X491731Y280697D01*
X488373Y277339D01*
X487811Y277106D01*
X487695Y277046D01*
X487576Y276994D01*
X487496Y276942D01*
X487412Y276898D01*
X487309Y276818D01*
X487200Y276746D01*
X487131Y276680D01*
X487056Y276622D01*
X486969Y276525D01*
X486874Y276436D01*
X486818Y276358D01*
X486754Y276288D01*
X486685Y276177D01*
X486608Y276072D01*
X486566Y275986D01*
X486516Y275905D01*
X486468Y275784D01*
X486411Y275668D01*
X486385Y275576D01*
X486349Y275487D01*
X486323Y275359D01*
X486288Y275234D01*
X486278Y275139D01*
X486259Y275046D01*
X486256Y274916D01*
X486243Y274786D01*
X486251Y274691D01*
X486248Y274596D01*
X486268Y274467D01*
X486278Y274337D01*
X486303Y274245D01*
X486317Y274151D01*
X486360Y274028D01*
X486392Y273902D01*
X486433Y273815D01*
X486464Y273725D01*
X486527Y273611D01*
X486582Y273493D01*
X486636Y273415D01*
X486683Y273332D01*
X486765Y273231D01*
X486840Y273124D01*
X486908Y273057D01*
X486968Y272983D01*
X487067Y272899D01*
X487159Y272807D01*
X487238Y272753D01*
X487311Y272691D01*
X487423Y272625D01*
X487530Y272551D01*
X487647Y272494D01*
X487699Y272463D01*
X487741Y272448D01*
X487811Y272414D01*
X488373Y272181D01*
X491731Y268823D01*
X491750Y268776D01*
X491848Y268589D01*
X491945Y268399D01*
X491953Y268389D01*
X491959Y268377D01*
X492089Y268209D01*
X492217Y268041D01*
X492227Y268032D01*
X492235Y268021D01*
X492393Y267879D01*
X492548Y267735D01*
X492559Y267728D01*
X492569Y267720D01*
X492750Y267607D01*
X492928Y267494D01*
X492940Y267489D01*
X492951Y267482D01*
X493149Y267403D01*
X493344Y267323D01*
X493357Y267320D01*
X493369Y267315D01*
X493578Y267272D01*
X493784Y267228D01*
X493800Y267227D01*
X493811Y267225D01*
X493850Y267224D01*
X494096Y267209D01*
X501492Y267209D01*
X503546Y266358D01*
X517818Y252086D01*
X518669Y250032D01*
X518669Y191928D01*
X517818Y189874D01*
X495926Y167982D01*
X493872Y167131D01*
X493739Y167131D01*
X493527Y167112D01*
X493316Y167096D01*
X493304Y167093D01*
X493290Y167091D01*
X493086Y167036D01*
X492881Y166982D01*
X492868Y166976D01*
X492856Y166973D01*
X492666Y166883D01*
X492472Y166793D01*
X492461Y166785D01*
X492449Y166779D01*
X492277Y166656D01*
X492103Y166534D01*
X492094Y166525D01*
X492083Y166517D01*
X491934Y166364D01*
X491786Y166215D01*
X491778Y166204D01*
X491769Y166195D01*
X491650Y166019D01*
X491530Y165845D01*
X491523Y165830D01*
X491517Y165822D01*
X491501Y165786D01*
X491393Y165564D01*
X491258Y165238D01*
X487542Y161522D01*
X482687Y159511D01*
X477433Y159511D01*
G37*
%LPD*%
%LPC*%
G36*
X709303Y205231D02*
X709303Y205231D01*
X704448Y207242D01*
X700732Y210958D01*
X700597Y211284D01*
X700499Y211472D01*
X700403Y211661D01*
X700395Y211671D01*
X700389Y211683D01*
X700258Y211851D01*
X700131Y212019D01*
X700121Y212028D01*
X700113Y212039D01*
X699956Y212181D01*
X699800Y212325D01*
X699789Y212332D01*
X699779Y212340D01*
X699600Y212452D01*
X699420Y212566D01*
X699408Y212571D01*
X699397Y212578D01*
X699200Y212657D01*
X699003Y212737D01*
X698990Y212740D01*
X698978Y212745D01*
X698771Y212787D01*
X698563Y212832D01*
X698547Y212833D01*
X698537Y212835D01*
X698498Y212836D01*
X698251Y212851D01*
X693420Y212851D01*
X693385Y212848D01*
X693351Y212850D01*
X693162Y212828D01*
X692971Y212811D01*
X692938Y212802D01*
X692904Y212798D01*
X692721Y212743D01*
X692537Y212693D01*
X692506Y212678D01*
X692473Y212668D01*
X692302Y212581D01*
X692130Y212499D01*
X692102Y212479D01*
X692071Y212464D01*
X691919Y212348D01*
X691764Y212237D01*
X691740Y212212D01*
X691713Y212192D01*
X691584Y212052D01*
X691450Y211915D01*
X691431Y211886D01*
X691407Y211860D01*
X691305Y211699D01*
X691198Y211542D01*
X691184Y211510D01*
X691166Y211481D01*
X691093Y211304D01*
X691016Y211130D01*
X691008Y211096D01*
X690995Y211064D01*
X690955Y210877D01*
X690909Y210692D01*
X690907Y210658D01*
X690900Y210624D01*
X690881Y210312D01*
X690881Y207525D01*
X689095Y205739D01*
X667265Y205739D01*
X665413Y207591D01*
X665405Y207622D01*
X665380Y207749D01*
X665346Y207838D01*
X665321Y207930D01*
X665265Y208048D01*
X665218Y208169D01*
X665168Y208251D01*
X665127Y208337D01*
X665052Y208443D01*
X664984Y208554D01*
X664921Y208625D01*
X664865Y208703D01*
X664772Y208794D01*
X664686Y208891D01*
X664611Y208950D01*
X664543Y209017D01*
X664435Y209090D01*
X664333Y209171D01*
X664249Y209216D01*
X664170Y209269D01*
X664051Y209322D01*
X663936Y209383D01*
X663845Y209413D01*
X663758Y209451D01*
X663631Y209482D01*
X663508Y209522D01*
X663413Y209535D01*
X663320Y209558D01*
X663191Y209566D01*
X663062Y209584D01*
X662966Y209580D01*
X662871Y209586D01*
X662742Y209571D01*
X662612Y209565D01*
X662519Y209545D01*
X662424Y209534D01*
X662299Y209496D01*
X662172Y209468D01*
X662084Y209431D01*
X661993Y209403D01*
X661877Y209344D01*
X661757Y209294D01*
X661677Y209242D01*
X661591Y209199D01*
X661488Y209121D01*
X661379Y209050D01*
X661281Y208964D01*
X661233Y208927D01*
X661202Y208894D01*
X661144Y208843D01*
X659974Y207673D01*
X655306Y205739D01*
X650254Y205739D01*
X645586Y207673D01*
X642013Y211246D01*
X640079Y215914D01*
X640079Y220966D01*
X640095Y221004D01*
X640159Y221207D01*
X640224Y221408D01*
X640226Y221421D01*
X640230Y221434D01*
X640257Y221646D01*
X640285Y221854D01*
X640285Y221868D01*
X640287Y221881D01*
X640276Y222091D01*
X640267Y222304D01*
X640264Y222317D01*
X640264Y222330D01*
X640216Y222536D01*
X640170Y222744D01*
X640164Y222756D01*
X640161Y222769D01*
X640078Y222963D01*
X639996Y223159D01*
X639989Y223171D01*
X639983Y223183D01*
X639867Y223359D01*
X639752Y223538D01*
X639741Y223549D01*
X639735Y223558D01*
X639708Y223587D01*
X639545Y223772D01*
X622031Y241285D01*
X620102Y243214D01*
X619251Y245268D01*
X619251Y311593D01*
X619237Y311757D01*
X619230Y311921D01*
X619217Y311981D01*
X619211Y312042D01*
X619168Y312201D01*
X619132Y312361D01*
X619109Y312417D01*
X619093Y312476D01*
X619023Y312624D01*
X618959Y312776D01*
X618926Y312828D01*
X618899Y312883D01*
X618804Y313016D01*
X618714Y313155D01*
X618663Y313212D01*
X618637Y313249D01*
X618594Y313291D01*
X618508Y313389D01*
X605049Y326848D01*
X604922Y326953D01*
X604802Y327065D01*
X604750Y327097D01*
X604703Y327136D01*
X604561Y327218D01*
X604422Y327306D01*
X604365Y327330D01*
X604312Y327360D01*
X604158Y327415D01*
X604005Y327477D01*
X603946Y327490D01*
X603888Y327511D01*
X603726Y327537D01*
X603565Y327572D01*
X603488Y327577D01*
X603444Y327584D01*
X603383Y327583D01*
X603253Y327591D01*
X568967Y327591D01*
X568837Y327580D01*
X568707Y327578D01*
X568613Y327560D01*
X568518Y327551D01*
X568393Y327517D01*
X568265Y327492D01*
X568176Y327458D01*
X568084Y327433D01*
X567966Y327377D01*
X567845Y327330D01*
X567763Y327280D01*
X567677Y327239D01*
X567571Y327164D01*
X567460Y327096D01*
X567389Y327033D01*
X567311Y326977D01*
X567220Y326884D01*
X567123Y326798D01*
X567064Y326723D01*
X566997Y326655D01*
X566924Y326547D01*
X566843Y326445D01*
X566798Y326361D01*
X566745Y326282D01*
X566692Y326163D01*
X566631Y326048D01*
X566601Y325957D01*
X566563Y325870D01*
X566532Y325743D01*
X566492Y325620D01*
X566479Y325525D01*
X566456Y325432D01*
X566448Y325303D01*
X566430Y325174D01*
X566434Y325078D01*
X566428Y324983D01*
X566443Y324854D01*
X566449Y324724D01*
X566469Y324631D01*
X566480Y324536D01*
X566518Y324411D01*
X566546Y324284D01*
X566583Y324196D01*
X566611Y324105D01*
X566670Y323989D01*
X566720Y323869D01*
X566772Y323789D01*
X566815Y323703D01*
X566893Y323600D01*
X566964Y323491D01*
X567050Y323393D01*
X567087Y323345D01*
X567120Y323314D01*
X567171Y323256D01*
X568336Y322091D01*
X569451Y320638D01*
X570367Y319052D01*
X571068Y317360D01*
X571542Y315592D01*
X571567Y315399D01*
X557810Y315399D01*
X544053Y315399D01*
X544078Y315592D01*
X544552Y317360D01*
X545253Y319052D01*
X546169Y320638D01*
X547284Y322091D01*
X548579Y323386D01*
X550032Y324501D01*
X550116Y324550D01*
X550232Y324631D01*
X550353Y324705D01*
X550415Y324760D01*
X550484Y324808D01*
X550584Y324909D01*
X550690Y325003D01*
X550742Y325069D01*
X550801Y325128D01*
X550882Y325245D01*
X550969Y325356D01*
X551009Y325430D01*
X551057Y325499D01*
X551115Y325628D01*
X551182Y325753D01*
X551208Y325833D01*
X551243Y325909D01*
X551277Y326046D01*
X551321Y326181D01*
X551333Y326264D01*
X551353Y326346D01*
X551363Y326487D01*
X551383Y326627D01*
X551379Y326711D01*
X551385Y326795D01*
X551370Y326935D01*
X551364Y327077D01*
X551346Y327159D01*
X551337Y327242D01*
X551297Y327378D01*
X551267Y327517D01*
X551234Y327594D01*
X551211Y327675D01*
X551148Y327801D01*
X551093Y327932D01*
X551047Y328002D01*
X551010Y328078D01*
X550925Y328191D01*
X550849Y328310D01*
X550775Y328393D01*
X550741Y328439D01*
X550704Y328474D01*
X550642Y328544D01*
X547689Y331497D01*
X545871Y335885D01*
X545871Y340635D01*
X547689Y345023D01*
X551047Y348381D01*
X551609Y348614D01*
X551725Y348674D01*
X551844Y348726D01*
X551924Y348778D01*
X552008Y348822D01*
X552111Y348902D01*
X552220Y348974D01*
X552289Y349040D01*
X552364Y349098D01*
X552451Y349195D01*
X552546Y349284D01*
X552602Y349362D01*
X552666Y349432D01*
X552735Y349543D01*
X552812Y349648D01*
X552854Y349734D01*
X552904Y349815D01*
X552952Y349936D01*
X553009Y350052D01*
X553035Y350144D01*
X553071Y350233D01*
X553097Y350361D01*
X553132Y350486D01*
X553142Y350580D01*
X553161Y350674D01*
X553164Y350804D01*
X553177Y350934D01*
X553169Y351029D01*
X553172Y351124D01*
X553152Y351253D01*
X553142Y351383D01*
X553117Y351475D01*
X553103Y351569D01*
X553060Y351692D01*
X553028Y351818D01*
X552987Y351905D01*
X552956Y351995D01*
X552893Y352109D01*
X552838Y352227D01*
X552784Y352305D01*
X552737Y352388D01*
X552655Y352489D01*
X552580Y352596D01*
X552512Y352663D01*
X552452Y352737D01*
X552353Y352821D01*
X552261Y352913D01*
X552182Y352967D01*
X552109Y353029D01*
X551997Y353095D01*
X551890Y353169D01*
X551773Y353226D01*
X551721Y353257D01*
X551679Y353272D01*
X551609Y353306D01*
X551047Y353539D01*
X547689Y356897D01*
X545871Y361285D01*
X545871Y366035D01*
X547689Y370423D01*
X551047Y373781D01*
X555435Y375599D01*
X560185Y375599D01*
X564573Y373781D01*
X567931Y370423D01*
X569749Y366035D01*
X569749Y361028D01*
X569721Y360829D01*
X569722Y360816D01*
X569720Y360803D01*
X569731Y360592D01*
X569740Y360379D01*
X569743Y360366D01*
X569743Y360353D01*
X569791Y360147D01*
X569837Y359939D01*
X569842Y359927D01*
X569845Y359915D01*
X569930Y359719D01*
X570011Y359524D01*
X570018Y359513D01*
X570023Y359501D01*
X570140Y359323D01*
X570255Y359146D01*
X570265Y359134D01*
X570271Y359125D01*
X570298Y359097D01*
X570462Y358911D01*
X577601Y351772D01*
X577728Y351667D01*
X577848Y351555D01*
X577900Y351523D01*
X577947Y351484D01*
X578089Y351402D01*
X578228Y351314D01*
X578285Y351290D01*
X578338Y351260D01*
X578492Y351205D01*
X578645Y351143D01*
X578704Y351130D01*
X578762Y351109D01*
X578924Y351083D01*
X579085Y351048D01*
X579162Y351043D01*
X579206Y351036D01*
X579267Y351037D01*
X579397Y351029D01*
X625952Y351029D01*
X628006Y350178D01*
X657518Y320666D01*
X658369Y318612D01*
X658369Y300149D01*
X658388Y299936D01*
X658404Y299726D01*
X658407Y299714D01*
X658409Y299700D01*
X658465Y299496D01*
X658518Y299291D01*
X658524Y299279D01*
X658527Y299266D01*
X658618Y299076D01*
X658707Y298882D01*
X658715Y298871D01*
X658721Y298859D01*
X658844Y298687D01*
X658966Y298513D01*
X658975Y298504D01*
X658983Y298493D01*
X659136Y298344D01*
X659285Y298196D01*
X659296Y298189D01*
X659305Y298179D01*
X659481Y298061D01*
X659655Y297940D01*
X659670Y297933D01*
X659678Y297927D01*
X659715Y297911D01*
X659936Y297803D01*
X659974Y297787D01*
X661144Y296617D01*
X661244Y296534D01*
X661337Y296443D01*
X661417Y296389D01*
X661490Y296328D01*
X661603Y296264D01*
X661710Y296191D01*
X661798Y296152D01*
X661881Y296105D01*
X662003Y296061D01*
X662122Y296009D01*
X662215Y295986D01*
X662305Y295954D01*
X662433Y295933D01*
X662560Y295902D01*
X662655Y295896D01*
X662749Y295880D01*
X662879Y295882D01*
X663009Y295874D01*
X663104Y295885D01*
X663200Y295887D01*
X663327Y295911D01*
X663456Y295926D01*
X663548Y295954D01*
X663642Y295972D01*
X663763Y296019D01*
X663887Y296057D01*
X663973Y296100D01*
X664062Y296134D01*
X664173Y296202D01*
X664289Y296261D01*
X664365Y296319D01*
X664446Y296368D01*
X664544Y296454D01*
X664647Y296533D01*
X664712Y296603D01*
X664784Y296667D01*
X664864Y296768D01*
X664953Y296864D01*
X665004Y296945D01*
X665063Y297020D01*
X665124Y297134D01*
X665194Y297244D01*
X665231Y297332D01*
X665276Y297416D01*
X665316Y297540D01*
X665365Y297660D01*
X665385Y297754D01*
X665415Y297845D01*
X665419Y297875D01*
X667265Y299721D01*
X689095Y299721D01*
X690881Y297935D01*
X690881Y295148D01*
X690884Y295113D01*
X690882Y295079D01*
X690904Y294890D01*
X690921Y294699D01*
X690930Y294666D01*
X690934Y294632D01*
X690989Y294449D01*
X691039Y294265D01*
X691054Y294234D01*
X691064Y294201D01*
X691151Y294030D01*
X691233Y293858D01*
X691253Y293830D01*
X691268Y293799D01*
X691384Y293647D01*
X691495Y293492D01*
X691520Y293468D01*
X691540Y293441D01*
X691680Y293312D01*
X691817Y293178D01*
X691846Y293159D01*
X691872Y293135D01*
X692033Y293033D01*
X692190Y292926D01*
X692222Y292912D01*
X692251Y292894D01*
X692428Y292821D01*
X692602Y292744D01*
X692636Y292736D01*
X692668Y292723D01*
X692855Y292683D01*
X693040Y292637D01*
X693074Y292635D01*
X693108Y292628D01*
X693420Y292609D01*
X698771Y292609D01*
X698982Y292628D01*
X699194Y292644D01*
X699207Y292647D01*
X699220Y292649D01*
X699424Y292704D01*
X699629Y292758D01*
X699642Y292764D01*
X699654Y292767D01*
X699844Y292857D01*
X700038Y292947D01*
X700049Y292955D01*
X700061Y292961D01*
X700232Y293083D01*
X700407Y293206D01*
X700416Y293215D01*
X700427Y293223D01*
X700575Y293375D01*
X700724Y293525D01*
X700732Y293536D01*
X700741Y293545D01*
X700860Y293721D01*
X700980Y293896D01*
X700987Y293910D01*
X700993Y293918D01*
X701009Y293954D01*
X701117Y294176D01*
X701252Y294502D01*
X704968Y298218D01*
X709823Y300229D01*
X715077Y300229D01*
X719932Y298218D01*
X723648Y294502D01*
X725659Y289647D01*
X725659Y284393D01*
X723648Y279538D01*
X719932Y275822D01*
X715077Y273811D01*
X709823Y273811D01*
X704968Y275822D01*
X701252Y279538D01*
X701117Y279864D01*
X701020Y280051D01*
X700923Y280241D01*
X700915Y280251D01*
X700909Y280263D01*
X700779Y280431D01*
X700651Y280599D01*
X700641Y280608D01*
X700633Y280619D01*
X700476Y280761D01*
X700320Y280905D01*
X700309Y280912D01*
X700299Y280920D01*
X700120Y281032D01*
X699940Y281146D01*
X699928Y281151D01*
X699917Y281158D01*
X699720Y281237D01*
X699523Y281317D01*
X699510Y281320D01*
X699498Y281325D01*
X699291Y281367D01*
X699083Y281412D01*
X699067Y281413D01*
X699057Y281415D01*
X699018Y281416D01*
X698771Y281431D01*
X693420Y281431D01*
X693385Y281428D01*
X693351Y281430D01*
X693162Y281408D01*
X692971Y281391D01*
X692938Y281382D01*
X692904Y281378D01*
X692721Y281323D01*
X692537Y281273D01*
X692506Y281258D01*
X692473Y281248D01*
X692302Y281161D01*
X692130Y281079D01*
X692102Y281059D01*
X692071Y281044D01*
X691919Y280928D01*
X691764Y280817D01*
X691740Y280792D01*
X691713Y280772D01*
X691583Y280631D01*
X691450Y280495D01*
X691431Y280466D01*
X691407Y280440D01*
X691305Y280279D01*
X691198Y280122D01*
X691184Y280090D01*
X691166Y280061D01*
X691093Y279884D01*
X691016Y279710D01*
X691008Y279676D01*
X690995Y279644D01*
X690954Y279457D01*
X690909Y279272D01*
X690907Y279238D01*
X690900Y279204D01*
X690881Y278892D01*
X690881Y276105D01*
X689095Y274319D01*
X667265Y274319D01*
X665413Y276171D01*
X665405Y276202D01*
X665380Y276329D01*
X665346Y276418D01*
X665321Y276510D01*
X665265Y276628D01*
X665218Y276749D01*
X665168Y276831D01*
X665127Y276917D01*
X665052Y277023D01*
X664984Y277134D01*
X664921Y277205D01*
X664865Y277283D01*
X664772Y277374D01*
X664686Y277471D01*
X664611Y277530D01*
X664543Y277597D01*
X664435Y277670D01*
X664333Y277751D01*
X664249Y277796D01*
X664170Y277849D01*
X664051Y277902D01*
X663936Y277963D01*
X663845Y277993D01*
X663758Y278031D01*
X663631Y278062D01*
X663508Y278102D01*
X663413Y278115D01*
X663320Y278138D01*
X663191Y278146D01*
X663062Y278164D01*
X662966Y278160D01*
X662871Y278166D01*
X662742Y278151D01*
X662612Y278145D01*
X662519Y278125D01*
X662424Y278114D01*
X662299Y278076D01*
X662172Y278048D01*
X662084Y278011D01*
X661993Y277983D01*
X661877Y277924D01*
X661757Y277874D01*
X661677Y277822D01*
X661591Y277779D01*
X661488Y277701D01*
X661379Y277630D01*
X661281Y277544D01*
X661233Y277507D01*
X661202Y277474D01*
X661144Y277423D01*
X659974Y276253D01*
X655306Y274319D01*
X650254Y274319D01*
X645586Y276253D01*
X642013Y279826D01*
X640079Y284494D01*
X640079Y289546D01*
X642013Y294214D01*
X645586Y297787D01*
X645624Y297803D01*
X645811Y297901D01*
X646001Y297997D01*
X646011Y298005D01*
X646023Y298011D01*
X646192Y298142D01*
X646359Y298269D01*
X646368Y298279D01*
X646379Y298287D01*
X646521Y298444D01*
X646665Y298600D01*
X646672Y298612D01*
X646680Y298621D01*
X646792Y298801D01*
X646906Y298980D01*
X646911Y298993D01*
X646918Y299004D01*
X646997Y299201D01*
X647077Y299397D01*
X647080Y299410D01*
X647085Y299422D01*
X647127Y299629D01*
X647172Y299837D01*
X647173Y299853D01*
X647175Y299863D01*
X647176Y299902D01*
X647191Y300149D01*
X647191Y314133D01*
X647177Y314297D01*
X647170Y314461D01*
X647157Y314521D01*
X647151Y314582D01*
X647108Y314741D01*
X647072Y314901D01*
X647049Y314957D01*
X647033Y315016D01*
X646962Y315164D01*
X646899Y315316D01*
X646866Y315368D01*
X646839Y315423D01*
X646744Y315556D01*
X646654Y315695D01*
X646603Y315752D01*
X646577Y315789D01*
X646534Y315831D01*
X646448Y315929D01*
X623269Y339108D01*
X623142Y339213D01*
X623022Y339325D01*
X622970Y339357D01*
X622923Y339396D01*
X622781Y339478D01*
X622642Y339566D01*
X622585Y339590D01*
X622532Y339620D01*
X622378Y339675D01*
X622225Y339737D01*
X622166Y339750D01*
X622108Y339771D01*
X621946Y339797D01*
X621785Y339832D01*
X621708Y339837D01*
X621664Y339844D01*
X621603Y339843D01*
X621473Y339851D01*
X613983Y339851D01*
X613853Y339840D01*
X613723Y339838D01*
X613629Y339820D01*
X613534Y339811D01*
X613409Y339777D01*
X613281Y339752D01*
X613192Y339718D01*
X613100Y339693D01*
X612983Y339637D01*
X612861Y339590D01*
X612779Y339540D01*
X612693Y339499D01*
X612588Y339424D01*
X612476Y339356D01*
X612405Y339293D01*
X612327Y339237D01*
X612236Y339144D01*
X612139Y339058D01*
X612080Y338983D01*
X612013Y338915D01*
X611940Y338807D01*
X611860Y338705D01*
X611815Y338621D01*
X611761Y338542D01*
X611708Y338423D01*
X611647Y338308D01*
X611617Y338217D01*
X611579Y338130D01*
X611548Y338003D01*
X611508Y337880D01*
X611495Y337785D01*
X611472Y337692D01*
X611464Y337563D01*
X611446Y337434D01*
X611450Y337338D01*
X611444Y337243D01*
X611459Y337114D01*
X611465Y336984D01*
X611485Y336891D01*
X611496Y336796D01*
X611534Y336671D01*
X611562Y336544D01*
X611599Y336456D01*
X611627Y336365D01*
X611686Y336249D01*
X611736Y336129D01*
X611788Y336048D01*
X611831Y335963D01*
X611910Y335860D01*
X611980Y335751D01*
X612066Y335653D01*
X612103Y335605D01*
X612136Y335574D01*
X612187Y335516D01*
X627649Y320055D01*
X629578Y318126D01*
X630429Y316072D01*
X630429Y249747D01*
X630443Y249583D01*
X630450Y249419D01*
X630463Y249359D01*
X630469Y249298D01*
X630512Y249139D01*
X630548Y248979D01*
X630571Y248923D01*
X630587Y248864D01*
X630658Y248716D01*
X630721Y248564D01*
X630754Y248512D01*
X630781Y248457D01*
X630876Y248324D01*
X630966Y248185D01*
X631017Y248128D01*
X631043Y248091D01*
X631086Y248049D01*
X631172Y247951D01*
X647448Y231675D01*
X647612Y231539D01*
X647772Y231402D01*
X647783Y231395D01*
X647794Y231386D01*
X647978Y231281D01*
X648161Y231174D01*
X648173Y231170D01*
X648185Y231163D01*
X648384Y231092D01*
X648583Y231019D01*
X648596Y231017D01*
X648609Y231012D01*
X648819Y230978D01*
X649027Y230941D01*
X649040Y230941D01*
X649053Y230939D01*
X649267Y230942D01*
X649477Y230942D01*
X649490Y230945D01*
X649503Y230945D01*
X649712Y230985D01*
X649920Y231023D01*
X649935Y231028D01*
X649945Y231030D01*
X649982Y231045D01*
X650216Y231125D01*
X650254Y231141D01*
X655306Y231141D01*
X659974Y229207D01*
X661144Y228037D01*
X661244Y227954D01*
X661337Y227863D01*
X661417Y227809D01*
X661490Y227748D01*
X661603Y227684D01*
X661710Y227611D01*
X661798Y227572D01*
X661881Y227525D01*
X662003Y227481D01*
X662122Y227429D01*
X662215Y227406D01*
X662305Y227374D01*
X662433Y227353D01*
X662560Y227322D01*
X662655Y227316D01*
X662749Y227300D01*
X662879Y227302D01*
X663009Y227294D01*
X663104Y227305D01*
X663200Y227307D01*
X663327Y227331D01*
X663456Y227346D01*
X663548Y227374D01*
X663642Y227392D01*
X663763Y227439D01*
X663887Y227477D01*
X663973Y227520D01*
X664062Y227554D01*
X664173Y227622D01*
X664289Y227681D01*
X664365Y227739D01*
X664446Y227788D01*
X664544Y227874D01*
X664647Y227953D01*
X664712Y228023D01*
X664784Y228087D01*
X664864Y228188D01*
X664953Y228284D01*
X665004Y228365D01*
X665063Y228440D01*
X665125Y228554D01*
X665194Y228664D01*
X665231Y228752D01*
X665276Y228836D01*
X665316Y228960D01*
X665365Y229080D01*
X665385Y229174D01*
X665415Y229265D01*
X665419Y229295D01*
X667265Y231141D01*
X689095Y231141D01*
X690881Y229355D01*
X690881Y226568D01*
X690884Y226533D01*
X690882Y226499D01*
X690904Y226310D01*
X690921Y226119D01*
X690930Y226086D01*
X690934Y226052D01*
X690989Y225869D01*
X691039Y225685D01*
X691054Y225654D01*
X691064Y225621D01*
X691151Y225450D01*
X691233Y225278D01*
X691253Y225250D01*
X691268Y225219D01*
X691384Y225067D01*
X691495Y224912D01*
X691520Y224888D01*
X691540Y224861D01*
X691680Y224732D01*
X691817Y224598D01*
X691846Y224579D01*
X691872Y224555D01*
X692033Y224453D01*
X692190Y224346D01*
X692222Y224332D01*
X692251Y224314D01*
X692428Y224241D01*
X692602Y224164D01*
X692636Y224156D01*
X692668Y224143D01*
X692855Y224103D01*
X693040Y224057D01*
X693074Y224055D01*
X693108Y224048D01*
X693420Y224029D01*
X698251Y224029D01*
X698462Y224048D01*
X698674Y224064D01*
X698687Y224067D01*
X698700Y224069D01*
X698904Y224124D01*
X699109Y224178D01*
X699122Y224184D01*
X699134Y224187D01*
X699324Y224277D01*
X699518Y224367D01*
X699529Y224375D01*
X699541Y224381D01*
X699712Y224503D01*
X699887Y224626D01*
X699896Y224635D01*
X699907Y224643D01*
X700055Y224795D01*
X700204Y224945D01*
X700212Y224956D01*
X700221Y224965D01*
X700340Y225141D01*
X700460Y225316D01*
X700467Y225330D01*
X700473Y225338D01*
X700489Y225374D01*
X700597Y225596D01*
X700732Y225922D01*
X704448Y229638D01*
X709303Y231649D01*
X714557Y231649D01*
X719412Y229638D01*
X723128Y225922D01*
X725139Y221067D01*
X725139Y215813D01*
X723128Y210958D01*
X719412Y207242D01*
X714557Y205231D01*
X709303Y205231D01*
G37*
%LPD*%
%LPC*%
G36*
X314155Y258441D02*
X314155Y258441D01*
X309767Y260259D01*
X306409Y263617D01*
X304591Y268005D01*
X304591Y272755D01*
X306409Y277143D01*
X309767Y280501D01*
X310329Y280734D01*
X310445Y280794D01*
X310564Y280846D01*
X310644Y280898D01*
X310728Y280942D01*
X310831Y281022D01*
X310940Y281094D01*
X311009Y281160D01*
X311084Y281218D01*
X311171Y281315D01*
X311266Y281404D01*
X311322Y281482D01*
X311386Y281552D01*
X311455Y281663D01*
X311532Y281768D01*
X311574Y281854D01*
X311624Y281935D01*
X311672Y282056D01*
X311729Y282172D01*
X311755Y282264D01*
X311791Y282353D01*
X311817Y282481D01*
X311852Y282606D01*
X311862Y282700D01*
X311881Y282794D01*
X311884Y282924D01*
X311897Y283054D01*
X311889Y283149D01*
X311892Y283244D01*
X311872Y283373D01*
X311862Y283503D01*
X311837Y283595D01*
X311823Y283689D01*
X311780Y283812D01*
X311748Y283938D01*
X311707Y284025D01*
X311676Y284115D01*
X311613Y284229D01*
X311558Y284347D01*
X311504Y284425D01*
X311457Y284508D01*
X311375Y284609D01*
X311300Y284716D01*
X311232Y284783D01*
X311172Y284857D01*
X311073Y284941D01*
X310981Y285033D01*
X310902Y285087D01*
X310829Y285149D01*
X310717Y285215D01*
X310610Y285289D01*
X310493Y285346D01*
X310441Y285377D01*
X310399Y285392D01*
X310329Y285426D01*
X309767Y285659D01*
X306409Y289017D01*
X304591Y293405D01*
X304591Y298155D01*
X306409Y302543D01*
X309767Y305901D01*
X310329Y306134D01*
X310445Y306194D01*
X310564Y306246D01*
X310644Y306298D01*
X310728Y306342D01*
X310831Y306422D01*
X310940Y306494D01*
X311009Y306560D01*
X311084Y306618D01*
X311171Y306715D01*
X311266Y306804D01*
X311322Y306882D01*
X311386Y306952D01*
X311455Y307063D01*
X311532Y307168D01*
X311574Y307254D01*
X311624Y307335D01*
X311672Y307456D01*
X311729Y307572D01*
X311755Y307664D01*
X311791Y307753D01*
X311817Y307881D01*
X311852Y308006D01*
X311862Y308100D01*
X311881Y308194D01*
X311884Y308324D01*
X311897Y308454D01*
X311889Y308549D01*
X311892Y308644D01*
X311872Y308773D01*
X311862Y308903D01*
X311837Y308995D01*
X311823Y309089D01*
X311780Y309212D01*
X311748Y309338D01*
X311707Y309425D01*
X311676Y309515D01*
X311613Y309629D01*
X311558Y309747D01*
X311504Y309825D01*
X311457Y309908D01*
X311375Y310009D01*
X311300Y310116D01*
X311232Y310183D01*
X311172Y310257D01*
X311073Y310341D01*
X310981Y310433D01*
X310902Y310487D01*
X310829Y310549D01*
X310717Y310615D01*
X310610Y310689D01*
X310493Y310746D01*
X310441Y310777D01*
X310399Y310792D01*
X310329Y310826D01*
X309767Y311059D01*
X306409Y314417D01*
X304591Y318805D01*
X304591Y323555D01*
X306409Y327943D01*
X309767Y331301D01*
X310329Y331534D01*
X310445Y331594D01*
X310564Y331646D01*
X310644Y331698D01*
X310728Y331742D01*
X310831Y331822D01*
X310940Y331894D01*
X311009Y331960D01*
X311084Y332018D01*
X311171Y332115D01*
X311266Y332204D01*
X311322Y332282D01*
X311386Y332352D01*
X311455Y332463D01*
X311532Y332568D01*
X311574Y332654D01*
X311624Y332735D01*
X311672Y332856D01*
X311729Y332972D01*
X311755Y333064D01*
X311791Y333153D01*
X311817Y333281D01*
X311852Y333406D01*
X311862Y333500D01*
X311881Y333594D01*
X311884Y333724D01*
X311897Y333854D01*
X311889Y333949D01*
X311892Y334044D01*
X311872Y334173D01*
X311862Y334303D01*
X311837Y334395D01*
X311823Y334489D01*
X311780Y334612D01*
X311748Y334738D01*
X311707Y334825D01*
X311676Y334915D01*
X311613Y335029D01*
X311558Y335147D01*
X311504Y335225D01*
X311457Y335308D01*
X311375Y335409D01*
X311300Y335516D01*
X311232Y335583D01*
X311172Y335657D01*
X311073Y335741D01*
X310981Y335833D01*
X310902Y335887D01*
X310829Y335949D01*
X310717Y336015D01*
X310610Y336089D01*
X310493Y336146D01*
X310441Y336177D01*
X310399Y336192D01*
X310329Y336226D01*
X309767Y336459D01*
X306409Y339817D01*
X304591Y344205D01*
X304591Y348955D01*
X306409Y353343D01*
X309767Y356701D01*
X314155Y358519D01*
X318905Y358519D01*
X323293Y356701D01*
X326833Y353161D01*
X326955Y353001D01*
X326964Y352992D01*
X326972Y352982D01*
X327130Y352839D01*
X327286Y352695D01*
X327297Y352689D01*
X327306Y352680D01*
X327486Y352568D01*
X327665Y352454D01*
X327678Y352449D01*
X327688Y352442D01*
X327885Y352364D01*
X328082Y352283D01*
X328095Y352280D01*
X328107Y352275D01*
X328315Y352233D01*
X328522Y352188D01*
X328538Y352187D01*
X328548Y352185D01*
X328587Y352184D01*
X328834Y352169D01*
X363200Y352169D01*
X363235Y352172D01*
X363269Y352170D01*
X363458Y352192D01*
X363649Y352209D01*
X363682Y352218D01*
X363716Y352222D01*
X363899Y352277D01*
X364083Y352327D01*
X364114Y352342D01*
X364147Y352352D01*
X364318Y352439D01*
X364490Y352521D01*
X364518Y352541D01*
X364549Y352556D01*
X364701Y352672D01*
X364856Y352783D01*
X364880Y352808D01*
X364907Y352828D01*
X365036Y352968D01*
X365170Y353105D01*
X365189Y353134D01*
X365213Y353160D01*
X365315Y353321D01*
X365422Y353478D01*
X365436Y353510D01*
X365454Y353539D01*
X365527Y353716D01*
X365604Y353890D01*
X365612Y353924D01*
X365625Y353956D01*
X365665Y354143D01*
X365711Y354328D01*
X365713Y354362D01*
X365720Y354396D01*
X365739Y354708D01*
X365739Y356780D01*
X365737Y356809D01*
X365738Y356836D01*
X365738Y356840D01*
X365738Y356849D01*
X365716Y357038D01*
X365699Y357229D01*
X365690Y357262D01*
X365686Y357296D01*
X365631Y357479D01*
X365581Y357663D01*
X365566Y357694D01*
X365556Y357727D01*
X365469Y357898D01*
X365387Y358070D01*
X365367Y358098D01*
X365352Y358129D01*
X365236Y358281D01*
X365125Y358436D01*
X365100Y358460D01*
X365080Y358487D01*
X364940Y358616D01*
X364803Y358750D01*
X364774Y358769D01*
X364748Y358793D01*
X364587Y358895D01*
X364430Y359002D01*
X364398Y359016D01*
X364369Y359034D01*
X364192Y359107D01*
X364018Y359184D01*
X363984Y359192D01*
X363952Y359205D01*
X363765Y359245D01*
X363580Y359291D01*
X363546Y359293D01*
X363512Y359300D01*
X363200Y359319D01*
X344380Y359319D01*
X342326Y360170D01*
X289102Y413394D01*
X288251Y415448D01*
X288251Y427456D01*
X288232Y427668D01*
X288216Y427879D01*
X288213Y427892D01*
X288211Y427905D01*
X288155Y428110D01*
X288102Y428315D01*
X288096Y428327D01*
X288093Y428339D01*
X288003Y428529D01*
X287913Y428723D01*
X287905Y428734D01*
X287899Y428746D01*
X287777Y428918D01*
X287654Y429092D01*
X287645Y429101D01*
X287637Y429112D01*
X287485Y429260D01*
X287335Y429409D01*
X287324Y429417D01*
X287315Y429426D01*
X287139Y429545D01*
X286965Y429665D01*
X286950Y429672D01*
X286942Y429678D01*
X286905Y429694D01*
X286684Y429802D01*
X285926Y430116D01*
X281996Y434046D01*
X279869Y439181D01*
X279869Y444739D01*
X281996Y449874D01*
X285926Y453804D01*
X291061Y455931D01*
X296619Y455931D01*
X301754Y453804D01*
X305684Y449874D01*
X307811Y444739D01*
X307811Y439181D01*
X305684Y434046D01*
X301754Y430116D01*
X300996Y429802D01*
X300808Y429704D01*
X300619Y429608D01*
X300609Y429600D01*
X300597Y429594D01*
X300429Y429464D01*
X300261Y429336D01*
X300252Y429326D01*
X300241Y429318D01*
X300100Y429161D01*
X299955Y429005D01*
X299948Y428994D01*
X299940Y428984D01*
X299828Y428805D01*
X299714Y428625D01*
X299709Y428613D01*
X299702Y428602D01*
X299624Y428405D01*
X299543Y428209D01*
X299540Y428196D01*
X299535Y428183D01*
X299493Y427977D01*
X299448Y427768D01*
X299447Y427753D01*
X299445Y427742D01*
X299444Y427703D01*
X299429Y427456D01*
X299429Y419927D01*
X299443Y419763D01*
X299450Y419599D01*
X299463Y419539D01*
X299469Y419478D01*
X299512Y419319D01*
X299548Y419159D01*
X299571Y419103D01*
X299587Y419044D01*
X299658Y418896D01*
X299721Y418744D01*
X299754Y418692D01*
X299781Y418637D01*
X299876Y418504D01*
X299966Y418365D01*
X300017Y418308D01*
X300043Y418271D01*
X300086Y418229D01*
X300172Y418131D01*
X347063Y371240D01*
X347190Y371135D01*
X347310Y371023D01*
X347362Y370991D01*
X347409Y370952D01*
X347551Y370870D01*
X347690Y370782D01*
X347747Y370758D01*
X347800Y370728D01*
X347954Y370673D01*
X348107Y370611D01*
X348166Y370598D01*
X348224Y370577D01*
X348386Y370551D01*
X348547Y370516D01*
X348624Y370511D01*
X348668Y370504D01*
X348729Y370505D01*
X348859Y370497D01*
X363200Y370497D01*
X363235Y370500D01*
X363269Y370498D01*
X363458Y370520D01*
X363649Y370537D01*
X363682Y370546D01*
X363716Y370550D01*
X363899Y370605D01*
X364083Y370655D01*
X364114Y370670D01*
X364147Y370680D01*
X364318Y370767D01*
X364490Y370849D01*
X364518Y370869D01*
X364549Y370884D01*
X364700Y371000D01*
X364856Y371111D01*
X364880Y371136D01*
X364907Y371156D01*
X365036Y371296D01*
X365170Y371433D01*
X365189Y371462D01*
X365213Y371488D01*
X365315Y371649D01*
X365422Y371806D01*
X365436Y371838D01*
X365454Y371867D01*
X365527Y372044D01*
X365604Y372218D01*
X365612Y372252D01*
X365625Y372284D01*
X365665Y372471D01*
X365711Y372656D01*
X365713Y372690D01*
X365720Y372724D01*
X365739Y373036D01*
X365739Y375823D01*
X367525Y377609D01*
X389355Y377609D01*
X391141Y375823D01*
X391141Y353993D01*
X389214Y352066D01*
X389150Y352049D01*
X389032Y351993D01*
X388911Y351946D01*
X388829Y351896D01*
X388743Y351855D01*
X388637Y351780D01*
X388526Y351712D01*
X388455Y351649D01*
X388377Y351593D01*
X388286Y351500D01*
X388189Y351414D01*
X388130Y351339D01*
X388063Y351271D01*
X387990Y351163D01*
X387909Y351061D01*
X387864Y350977D01*
X387811Y350898D01*
X387758Y350779D01*
X387697Y350664D01*
X387667Y350573D01*
X387629Y350486D01*
X387598Y350359D01*
X387558Y350236D01*
X387545Y350141D01*
X387522Y350048D01*
X387514Y349919D01*
X387496Y349790D01*
X387500Y349694D01*
X387494Y349599D01*
X387509Y349470D01*
X387515Y349340D01*
X387535Y349247D01*
X387546Y349152D01*
X387584Y349027D01*
X387612Y348900D01*
X387649Y348812D01*
X387677Y348721D01*
X387736Y348605D01*
X387786Y348485D01*
X387838Y348405D01*
X387881Y348319D01*
X387959Y348216D01*
X388030Y348107D01*
X388116Y348009D01*
X388153Y347961D01*
X388186Y347930D01*
X388237Y347872D01*
X389207Y346902D01*
X391141Y342234D01*
X391141Y337182D01*
X389207Y332514D01*
X385634Y328941D01*
X380966Y327007D01*
X375914Y327007D01*
X371246Y328941D01*
X367673Y332514D01*
X365739Y337182D01*
X365739Y338452D01*
X365736Y338487D01*
X365738Y338521D01*
X365716Y338710D01*
X365699Y338901D01*
X365690Y338934D01*
X365686Y338968D01*
X365631Y339151D01*
X365581Y339335D01*
X365566Y339366D01*
X365556Y339399D01*
X365469Y339570D01*
X365387Y339742D01*
X365367Y339770D01*
X365352Y339801D01*
X365236Y339953D01*
X365125Y340108D01*
X365100Y340132D01*
X365080Y340159D01*
X364940Y340288D01*
X364803Y340422D01*
X364774Y340441D01*
X364748Y340465D01*
X364587Y340567D01*
X364430Y340674D01*
X364398Y340688D01*
X364369Y340706D01*
X364192Y340779D01*
X364018Y340856D01*
X363984Y340864D01*
X363952Y340877D01*
X363765Y340917D01*
X363580Y340963D01*
X363546Y340965D01*
X363512Y340972D01*
X363200Y340991D01*
X328834Y340991D01*
X328622Y340972D01*
X328411Y340956D01*
X328399Y340953D01*
X328386Y340951D01*
X328181Y340896D01*
X327975Y340842D01*
X327964Y340836D01*
X327951Y340833D01*
X327761Y340743D01*
X327567Y340652D01*
X327556Y340645D01*
X327545Y340639D01*
X327372Y340516D01*
X327198Y340394D01*
X327189Y340385D01*
X327179Y340377D01*
X327030Y340225D01*
X326881Y340075D01*
X326874Y340064D01*
X326865Y340055D01*
X326814Y339980D01*
X323293Y336459D01*
X322731Y336226D01*
X322615Y336166D01*
X322496Y336114D01*
X322416Y336062D01*
X322331Y336017D01*
X322228Y335938D01*
X322120Y335866D01*
X322051Y335800D01*
X321976Y335742D01*
X321888Y335645D01*
X321794Y335555D01*
X321738Y335478D01*
X321674Y335407D01*
X321605Y335297D01*
X321528Y335192D01*
X321486Y335106D01*
X321436Y335025D01*
X321388Y334904D01*
X321331Y334787D01*
X321305Y334696D01*
X321269Y334607D01*
X321243Y334479D01*
X321208Y334354D01*
X321198Y334259D01*
X321179Y334166D01*
X321176Y334036D01*
X321163Y333906D01*
X321171Y333811D01*
X321168Y333716D01*
X321188Y333587D01*
X321198Y333457D01*
X321223Y333365D01*
X321237Y333271D01*
X321280Y333148D01*
X321312Y333022D01*
X321353Y332935D01*
X321384Y332845D01*
X321447Y332731D01*
X321502Y332613D01*
X321556Y332535D01*
X321603Y332452D01*
X321685Y332351D01*
X321760Y332244D01*
X321828Y332177D01*
X321888Y332103D01*
X321987Y332019D01*
X322079Y331927D01*
X322158Y331873D01*
X322231Y331811D01*
X322343Y331745D01*
X322450Y331671D01*
X322567Y331614D01*
X322619Y331583D01*
X322661Y331568D01*
X322731Y331534D01*
X323293Y331301D01*
X326833Y327761D01*
X326955Y327601D01*
X326964Y327592D01*
X326972Y327582D01*
X327130Y327439D01*
X327286Y327295D01*
X327297Y327289D01*
X327306Y327280D01*
X327486Y327168D01*
X327665Y327054D01*
X327678Y327049D01*
X327688Y327042D01*
X327885Y326964D01*
X328082Y326883D01*
X328095Y326880D01*
X328107Y326875D01*
X328315Y326833D01*
X328522Y326788D01*
X328538Y326787D01*
X328548Y326785D01*
X328587Y326784D01*
X328834Y326769D01*
X343042Y326769D01*
X345096Y325918D01*
X356553Y314460D01*
X356680Y314355D01*
X356800Y314243D01*
X356852Y314211D01*
X356899Y314172D01*
X357041Y314090D01*
X357180Y314002D01*
X357237Y313978D01*
X357290Y313948D01*
X357444Y313893D01*
X357597Y313831D01*
X357656Y313818D01*
X357714Y313797D01*
X357876Y313771D01*
X358037Y313736D01*
X358114Y313731D01*
X358158Y313724D01*
X358219Y313725D01*
X358349Y313717D01*
X362924Y313717D01*
X367592Y311783D01*
X370013Y309362D01*
X370167Y309234D01*
X370319Y309102D01*
X370340Y309089D01*
X370359Y309073D01*
X370533Y308974D01*
X370705Y308871D01*
X370728Y308862D01*
X370750Y308850D01*
X370939Y308783D01*
X371126Y308712D01*
X371151Y308707D01*
X371174Y308699D01*
X371372Y308666D01*
X371569Y308630D01*
X371594Y308630D01*
X371618Y308625D01*
X371819Y308628D01*
X372019Y308627D01*
X372044Y308631D01*
X372069Y308632D01*
X372265Y308670D01*
X372463Y308704D01*
X372486Y308712D01*
X372511Y308717D01*
X372697Y308789D01*
X372886Y308858D01*
X372907Y308871D01*
X372931Y308879D01*
X373102Y308983D01*
X373275Y309084D01*
X373294Y309100D01*
X373315Y309113D01*
X373466Y309246D01*
X373618Y309376D01*
X373638Y309399D01*
X373653Y309412D01*
X373687Y309455D01*
X373824Y309612D01*
X374697Y310751D01*
X376063Y312116D01*
X377595Y313292D01*
X379268Y314258D01*
X381052Y314997D01*
X382917Y315497D01*
X383259Y315542D01*
X383259Y301016D01*
X383259Y286490D01*
X382917Y286535D01*
X381052Y287035D01*
X379268Y287774D01*
X377595Y288740D01*
X376063Y289916D01*
X374697Y291281D01*
X373824Y292420D01*
X373688Y292568D01*
X373555Y292718D01*
X373536Y292734D01*
X373519Y292752D01*
X373360Y292873D01*
X373202Y292998D01*
X373180Y293009D01*
X373160Y293024D01*
X372982Y293115D01*
X372805Y293210D01*
X372782Y293218D01*
X372759Y293229D01*
X372567Y293288D01*
X372377Y293349D01*
X372352Y293353D01*
X372329Y293360D01*
X372129Y293383D01*
X371931Y293411D01*
X371906Y293410D01*
X371881Y293413D01*
X371682Y293401D01*
X371481Y293392D01*
X371457Y293387D01*
X371432Y293386D01*
X371237Y293338D01*
X371041Y293295D01*
X371018Y293285D01*
X370994Y293279D01*
X370810Y293198D01*
X370626Y293121D01*
X370605Y293108D01*
X370582Y293098D01*
X370416Y292985D01*
X370248Y292877D01*
X370225Y292857D01*
X370209Y292846D01*
X370170Y292808D01*
X370013Y292670D01*
X367592Y290249D01*
X362924Y288315D01*
X357872Y288315D01*
X353204Y290249D01*
X349631Y293822D01*
X347697Y298490D01*
X347697Y303542D01*
X348210Y304780D01*
X348274Y304984D01*
X348339Y305184D01*
X348341Y305197D01*
X348345Y305209D01*
X348371Y305421D01*
X348400Y305630D01*
X348400Y305643D01*
X348401Y305656D01*
X348391Y305867D01*
X348382Y306080D01*
X348379Y306093D01*
X348378Y306106D01*
X348330Y306311D01*
X348284Y306519D01*
X348279Y306531D01*
X348276Y306544D01*
X348193Y306738D01*
X348111Y306935D01*
X348104Y306946D01*
X348098Y306958D01*
X347981Y307135D01*
X347866Y307313D01*
X347856Y307325D01*
X347850Y307334D01*
X347823Y307362D01*
X347659Y307547D01*
X340359Y314848D01*
X340232Y314953D01*
X340112Y315065D01*
X340060Y315097D01*
X340013Y315136D01*
X339871Y315218D01*
X339732Y315306D01*
X339675Y315330D01*
X339622Y315360D01*
X339468Y315415D01*
X339315Y315477D01*
X339256Y315490D01*
X339198Y315511D01*
X339036Y315537D01*
X338875Y315572D01*
X338798Y315577D01*
X338754Y315584D01*
X338693Y315583D01*
X338563Y315591D01*
X328834Y315591D01*
X328622Y315572D01*
X328411Y315556D01*
X328399Y315553D01*
X328386Y315551D01*
X328181Y315496D01*
X327975Y315442D01*
X327964Y315436D01*
X327951Y315433D01*
X327761Y315343D01*
X327567Y315252D01*
X327556Y315245D01*
X327545Y315239D01*
X327372Y315116D01*
X327198Y314994D01*
X327189Y314985D01*
X327179Y314977D01*
X327030Y314825D01*
X326881Y314675D01*
X326874Y314664D01*
X326865Y314655D01*
X326814Y314580D01*
X323293Y311059D01*
X322731Y310826D01*
X322615Y310766D01*
X322496Y310714D01*
X322416Y310662D01*
X322331Y310617D01*
X322228Y310538D01*
X322120Y310466D01*
X322051Y310400D01*
X321976Y310342D01*
X321888Y310245D01*
X321794Y310155D01*
X321738Y310078D01*
X321674Y310007D01*
X321605Y309897D01*
X321528Y309792D01*
X321486Y309706D01*
X321436Y309625D01*
X321388Y309504D01*
X321331Y309387D01*
X321305Y309296D01*
X321269Y309207D01*
X321243Y309079D01*
X321208Y308954D01*
X321198Y308859D01*
X321179Y308766D01*
X321176Y308636D01*
X321163Y308506D01*
X321171Y308411D01*
X321168Y308316D01*
X321188Y308187D01*
X321198Y308057D01*
X321223Y307965D01*
X321237Y307871D01*
X321280Y307748D01*
X321312Y307622D01*
X321353Y307535D01*
X321384Y307445D01*
X321447Y307331D01*
X321502Y307213D01*
X321556Y307135D01*
X321603Y307052D01*
X321685Y306951D01*
X321760Y306844D01*
X321828Y306777D01*
X321888Y306703D01*
X321987Y306619D01*
X322079Y306527D01*
X322158Y306473D01*
X322231Y306411D01*
X322343Y306345D01*
X322450Y306271D01*
X322567Y306214D01*
X322619Y306183D01*
X322661Y306168D01*
X322731Y306134D01*
X323293Y305901D01*
X326651Y302543D01*
X328469Y298155D01*
X328469Y293405D01*
X326651Y289017D01*
X323293Y285659D01*
X322731Y285426D01*
X322615Y285366D01*
X322496Y285314D01*
X322416Y285262D01*
X322331Y285217D01*
X322228Y285138D01*
X322120Y285066D01*
X322051Y285000D01*
X321976Y284942D01*
X321888Y284845D01*
X321794Y284755D01*
X321738Y284678D01*
X321674Y284607D01*
X321605Y284497D01*
X321528Y284392D01*
X321486Y284306D01*
X321436Y284225D01*
X321388Y284104D01*
X321331Y283987D01*
X321305Y283896D01*
X321269Y283807D01*
X321243Y283679D01*
X321208Y283554D01*
X321198Y283459D01*
X321179Y283366D01*
X321176Y283236D01*
X321163Y283106D01*
X321171Y283011D01*
X321168Y282916D01*
X321188Y282787D01*
X321198Y282657D01*
X321223Y282565D01*
X321237Y282471D01*
X321280Y282348D01*
X321312Y282222D01*
X321353Y282135D01*
X321384Y282045D01*
X321447Y281931D01*
X321502Y281813D01*
X321556Y281735D01*
X321603Y281652D01*
X321685Y281551D01*
X321760Y281444D01*
X321828Y281377D01*
X321888Y281303D01*
X321987Y281219D01*
X322079Y281127D01*
X322158Y281073D01*
X322231Y281011D01*
X322343Y280945D01*
X322450Y280871D01*
X322567Y280814D01*
X322619Y280783D01*
X322661Y280768D01*
X322731Y280734D01*
X323293Y280501D01*
X326651Y277143D01*
X328469Y272755D01*
X328469Y268005D01*
X326651Y263617D01*
X323293Y260259D01*
X318905Y258441D01*
X314155Y258441D01*
G37*
%LPD*%
%LPC*%
G36*
X553633Y159511D02*
X553633Y159511D01*
X548778Y161522D01*
X545062Y165238D01*
X543051Y170093D01*
X543051Y175347D01*
X545062Y180202D01*
X548778Y183918D01*
X553633Y185929D01*
X558887Y185929D01*
X563742Y183918D01*
X566067Y181592D01*
X566193Y181487D01*
X566315Y181375D01*
X566366Y181343D01*
X566413Y181304D01*
X566555Y181222D01*
X566694Y181134D01*
X566751Y181110D01*
X566804Y181080D01*
X566959Y181025D01*
X567111Y180963D01*
X567171Y180950D01*
X567228Y180929D01*
X567390Y180903D01*
X567551Y180868D01*
X567628Y180863D01*
X567672Y180856D01*
X567733Y180857D01*
X567863Y180849D01*
X580681Y180849D01*
X580892Y180868D01*
X581104Y180884D01*
X581117Y180887D01*
X581130Y180889D01*
X581334Y180944D01*
X581539Y180998D01*
X581552Y181004D01*
X581564Y181007D01*
X581754Y181097D01*
X581948Y181187D01*
X581959Y181195D01*
X581971Y181201D01*
X582142Y181323D01*
X582317Y181446D01*
X582326Y181455D01*
X582337Y181463D01*
X582485Y181615D01*
X582634Y181765D01*
X582642Y181776D01*
X582651Y181785D01*
X582770Y181961D01*
X582890Y182136D01*
X582897Y182150D01*
X582903Y182158D01*
X582919Y182194D01*
X583027Y182416D01*
X583162Y182742D01*
X586878Y186458D01*
X587204Y186593D01*
X587392Y186691D01*
X587581Y186787D01*
X587591Y186795D01*
X587603Y186801D01*
X587771Y186932D01*
X587939Y187059D01*
X587948Y187069D01*
X587959Y187077D01*
X588101Y187234D01*
X588245Y187390D01*
X588252Y187401D01*
X588260Y187411D01*
X588372Y187590D01*
X588486Y187770D01*
X588491Y187782D01*
X588498Y187793D01*
X588577Y187990D01*
X588657Y188187D01*
X588660Y188200D01*
X588665Y188212D01*
X588707Y188418D01*
X588752Y188627D01*
X588753Y188643D01*
X588755Y188653D01*
X588756Y188692D01*
X588771Y188939D01*
X588771Y215073D01*
X588757Y215237D01*
X588750Y215401D01*
X588737Y215461D01*
X588731Y215522D01*
X588688Y215681D01*
X588652Y215841D01*
X588629Y215897D01*
X588613Y215956D01*
X588542Y216104D01*
X588479Y216256D01*
X588446Y216308D01*
X588419Y216363D01*
X588324Y216496D01*
X588234Y216635D01*
X588183Y216692D01*
X588157Y216729D01*
X588114Y216771D01*
X588028Y216869D01*
X574569Y230328D01*
X574443Y230433D01*
X574322Y230545D01*
X574270Y230577D01*
X574223Y230616D01*
X574081Y230698D01*
X573942Y230786D01*
X573885Y230810D01*
X573832Y230840D01*
X573678Y230895D01*
X573525Y230957D01*
X573466Y230970D01*
X573408Y230991D01*
X573246Y231017D01*
X573085Y231052D01*
X573008Y231057D01*
X572964Y231064D01*
X572903Y231063D01*
X572773Y231071D01*
X570114Y231071D01*
X569902Y231052D01*
X569691Y231036D01*
X569679Y231033D01*
X569666Y231031D01*
X569461Y230976D01*
X569255Y230922D01*
X569244Y230916D01*
X569231Y230913D01*
X569041Y230823D01*
X568847Y230732D01*
X568836Y230725D01*
X568825Y230719D01*
X568652Y230596D01*
X568478Y230474D01*
X568469Y230465D01*
X568459Y230457D01*
X568310Y230305D01*
X568161Y230155D01*
X568154Y230144D01*
X568145Y230135D01*
X568094Y230060D01*
X564573Y226539D01*
X564011Y226306D01*
X563895Y226246D01*
X563776Y226194D01*
X563696Y226142D01*
X563611Y226097D01*
X563508Y226018D01*
X563400Y225946D01*
X563331Y225880D01*
X563256Y225822D01*
X563168Y225725D01*
X563074Y225635D01*
X563018Y225558D01*
X562954Y225487D01*
X562885Y225377D01*
X562808Y225272D01*
X562766Y225186D01*
X562716Y225105D01*
X562668Y224984D01*
X562611Y224867D01*
X562585Y224776D01*
X562549Y224687D01*
X562523Y224559D01*
X562488Y224434D01*
X562478Y224339D01*
X562459Y224246D01*
X562456Y224116D01*
X562443Y223986D01*
X562451Y223891D01*
X562448Y223796D01*
X562468Y223667D01*
X562478Y223537D01*
X562503Y223445D01*
X562517Y223351D01*
X562560Y223228D01*
X562592Y223102D01*
X562633Y223015D01*
X562664Y222925D01*
X562727Y222811D01*
X562782Y222693D01*
X562836Y222615D01*
X562883Y222532D01*
X562965Y222431D01*
X563040Y222324D01*
X563108Y222257D01*
X563168Y222183D01*
X563267Y222099D01*
X563359Y222007D01*
X563438Y221953D01*
X563511Y221891D01*
X563623Y221825D01*
X563730Y221751D01*
X563847Y221694D01*
X563899Y221663D01*
X563941Y221648D01*
X564011Y221614D01*
X564573Y221381D01*
X567931Y218023D01*
X569749Y213635D01*
X569749Y208885D01*
X567931Y204497D01*
X564573Y201139D01*
X560185Y199321D01*
X555435Y199321D01*
X551047Y201139D01*
X547689Y204497D01*
X545871Y208885D01*
X545871Y213635D01*
X547689Y218023D01*
X551047Y221381D01*
X551609Y221614D01*
X551725Y221674D01*
X551844Y221726D01*
X551924Y221778D01*
X552008Y221822D01*
X552111Y221902D01*
X552220Y221974D01*
X552289Y222040D01*
X552364Y222098D01*
X552451Y222195D01*
X552546Y222284D01*
X552602Y222362D01*
X552666Y222432D01*
X552735Y222543D01*
X552812Y222648D01*
X552854Y222734D01*
X552904Y222815D01*
X552952Y222936D01*
X553009Y223052D01*
X553035Y223144D01*
X553071Y223233D01*
X553097Y223361D01*
X553132Y223486D01*
X553142Y223580D01*
X553161Y223674D01*
X553164Y223804D01*
X553177Y223934D01*
X553169Y224029D01*
X553172Y224124D01*
X553152Y224253D01*
X553142Y224383D01*
X553117Y224475D01*
X553103Y224569D01*
X553060Y224692D01*
X553028Y224818D01*
X552987Y224905D01*
X552956Y224995D01*
X552893Y225109D01*
X552838Y225227D01*
X552784Y225305D01*
X552737Y225388D01*
X552655Y225489D01*
X552580Y225596D01*
X552512Y225663D01*
X552452Y225737D01*
X552353Y225821D01*
X552261Y225913D01*
X552182Y225967D01*
X552109Y226029D01*
X551997Y226095D01*
X551890Y226169D01*
X551773Y226226D01*
X551721Y226257D01*
X551679Y226272D01*
X551609Y226306D01*
X551047Y226539D01*
X547689Y229897D01*
X545871Y234285D01*
X545871Y239035D01*
X547689Y243423D01*
X551047Y246781D01*
X551609Y247014D01*
X551725Y247074D01*
X551844Y247126D01*
X551924Y247178D01*
X552008Y247222D01*
X552111Y247302D01*
X552220Y247374D01*
X552289Y247440D01*
X552364Y247498D01*
X552451Y247595D01*
X552546Y247684D01*
X552602Y247762D01*
X552666Y247832D01*
X552735Y247943D01*
X552812Y248048D01*
X552854Y248134D01*
X552904Y248215D01*
X552952Y248336D01*
X553009Y248452D01*
X553035Y248544D01*
X553071Y248633D01*
X553097Y248761D01*
X553132Y248886D01*
X553142Y248980D01*
X553161Y249074D01*
X553164Y249204D01*
X553177Y249334D01*
X553169Y249429D01*
X553172Y249524D01*
X553152Y249653D01*
X553142Y249783D01*
X553117Y249875D01*
X553103Y249969D01*
X553060Y250092D01*
X553028Y250218D01*
X552987Y250305D01*
X552956Y250395D01*
X552893Y250509D01*
X552838Y250627D01*
X552784Y250705D01*
X552737Y250788D01*
X552655Y250889D01*
X552580Y250996D01*
X552512Y251063D01*
X552452Y251137D01*
X552353Y251221D01*
X552261Y251313D01*
X552182Y251367D01*
X552109Y251429D01*
X551997Y251495D01*
X551890Y251569D01*
X551773Y251626D01*
X551721Y251657D01*
X551679Y251672D01*
X551609Y251706D01*
X551047Y251939D01*
X547689Y255297D01*
X545871Y259685D01*
X545871Y264435D01*
X547689Y268823D01*
X551047Y272181D01*
X551609Y272414D01*
X551725Y272474D01*
X551844Y272526D01*
X551924Y272578D01*
X552008Y272622D01*
X552111Y272702D01*
X552220Y272774D01*
X552289Y272840D01*
X552364Y272898D01*
X552451Y272995D01*
X552546Y273084D01*
X552602Y273162D01*
X552666Y273232D01*
X552735Y273343D01*
X552812Y273448D01*
X552854Y273534D01*
X552904Y273615D01*
X552952Y273736D01*
X553009Y273852D01*
X553035Y273944D01*
X553071Y274033D01*
X553097Y274161D01*
X553132Y274286D01*
X553142Y274380D01*
X553161Y274474D01*
X553164Y274604D01*
X553177Y274734D01*
X553169Y274829D01*
X553172Y274924D01*
X553152Y275053D01*
X553142Y275183D01*
X553117Y275275D01*
X553103Y275369D01*
X553060Y275492D01*
X553028Y275618D01*
X552987Y275705D01*
X552956Y275795D01*
X552893Y275909D01*
X552838Y276027D01*
X552784Y276105D01*
X552737Y276188D01*
X552655Y276289D01*
X552580Y276396D01*
X552512Y276463D01*
X552452Y276537D01*
X552353Y276621D01*
X552261Y276713D01*
X552182Y276767D01*
X552109Y276829D01*
X551997Y276895D01*
X551890Y276969D01*
X551773Y277026D01*
X551721Y277057D01*
X551679Y277072D01*
X551609Y277106D01*
X551047Y277339D01*
X547689Y280697D01*
X545871Y285085D01*
X545871Y289835D01*
X547689Y294223D01*
X550642Y297176D01*
X550732Y297284D01*
X550830Y297387D01*
X550877Y297457D01*
X550931Y297521D01*
X551001Y297644D01*
X551079Y297762D01*
X551112Y297839D01*
X551154Y297912D01*
X551201Y298045D01*
X551258Y298175D01*
X551277Y298257D01*
X551305Y298336D01*
X551328Y298476D01*
X551360Y298614D01*
X551365Y298698D01*
X551378Y298780D01*
X551376Y298922D01*
X551384Y299063D01*
X551373Y299147D01*
X551372Y299231D01*
X551345Y299370D01*
X551328Y299510D01*
X551303Y299590D01*
X551287Y299673D01*
X551236Y299805D01*
X551193Y299940D01*
X551155Y300014D01*
X551124Y300093D01*
X551051Y300214D01*
X550985Y300339D01*
X550934Y300406D01*
X550890Y300477D01*
X550797Y300584D01*
X550710Y300696D01*
X550648Y300752D01*
X550592Y300815D01*
X550481Y300903D01*
X550376Y300998D01*
X550284Y301059D01*
X550239Y301094D01*
X550194Y301119D01*
X550116Y301170D01*
X550032Y301219D01*
X548579Y302334D01*
X547284Y303629D01*
X546169Y305082D01*
X545253Y306668D01*
X544552Y308360D01*
X544078Y310128D01*
X544053Y310321D01*
X557810Y310321D01*
X571567Y310321D01*
X571542Y310128D01*
X571068Y308360D01*
X570367Y306668D01*
X569451Y305082D01*
X568336Y303629D01*
X567041Y302334D01*
X565588Y301219D01*
X565504Y301170D01*
X565388Y301089D01*
X565267Y301015D01*
X565205Y300960D01*
X565136Y300912D01*
X565036Y300811D01*
X564930Y300717D01*
X564878Y300651D01*
X564819Y300592D01*
X564738Y300475D01*
X564651Y300364D01*
X564611Y300290D01*
X564563Y300221D01*
X564505Y300092D01*
X564438Y299967D01*
X564412Y299887D01*
X564377Y299811D01*
X564343Y299674D01*
X564299Y299539D01*
X564287Y299456D01*
X564267Y299374D01*
X564257Y299233D01*
X564237Y299093D01*
X564241Y299009D01*
X564235Y298925D01*
X564250Y298785D01*
X564256Y298643D01*
X564274Y298561D01*
X564283Y298478D01*
X564323Y298342D01*
X564353Y298203D01*
X564386Y298126D01*
X564409Y298045D01*
X564472Y297919D01*
X564527Y297788D01*
X564573Y297718D01*
X564610Y297642D01*
X564695Y297529D01*
X564771Y297410D01*
X564845Y297327D01*
X564879Y297281D01*
X564916Y297246D01*
X564978Y297176D01*
X568113Y294041D01*
X568235Y293881D01*
X568244Y293872D01*
X568252Y293862D01*
X568410Y293719D01*
X568566Y293575D01*
X568577Y293569D01*
X568586Y293560D01*
X568766Y293448D01*
X568945Y293334D01*
X568958Y293329D01*
X568968Y293322D01*
X569165Y293244D01*
X569362Y293163D01*
X569375Y293160D01*
X569387Y293155D01*
X569595Y293113D01*
X569802Y293068D01*
X569818Y293067D01*
X569828Y293065D01*
X569867Y293064D01*
X570114Y293049D01*
X578612Y293049D01*
X578647Y293052D01*
X578681Y293050D01*
X578870Y293072D01*
X579061Y293089D01*
X579094Y293098D01*
X579128Y293102D01*
X579311Y293157D01*
X579495Y293207D01*
X579526Y293222D01*
X579559Y293232D01*
X579730Y293319D01*
X579902Y293401D01*
X579930Y293421D01*
X579961Y293436D01*
X580113Y293552D01*
X580268Y293663D01*
X580292Y293688D01*
X580319Y293708D01*
X580448Y293848D01*
X580582Y293985D01*
X580601Y294014D01*
X580625Y294040D01*
X580727Y294201D01*
X580834Y294358D01*
X580848Y294390D01*
X580866Y294419D01*
X580939Y294596D01*
X581016Y294770D01*
X581024Y294804D01*
X581037Y294836D01*
X581077Y295023D01*
X581123Y295208D01*
X581125Y295242D01*
X581132Y295276D01*
X581151Y295588D01*
X581151Y299807D01*
X583162Y304662D01*
X586878Y308378D01*
X591733Y310389D01*
X596987Y310389D01*
X601842Y308378D01*
X605558Y304662D01*
X607569Y299807D01*
X607569Y294553D01*
X605558Y289698D01*
X601842Y285982D01*
X596987Y283971D01*
X591733Y283971D01*
X589611Y284850D01*
X589408Y284914D01*
X589207Y284979D01*
X589194Y284981D01*
X589181Y284985D01*
X588970Y285012D01*
X588761Y285041D01*
X588747Y285040D01*
X588734Y285042D01*
X588524Y285031D01*
X588311Y285022D01*
X588298Y285019D01*
X588285Y285019D01*
X588080Y284971D01*
X587871Y284925D01*
X587859Y284920D01*
X587846Y284917D01*
X587651Y284833D01*
X587456Y284751D01*
X587445Y284744D01*
X587433Y284739D01*
X587256Y284622D01*
X587078Y284507D01*
X587066Y284496D01*
X587057Y284490D01*
X587028Y284463D01*
X586843Y284300D01*
X585266Y282722D01*
X583212Y281871D01*
X577983Y281871D01*
X577853Y281860D01*
X577723Y281858D01*
X577629Y281840D01*
X577534Y281831D01*
X577409Y281797D01*
X577281Y281772D01*
X577192Y281738D01*
X577100Y281713D01*
X576983Y281657D01*
X576861Y281610D01*
X576779Y281560D01*
X576693Y281519D01*
X576588Y281444D01*
X576476Y281376D01*
X576405Y281313D01*
X576327Y281257D01*
X576236Y281164D01*
X576139Y281078D01*
X576080Y281003D01*
X576013Y280935D01*
X575940Y280827D01*
X575860Y280725D01*
X575815Y280641D01*
X575761Y280562D01*
X575708Y280443D01*
X575647Y280328D01*
X575617Y280237D01*
X575579Y280150D01*
X575548Y280023D01*
X575508Y279900D01*
X575495Y279805D01*
X575472Y279712D01*
X575464Y279583D01*
X575446Y279454D01*
X575450Y279358D01*
X575444Y279263D01*
X575459Y279134D01*
X575465Y279004D01*
X575485Y278911D01*
X575496Y278816D01*
X575534Y278691D01*
X575562Y278564D01*
X575599Y278476D01*
X575627Y278385D01*
X575686Y278269D01*
X575736Y278149D01*
X575788Y278068D01*
X575831Y277983D01*
X575910Y277880D01*
X575980Y277771D01*
X576066Y277673D01*
X576103Y277625D01*
X576136Y277594D01*
X576187Y277536D01*
X588639Y265084D01*
X588803Y264947D01*
X588963Y264810D01*
X588975Y264804D01*
X588985Y264795D01*
X589169Y264690D01*
X589352Y264583D01*
X589364Y264578D01*
X589376Y264572D01*
X589574Y264501D01*
X589775Y264428D01*
X589788Y264426D01*
X589800Y264421D01*
X590010Y264386D01*
X590218Y264350D01*
X590231Y264350D01*
X590244Y264348D01*
X590458Y264351D01*
X590668Y264351D01*
X590681Y264354D01*
X590695Y264354D01*
X590904Y264394D01*
X591111Y264432D01*
X591126Y264437D01*
X591137Y264439D01*
X591173Y264454D01*
X591407Y264534D01*
X591733Y264669D01*
X596987Y264669D01*
X601842Y262658D01*
X605558Y258942D01*
X607569Y254087D01*
X607569Y248833D01*
X605558Y243978D01*
X601842Y240262D01*
X596987Y238251D01*
X591733Y238251D01*
X587684Y239928D01*
X587514Y239982D01*
X587347Y240041D01*
X587300Y240049D01*
X587255Y240063D01*
X587078Y240085D01*
X586903Y240114D01*
X586855Y240114D01*
X586808Y240120D01*
X586631Y240111D01*
X586453Y240108D01*
X586406Y240099D01*
X586358Y240097D01*
X586186Y240057D01*
X586011Y240023D01*
X585966Y240005D01*
X585920Y239995D01*
X585757Y239925D01*
X585591Y239860D01*
X585550Y239836D01*
X585506Y239817D01*
X585358Y239719D01*
X585206Y239626D01*
X585170Y239595D01*
X585130Y239568D01*
X585002Y239446D01*
X584869Y239328D01*
X584839Y239291D01*
X584804Y239258D01*
X584699Y239114D01*
X584589Y238975D01*
X584567Y238933D01*
X584538Y238894D01*
X584461Y238735D01*
X584377Y238578D01*
X584362Y238533D01*
X584341Y238490D01*
X584292Y238319D01*
X584237Y238150D01*
X584231Y238103D01*
X584218Y238057D01*
X584200Y237880D01*
X584176Y237704D01*
X584178Y237656D01*
X584173Y237609D01*
X584187Y237432D01*
X584194Y237254D01*
X584205Y237207D01*
X584209Y237160D01*
X584254Y236988D01*
X584292Y236815D01*
X584310Y236770D01*
X584323Y236724D01*
X584397Y236563D01*
X584466Y236399D01*
X584492Y236359D01*
X584512Y236316D01*
X584613Y236170D01*
X584710Y236021D01*
X584749Y235976D01*
X584770Y235947D01*
X584815Y235902D01*
X584917Y235787D01*
X597169Y223535D01*
X599098Y221606D01*
X599949Y219552D01*
X599949Y188939D01*
X599968Y188726D01*
X599984Y188516D01*
X599987Y188503D01*
X599989Y188490D01*
X600044Y188286D01*
X600098Y188081D01*
X600104Y188068D01*
X600107Y188056D01*
X600197Y187866D01*
X600287Y187672D01*
X600295Y187661D01*
X600301Y187649D01*
X600423Y187478D01*
X600546Y187303D01*
X600555Y187294D01*
X600563Y187283D01*
X600715Y187135D01*
X600865Y186986D01*
X600876Y186978D01*
X600885Y186969D01*
X601061Y186850D01*
X601236Y186730D01*
X601250Y186723D01*
X601258Y186717D01*
X601294Y186701D01*
X601516Y186593D01*
X601842Y186458D01*
X605558Y182742D01*
X607569Y177887D01*
X607569Y172633D01*
X605558Y167778D01*
X601842Y164062D01*
X596987Y162051D01*
X591733Y162051D01*
X586878Y164062D01*
X583162Y167778D01*
X583027Y168104D01*
X582929Y168292D01*
X582833Y168481D01*
X582825Y168491D01*
X582819Y168503D01*
X582688Y168671D01*
X582561Y168839D01*
X582551Y168848D01*
X582543Y168859D01*
X582386Y169001D01*
X582230Y169145D01*
X582219Y169152D01*
X582209Y169160D01*
X582030Y169272D01*
X581850Y169386D01*
X581838Y169391D01*
X581827Y169398D01*
X581630Y169477D01*
X581433Y169557D01*
X581420Y169560D01*
X581408Y169565D01*
X581201Y169607D01*
X580993Y169652D01*
X580977Y169653D01*
X580967Y169655D01*
X580928Y169656D01*
X580681Y169671D01*
X570991Y169671D01*
X570779Y169652D01*
X570568Y169636D01*
X570556Y169633D01*
X570542Y169631D01*
X570337Y169575D01*
X570133Y169522D01*
X570121Y169516D01*
X570108Y169513D01*
X569918Y169422D01*
X569724Y169333D01*
X569713Y169325D01*
X569701Y169319D01*
X569530Y169197D01*
X569355Y169074D01*
X569346Y169065D01*
X569335Y169057D01*
X569186Y168904D01*
X569038Y168755D01*
X569031Y168744D01*
X569021Y168735D01*
X568902Y168559D01*
X568782Y168385D01*
X568775Y168370D01*
X568769Y168362D01*
X568753Y168326D01*
X568645Y168104D01*
X567458Y165238D01*
X563742Y161522D01*
X558887Y159511D01*
X553633Y159511D01*
G37*
%LPD*%
%LPC*%
G36*
X171765Y162609D02*
X171765Y162609D01*
X169979Y164395D01*
X169979Y186225D01*
X171906Y188152D01*
X171970Y188169D01*
X172088Y188225D01*
X172209Y188272D01*
X172291Y188322D01*
X172377Y188363D01*
X172483Y188438D01*
X172594Y188506D01*
X172665Y188569D01*
X172743Y188625D01*
X172834Y188718D01*
X172931Y188804D01*
X172990Y188879D01*
X173057Y188947D01*
X173130Y189055D01*
X173211Y189157D01*
X173256Y189241D01*
X173309Y189320D01*
X173362Y189439D01*
X173423Y189554D01*
X173453Y189645D01*
X173491Y189732D01*
X173522Y189859D01*
X173562Y189982D01*
X173575Y190077D01*
X173598Y190170D01*
X173606Y190299D01*
X173624Y190428D01*
X173620Y190524D01*
X173626Y190619D01*
X173611Y190748D01*
X173605Y190878D01*
X173585Y190971D01*
X173574Y191066D01*
X173536Y191191D01*
X173508Y191318D01*
X173471Y191406D01*
X173443Y191497D01*
X173384Y191613D01*
X173334Y191733D01*
X173282Y191813D01*
X173239Y191899D01*
X173161Y192002D01*
X173090Y192111D01*
X173004Y192209D01*
X172967Y192257D01*
X172934Y192288D01*
X172883Y192346D01*
X171913Y193316D01*
X169979Y197984D01*
X169979Y203036D01*
X171913Y207704D01*
X175486Y211277D01*
X180154Y213211D01*
X185206Y213211D01*
X185244Y213195D01*
X185447Y213131D01*
X185648Y213066D01*
X185661Y213064D01*
X185674Y213060D01*
X185886Y213033D01*
X186094Y213005D01*
X186108Y213005D01*
X186121Y213003D01*
X186331Y213014D01*
X186544Y213023D01*
X186557Y213026D01*
X186570Y213026D01*
X186776Y213074D01*
X186984Y213120D01*
X186996Y213126D01*
X187009Y213129D01*
X187203Y213212D01*
X187399Y213294D01*
X187411Y213301D01*
X187423Y213307D01*
X187599Y213423D01*
X187778Y213538D01*
X187789Y213549D01*
X187798Y213555D01*
X187827Y213582D01*
X188012Y213745D01*
X201948Y227681D01*
X202053Y227808D01*
X202165Y227928D01*
X202197Y227980D01*
X202236Y228027D01*
X202318Y228169D01*
X202406Y228308D01*
X202430Y228365D01*
X202460Y228418D01*
X202515Y228572D01*
X202577Y228725D01*
X202590Y228784D01*
X202611Y228842D01*
X202637Y229004D01*
X202672Y229165D01*
X202677Y229242D01*
X202684Y229286D01*
X202683Y229347D01*
X202691Y229477D01*
X202691Y264701D01*
X202685Y264772D01*
X202687Y264843D01*
X202665Y264996D01*
X202651Y265150D01*
X202633Y265218D01*
X202622Y265288D01*
X202574Y265435D01*
X202533Y265584D01*
X202502Y265648D01*
X202480Y265716D01*
X202406Y265852D01*
X202339Y265991D01*
X202298Y266048D01*
X202264Y266111D01*
X202167Y266231D01*
X202077Y266357D01*
X202027Y266406D01*
X201982Y266462D01*
X201865Y266563D01*
X201755Y266671D01*
X201696Y266711D01*
X201642Y266757D01*
X201510Y266836D01*
X201405Y266907D01*
X201530Y266866D01*
X201733Y266798D01*
X201744Y266797D01*
X201756Y266793D01*
X201969Y266764D01*
X202179Y266733D01*
X202190Y266733D01*
X202202Y266732D01*
X202416Y266740D01*
X202629Y266747D01*
X202640Y266750D01*
X202652Y266750D01*
X202860Y266796D01*
X203069Y266841D01*
X203080Y266845D01*
X203091Y266848D01*
X203288Y266930D01*
X203486Y267011D01*
X203496Y267017D01*
X203507Y267021D01*
X203686Y267137D01*
X203867Y267252D01*
X203875Y267259D01*
X203885Y267266D01*
X204119Y267473D01*
X205471Y268825D01*
X227678Y291031D01*
X227815Y291195D01*
X227952Y291356D01*
X227958Y291367D01*
X227967Y291377D01*
X228072Y291561D01*
X228179Y291745D01*
X228184Y291757D01*
X228190Y291768D01*
X228261Y291968D01*
X228334Y292167D01*
X228337Y292180D01*
X228341Y292192D01*
X228376Y292403D01*
X228412Y292611D01*
X228412Y292624D01*
X228414Y292636D01*
X228412Y292850D01*
X228411Y293061D01*
X228408Y293074D01*
X228408Y293087D01*
X228391Y293175D01*
X228391Y298155D01*
X230209Y302543D01*
X233162Y305496D01*
X233253Y305604D01*
X233350Y305707D01*
X233397Y305776D01*
X233451Y305841D01*
X233521Y305964D01*
X233599Y306082D01*
X233632Y306159D01*
X233674Y306232D01*
X233721Y306365D01*
X233777Y306495D01*
X233797Y306577D01*
X233825Y306656D01*
X233848Y306796D01*
X233880Y306934D01*
X233885Y307018D01*
X233898Y307100D01*
X233896Y307242D01*
X233904Y307383D01*
X233893Y307467D01*
X233892Y307551D01*
X233865Y307690D01*
X233848Y307830D01*
X233823Y307910D01*
X233807Y307993D01*
X233756Y308125D01*
X233713Y308260D01*
X233675Y308334D01*
X233644Y308413D01*
X233571Y308534D01*
X233505Y308659D01*
X233454Y308726D01*
X233410Y308797D01*
X233317Y308904D01*
X233230Y309016D01*
X233168Y309072D01*
X233112Y309135D01*
X233001Y309223D01*
X232896Y309318D01*
X232804Y309379D01*
X232759Y309414D01*
X232714Y309439D01*
X232636Y309490D01*
X232552Y309539D01*
X231099Y310654D01*
X229804Y311949D01*
X228689Y313402D01*
X227773Y314988D01*
X227072Y316680D01*
X226598Y318448D01*
X226573Y318641D01*
X240330Y318641D01*
X254087Y318641D01*
X254062Y318448D01*
X253588Y316680D01*
X252887Y314988D01*
X251971Y313402D01*
X250856Y311949D01*
X249561Y310654D01*
X248108Y309539D01*
X248024Y309490D01*
X247909Y309409D01*
X247788Y309335D01*
X247725Y309280D01*
X247656Y309231D01*
X247556Y309131D01*
X247450Y309037D01*
X247398Y308971D01*
X247339Y308912D01*
X247258Y308795D01*
X247171Y308684D01*
X247131Y308610D01*
X247083Y308541D01*
X247025Y308412D01*
X246958Y308287D01*
X246932Y308207D01*
X246897Y308131D01*
X246863Y307993D01*
X246819Y307859D01*
X246807Y307776D01*
X246787Y307694D01*
X246777Y307553D01*
X246757Y307413D01*
X246761Y307329D01*
X246755Y307245D01*
X246770Y307105D01*
X246776Y306963D01*
X246794Y306881D01*
X246803Y306797D01*
X246843Y306662D01*
X246873Y306523D01*
X246906Y306446D01*
X246929Y306365D01*
X246992Y306239D01*
X247047Y306108D01*
X247093Y306037D01*
X247130Y305962D01*
X247214Y305849D01*
X247291Y305730D01*
X247365Y305646D01*
X247399Y305601D01*
X247436Y305566D01*
X247498Y305496D01*
X250451Y302543D01*
X252269Y298155D01*
X252269Y293405D01*
X250451Y289017D01*
X247498Y286064D01*
X247407Y285956D01*
X247310Y285853D01*
X247263Y285783D01*
X247209Y285719D01*
X247139Y285596D01*
X247061Y285478D01*
X247028Y285401D01*
X246986Y285328D01*
X246939Y285195D01*
X246882Y285065D01*
X246863Y284983D01*
X246835Y284904D01*
X246812Y284764D01*
X246780Y284626D01*
X246775Y284542D01*
X246762Y284460D01*
X246764Y284318D01*
X246756Y284177D01*
X246767Y284093D01*
X246768Y284009D01*
X246795Y283870D01*
X246812Y283730D01*
X246837Y283650D01*
X246853Y283567D01*
X246904Y283435D01*
X246947Y283300D01*
X246985Y283226D01*
X247016Y283147D01*
X247089Y283026D01*
X247155Y282901D01*
X247206Y282834D01*
X247250Y282763D01*
X247343Y282656D01*
X247430Y282544D01*
X247492Y282488D01*
X247548Y282425D01*
X247659Y282337D01*
X247764Y282242D01*
X247856Y282181D01*
X247901Y282146D01*
X247946Y282121D01*
X248024Y282070D01*
X248108Y282021D01*
X249561Y280906D01*
X250856Y279611D01*
X251971Y278158D01*
X252887Y276572D01*
X253588Y274880D01*
X254062Y273112D01*
X254087Y272919D01*
X240330Y272919D01*
X240296Y272916D01*
X240261Y272918D01*
X240072Y272896D01*
X239882Y272879D01*
X239848Y272870D01*
X239814Y272866D01*
X239631Y272811D01*
X239447Y272761D01*
X239416Y272746D01*
X239383Y272736D01*
X239212Y272649D01*
X239041Y272568D01*
X239013Y272547D01*
X238982Y272532D01*
X238830Y272416D01*
X238675Y272305D01*
X238674Y272305D01*
X238650Y272280D01*
X238623Y272260D01*
X238623Y272259D01*
X238622Y272259D01*
X238493Y272119D01*
X238360Y271982D01*
X238341Y271954D01*
X238317Y271928D01*
X238215Y271767D01*
X238108Y271609D01*
X238094Y271578D01*
X238075Y271548D01*
X238003Y271372D01*
X237926Y271197D01*
X237918Y271164D01*
X237905Y271132D01*
X237864Y270945D01*
X237819Y270760D01*
X237817Y270726D01*
X237810Y270692D01*
X237791Y270380D01*
X237791Y256623D01*
X237598Y256648D01*
X235830Y257122D01*
X234138Y257823D01*
X232552Y258739D01*
X231099Y259854D01*
X229804Y261149D01*
X228689Y262602D01*
X227773Y264188D01*
X227072Y265880D01*
X226598Y267648D01*
X226515Y268284D01*
X226496Y268367D01*
X226491Y268409D01*
X226474Y268466D01*
X226473Y268469D01*
X226438Y268654D01*
X226424Y268688D01*
X226417Y268723D01*
X226343Y268897D01*
X226275Y269074D01*
X226256Y269105D01*
X226242Y269139D01*
X226140Y269297D01*
X226041Y269459D01*
X226017Y269486D01*
X225998Y269516D01*
X225868Y269655D01*
X225743Y269796D01*
X225715Y269819D01*
X225690Y269845D01*
X225538Y269958D01*
X225390Y270076D01*
X225358Y270093D01*
X225329Y270114D01*
X225160Y270199D01*
X224993Y270288D01*
X224959Y270299D01*
X224926Y270316D01*
X224745Y270369D01*
X224565Y270427D01*
X224529Y270432D01*
X224494Y270443D01*
X224306Y270463D01*
X224119Y270489D01*
X224083Y270487D01*
X224046Y270491D01*
X223858Y270478D01*
X223669Y270470D01*
X223633Y270463D01*
X223597Y270460D01*
X223414Y270414D01*
X223229Y270373D01*
X223196Y270359D01*
X223161Y270350D01*
X222988Y270272D01*
X222814Y270199D01*
X222783Y270180D01*
X222750Y270165D01*
X222594Y270057D01*
X222436Y269955D01*
X222403Y269926D01*
X222379Y269910D01*
X222335Y269866D01*
X222202Y269748D01*
X214612Y262159D01*
X214507Y262032D01*
X214395Y261912D01*
X214363Y261860D01*
X214324Y261813D01*
X214242Y261671D01*
X214154Y261532D01*
X214130Y261475D01*
X214100Y261422D01*
X214045Y261268D01*
X213983Y261115D01*
X213970Y261056D01*
X213949Y260998D01*
X213923Y260836D01*
X213888Y260675D01*
X213883Y260598D01*
X213876Y260554D01*
X213877Y260493D01*
X213869Y260363D01*
X213869Y224998D01*
X213018Y222944D01*
X211089Y221015D01*
X195915Y205842D01*
X195779Y205678D01*
X195642Y205518D01*
X195635Y205507D01*
X195626Y205496D01*
X195521Y205312D01*
X195414Y205129D01*
X195410Y205117D01*
X195403Y205105D01*
X195332Y204906D01*
X195259Y204707D01*
X195257Y204694D01*
X195252Y204681D01*
X195218Y204471D01*
X195181Y204263D01*
X195181Y204250D01*
X195179Y204237D01*
X195182Y204023D01*
X195182Y203813D01*
X195185Y203800D01*
X195185Y203787D01*
X195225Y203578D01*
X195263Y203370D01*
X195268Y203355D01*
X195270Y203345D01*
X195285Y203308D01*
X195365Y203074D01*
X195381Y203036D01*
X195381Y197984D01*
X193447Y193316D01*
X192477Y192346D01*
X192394Y192246D01*
X192303Y192153D01*
X192249Y192073D01*
X192188Y192000D01*
X192124Y191887D01*
X192051Y191780D01*
X192012Y191692D01*
X191965Y191609D01*
X191921Y191487D01*
X191869Y191368D01*
X191846Y191275D01*
X191814Y191185D01*
X191793Y191057D01*
X191762Y190930D01*
X191756Y190835D01*
X191740Y190741D01*
X191742Y190611D01*
X191734Y190481D01*
X191745Y190386D01*
X191747Y190290D01*
X191771Y190163D01*
X191786Y190034D01*
X191814Y189942D01*
X191832Y189848D01*
X191879Y189727D01*
X191917Y189603D01*
X191960Y189517D01*
X191994Y189428D01*
X192062Y189317D01*
X192121Y189201D01*
X192179Y189125D01*
X192228Y189044D01*
X192314Y188946D01*
X192393Y188843D01*
X192463Y188778D01*
X192527Y188706D01*
X192628Y188626D01*
X192724Y188537D01*
X192805Y188486D01*
X192880Y188427D01*
X192994Y188365D01*
X193104Y188296D01*
X193192Y188259D01*
X193276Y188214D01*
X193400Y188174D01*
X193453Y188152D01*
X195381Y186225D01*
X195381Y164395D01*
X193595Y162609D01*
X171765Y162609D01*
G37*
%LPD*%
%LPC*%
G36*
X64019Y327945D02*
X64019Y327945D01*
X64019Y342471D01*
X64361Y342426D01*
X66226Y341926D01*
X68010Y341187D01*
X69683Y340221D01*
X71117Y339120D01*
X71197Y339070D01*
X71270Y339012D01*
X71386Y338949D01*
X71497Y338879D01*
X71584Y338843D01*
X71667Y338799D01*
X71792Y338758D01*
X71914Y338708D01*
X72006Y338689D01*
X72095Y338660D01*
X72226Y338642D01*
X72355Y338614D01*
X72448Y338611D01*
X72541Y338598D01*
X72673Y338604D01*
X72805Y338599D01*
X72897Y338613D01*
X72991Y338617D01*
X73120Y338645D01*
X73250Y338664D01*
X73339Y338694D01*
X73431Y338714D01*
X73552Y338765D01*
X73677Y338807D01*
X73760Y338852D01*
X73846Y338888D01*
X73957Y338959D01*
X74072Y339022D01*
X74146Y339081D01*
X74225Y339132D01*
X74381Y339270D01*
X74423Y339305D01*
X74436Y339319D01*
X74459Y339339D01*
X75765Y340646D01*
X90425Y340646D01*
X90589Y340660D01*
X90753Y340667D01*
X90813Y340680D01*
X90874Y340686D01*
X91033Y340729D01*
X91193Y340765D01*
X91249Y340788D01*
X91308Y340804D01*
X91456Y340875D01*
X91608Y340938D01*
X91660Y340971D01*
X91715Y340998D01*
X91848Y341093D01*
X91987Y341183D01*
X92044Y341234D01*
X92081Y341260D01*
X92123Y341303D01*
X92221Y341389D01*
X95421Y344590D01*
X97475Y345441D01*
X148432Y345441D01*
X150486Y344590D01*
X152148Y342927D01*
X152312Y342791D01*
X152472Y342654D01*
X152484Y342647D01*
X152494Y342638D01*
X152677Y342534D01*
X152861Y342426D01*
X152873Y342422D01*
X152885Y342415D01*
X153084Y342344D01*
X153283Y342271D01*
X153296Y342269D01*
X153309Y342264D01*
X153520Y342229D01*
X153727Y342193D01*
X153740Y342193D01*
X153753Y342191D01*
X153967Y342194D01*
X154177Y342194D01*
X154190Y342197D01*
X154203Y342197D01*
X154413Y342237D01*
X154620Y342275D01*
X154635Y342280D01*
X154645Y342282D01*
X154682Y342297D01*
X154916Y342377D01*
X154954Y342393D01*
X160006Y342393D01*
X164674Y340459D01*
X168384Y336749D01*
X168411Y336727D01*
X168434Y336701D01*
X168583Y336583D01*
X168730Y336460D01*
X168760Y336443D01*
X168787Y336421D01*
X168955Y336331D01*
X169121Y336237D01*
X169153Y336225D01*
X169184Y336209D01*
X169365Y336150D01*
X169545Y336086D01*
X169579Y336080D01*
X169612Y336070D01*
X169801Y336044D01*
X169989Y336013D01*
X170024Y336013D01*
X170058Y336008D01*
X170249Y336016D01*
X170439Y336019D01*
X170474Y336025D01*
X170508Y336027D01*
X170694Y336068D01*
X170882Y336104D01*
X170914Y336117D01*
X170948Y336124D01*
X171124Y336198D01*
X171302Y336266D01*
X171331Y336284D01*
X171363Y336298D01*
X171524Y336401D01*
X171686Y336500D01*
X171712Y336523D01*
X171741Y336542D01*
X171976Y336749D01*
X175686Y340459D01*
X180354Y342393D01*
X185406Y342393D01*
X190074Y340459D01*
X193647Y336886D01*
X195581Y332218D01*
X195581Y327166D01*
X193647Y322498D01*
X190074Y318925D01*
X185406Y316991D01*
X180354Y316991D01*
X175686Y318925D01*
X171976Y322635D01*
X171949Y322657D01*
X171926Y322683D01*
X171777Y322801D01*
X171630Y322924D01*
X171600Y322941D01*
X171573Y322963D01*
X171405Y323053D01*
X171239Y323147D01*
X171207Y323159D01*
X171176Y323175D01*
X170995Y323234D01*
X170815Y323298D01*
X170781Y323304D01*
X170748Y323314D01*
X170559Y323340D01*
X170371Y323372D01*
X170336Y323371D01*
X170302Y323376D01*
X170111Y323368D01*
X169920Y323365D01*
X169886Y323359D01*
X169852Y323357D01*
X169666Y323316D01*
X169478Y323280D01*
X169446Y323267D01*
X169412Y323260D01*
X169237Y323186D01*
X169058Y323118D01*
X169029Y323099D01*
X168997Y323086D01*
X168837Y322983D01*
X168674Y322884D01*
X168648Y322861D01*
X168619Y322842D01*
X168384Y322635D01*
X164674Y318925D01*
X160006Y316991D01*
X154954Y316991D01*
X150286Y318925D01*
X146713Y322498D01*
X144779Y327166D01*
X144779Y331724D01*
X144776Y331759D01*
X144778Y331793D01*
X144756Y331982D01*
X144739Y332173D01*
X144730Y332206D01*
X144726Y332240D01*
X144671Y332423D01*
X144621Y332607D01*
X144606Y332638D01*
X144596Y332671D01*
X144509Y332842D01*
X144427Y333014D01*
X144407Y333042D01*
X144392Y333073D01*
X144276Y333225D01*
X144165Y333380D01*
X144140Y333404D01*
X144120Y333431D01*
X143980Y333560D01*
X143843Y333694D01*
X143814Y333713D01*
X143788Y333737D01*
X143627Y333839D01*
X143470Y333946D01*
X143438Y333960D01*
X143409Y333978D01*
X143232Y334051D01*
X143058Y334128D01*
X143024Y334136D01*
X142992Y334149D01*
X142805Y334189D01*
X142620Y334235D01*
X142586Y334237D01*
X142552Y334244D01*
X142240Y334263D01*
X101954Y334263D01*
X101790Y334249D01*
X101626Y334242D01*
X101566Y334229D01*
X101505Y334223D01*
X101346Y334180D01*
X101186Y334144D01*
X101130Y334121D01*
X101071Y334105D01*
X100923Y334034D01*
X100771Y333971D01*
X100719Y333938D01*
X100664Y333911D01*
X100531Y333816D01*
X100392Y333726D01*
X100335Y333675D01*
X100298Y333649D01*
X100256Y333606D01*
X100230Y333583D01*
X100213Y333570D01*
X100202Y333558D01*
X100158Y333520D01*
X100124Y333486D01*
X100035Y333379D01*
X99984Y333327D01*
X99972Y333309D01*
X99907Y333239D01*
X99875Y333187D01*
X99836Y333140D01*
X99754Y332998D01*
X99666Y332859D01*
X99642Y332802D01*
X99612Y332749D01*
X99557Y332595D01*
X99495Y332442D01*
X99482Y332383D01*
X99461Y332325D01*
X99435Y332163D01*
X99400Y332002D01*
X99395Y331925D01*
X99388Y331881D01*
X99389Y331820D01*
X99381Y331690D01*
X99381Y317030D01*
X97595Y315244D01*
X75765Y315244D01*
X74459Y316551D01*
X74387Y316611D01*
X74321Y316678D01*
X74214Y316755D01*
X74113Y316840D01*
X74032Y316886D01*
X73956Y316941D01*
X73837Y316998D01*
X73722Y317063D01*
X73634Y317095D01*
X73549Y317135D01*
X73422Y317170D01*
X73298Y317214D01*
X73205Y317229D01*
X73115Y317254D01*
X72984Y317266D01*
X72854Y317287D01*
X72760Y317286D01*
X72666Y317295D01*
X72535Y317283D01*
X72404Y317281D01*
X72311Y317263D01*
X72218Y317255D01*
X72091Y317221D01*
X71962Y317196D01*
X71874Y317162D01*
X71783Y317137D01*
X71664Y317081D01*
X71542Y317033D01*
X71461Y316985D01*
X71376Y316944D01*
X71204Y316828D01*
X71157Y316799D01*
X71142Y316787D01*
X71117Y316770D01*
X69683Y315669D01*
X68010Y314703D01*
X66226Y313964D01*
X64361Y313464D01*
X64019Y313419D01*
X64019Y327945D01*
G37*
%LPD*%
%LPC*%
G36*
X240330Y323719D02*
X240330Y323719D01*
X226573Y323719D01*
X226598Y323912D01*
X227072Y325680D01*
X227773Y327372D01*
X228689Y328958D01*
X229804Y330411D01*
X230310Y330917D01*
X230332Y330944D01*
X230358Y330967D01*
X230477Y331117D01*
X230599Y331263D01*
X230616Y331293D01*
X230638Y331320D01*
X230728Y331489D01*
X230822Y331654D01*
X230834Y331686D01*
X230850Y331717D01*
X230909Y331899D01*
X230973Y332078D01*
X230979Y332112D01*
X230989Y332145D01*
X231015Y332334D01*
X231046Y332522D01*
X231046Y332557D01*
X231051Y332591D01*
X231043Y332782D01*
X231040Y332972D01*
X231034Y333007D01*
X231032Y333041D01*
X230991Y333227D01*
X230955Y333415D01*
X230942Y333447D01*
X230935Y333481D01*
X230862Y333656D01*
X230793Y333835D01*
X230774Y333864D01*
X230761Y333896D01*
X230658Y334056D01*
X230559Y334219D01*
X230536Y334245D01*
X230517Y334274D01*
X230310Y334509D01*
X228391Y336427D01*
X228391Y356733D01*
X230177Y358519D01*
X232202Y358519D01*
X232237Y358522D01*
X232271Y358520D01*
X232460Y358542D01*
X232651Y358559D01*
X232684Y358568D01*
X232718Y358572D01*
X232901Y358627D01*
X233085Y358677D01*
X233116Y358692D01*
X233149Y358702D01*
X233320Y358789D01*
X233492Y358871D01*
X233520Y358891D01*
X233551Y358906D01*
X233703Y359022D01*
X233858Y359133D01*
X233882Y359158D01*
X233909Y359178D01*
X234038Y359318D01*
X234172Y359455D01*
X234191Y359484D01*
X234215Y359510D01*
X234317Y359671D01*
X234424Y359828D01*
X234438Y359860D01*
X234456Y359889D01*
X234529Y360066D01*
X234606Y360240D01*
X234614Y360274D01*
X234627Y360306D01*
X234667Y360493D01*
X234713Y360678D01*
X234715Y360712D01*
X234722Y360746D01*
X234741Y361058D01*
X234741Y388933D01*
X234727Y389097D01*
X234720Y389261D01*
X234707Y389321D01*
X234701Y389382D01*
X234658Y389541D01*
X234622Y389701D01*
X234599Y389757D01*
X234583Y389816D01*
X234512Y389964D01*
X234449Y390116D01*
X234416Y390168D01*
X234389Y390223D01*
X234294Y390356D01*
X234204Y390495D01*
X234153Y390552D01*
X234127Y390589D01*
X234084Y390631D01*
X233998Y390729D01*
X214099Y410628D01*
X213972Y410733D01*
X213852Y410845D01*
X213800Y410877D01*
X213753Y410916D01*
X213611Y410998D01*
X213472Y411086D01*
X213415Y411110D01*
X213362Y411140D01*
X213208Y411195D01*
X213055Y411257D01*
X212996Y411270D01*
X212938Y411291D01*
X212776Y411317D01*
X212615Y411352D01*
X212538Y411357D01*
X212494Y411364D01*
X212433Y411363D01*
X212303Y411371D01*
X208344Y411371D01*
X208132Y411352D01*
X207921Y411336D01*
X207908Y411333D01*
X207895Y411331D01*
X207690Y411275D01*
X207485Y411222D01*
X207473Y411216D01*
X207461Y411213D01*
X207271Y411123D01*
X207077Y411033D01*
X207066Y411025D01*
X207054Y411019D01*
X206882Y410897D01*
X206708Y410774D01*
X206699Y410765D01*
X206688Y410757D01*
X206540Y410605D01*
X206391Y410455D01*
X206383Y410444D01*
X206374Y410435D01*
X206255Y410258D01*
X206135Y410085D01*
X206128Y410070D01*
X206122Y410062D01*
X206106Y410025D01*
X205998Y409804D01*
X205684Y409046D01*
X201754Y405116D01*
X196619Y402989D01*
X191061Y402989D01*
X185926Y405116D01*
X181996Y409046D01*
X179869Y414181D01*
X179869Y419739D01*
X181996Y424874D01*
X185926Y428804D01*
X191061Y430931D01*
X196619Y430931D01*
X201754Y428804D01*
X205684Y424874D01*
X205998Y424116D01*
X206096Y423927D01*
X206192Y423739D01*
X206200Y423729D01*
X206206Y423717D01*
X206336Y423549D01*
X206464Y423381D01*
X206474Y423372D01*
X206482Y423361D01*
X206639Y423220D01*
X206795Y423075D01*
X206806Y423068D01*
X206816Y423060D01*
X206995Y422948D01*
X207175Y422834D01*
X207187Y422829D01*
X207198Y422822D01*
X207395Y422744D01*
X207591Y422663D01*
X207604Y422660D01*
X207617Y422655D01*
X207823Y422613D01*
X208032Y422568D01*
X208047Y422567D01*
X208058Y422565D01*
X208097Y422564D01*
X208344Y422549D01*
X216782Y422549D01*
X218836Y421698D01*
X245068Y395466D01*
X245919Y393412D01*
X245919Y361058D01*
X245922Y361023D01*
X245920Y360989D01*
X245942Y360800D01*
X245959Y360609D01*
X245968Y360576D01*
X245972Y360542D01*
X246027Y360359D01*
X246077Y360175D01*
X246092Y360144D01*
X246102Y360111D01*
X246189Y359939D01*
X246271Y359768D01*
X246291Y359740D01*
X246306Y359709D01*
X246422Y359557D01*
X246533Y359402D01*
X246558Y359378D01*
X246578Y359351D01*
X246718Y359222D01*
X246855Y359088D01*
X246884Y359069D01*
X246910Y359045D01*
X247071Y358943D01*
X247228Y358836D01*
X247260Y358822D01*
X247289Y358804D01*
X247466Y358731D01*
X247640Y358654D01*
X247674Y358646D01*
X247706Y358633D01*
X247893Y358593D01*
X248078Y358547D01*
X248112Y358545D01*
X248146Y358538D01*
X248458Y358519D01*
X250483Y358519D01*
X252269Y356733D01*
X252269Y336427D01*
X250350Y334509D01*
X250328Y334482D01*
X250302Y334459D01*
X250183Y334309D01*
X250061Y334163D01*
X250044Y334133D01*
X250022Y334106D01*
X249932Y333938D01*
X249838Y333772D01*
X249826Y333740D01*
X249810Y333709D01*
X249751Y333528D01*
X249687Y333348D01*
X249681Y333314D01*
X249671Y333281D01*
X249645Y333091D01*
X249614Y332904D01*
X249614Y332869D01*
X249609Y332835D01*
X249617Y332644D01*
X249620Y332454D01*
X249626Y332419D01*
X249628Y332385D01*
X249669Y332199D01*
X249705Y332011D01*
X249718Y331979D01*
X249725Y331945D01*
X249799Y331769D01*
X249867Y331591D01*
X249885Y331562D01*
X249899Y331530D01*
X250002Y331369D01*
X250101Y331207D01*
X250124Y331181D01*
X250143Y331152D01*
X250350Y330917D01*
X250856Y330411D01*
X251971Y328958D01*
X252887Y327372D01*
X253588Y325680D01*
X254062Y323912D01*
X254087Y323719D01*
X240330Y323719D01*
X240330Y323719D01*
G37*
%LPD*%
%LPC*%
G36*
X39535Y143911D02*
X39535Y143911D01*
X35147Y145729D01*
X31789Y149087D01*
X29971Y153475D01*
X29971Y158225D01*
X31789Y162613D01*
X34090Y164914D01*
X34112Y164940D01*
X34138Y164963D01*
X34257Y165113D01*
X34379Y165259D01*
X34396Y165289D01*
X34417Y165316D01*
X34508Y165485D01*
X34602Y165650D01*
X34614Y165683D01*
X34630Y165713D01*
X34689Y165894D01*
X34753Y166074D01*
X34759Y166109D01*
X34769Y166141D01*
X34795Y166330D01*
X34826Y166519D01*
X34826Y166553D01*
X34831Y166587D01*
X34823Y166778D01*
X34820Y166969D01*
X34814Y167003D01*
X34812Y167037D01*
X34771Y167224D01*
X34735Y167411D01*
X34722Y167443D01*
X34715Y167477D01*
X34641Y167653D01*
X34572Y167831D01*
X34554Y167860D01*
X34541Y167892D01*
X34438Y168052D01*
X34338Y168216D01*
X34316Y168242D01*
X34297Y168271D01*
X34090Y168505D01*
X32220Y170375D01*
X30479Y174576D01*
X30479Y179124D01*
X32220Y183325D01*
X33949Y185054D01*
X33971Y185081D01*
X33997Y185104D01*
X34115Y185253D01*
X34238Y185400D01*
X34255Y185430D01*
X34277Y185457D01*
X34367Y185625D01*
X34461Y185791D01*
X34473Y185823D01*
X34489Y185854D01*
X34548Y186035D01*
X34612Y186215D01*
X34618Y186249D01*
X34628Y186282D01*
X34654Y186471D01*
X34686Y186659D01*
X34685Y186694D01*
X34690Y186728D01*
X34682Y186919D01*
X34679Y187109D01*
X34673Y187144D01*
X34671Y187178D01*
X34630Y187364D01*
X34594Y187552D01*
X34581Y187584D01*
X34574Y187618D01*
X34500Y187793D01*
X34432Y187972D01*
X34414Y188001D01*
X34400Y188033D01*
X34297Y188194D01*
X34198Y188356D01*
X34175Y188382D01*
X34156Y188411D01*
X33949Y188646D01*
X32220Y190375D01*
X30479Y194576D01*
X30479Y199124D01*
X32220Y203325D01*
X33949Y205054D01*
X33971Y205081D01*
X33997Y205104D01*
X34115Y205253D01*
X34238Y205400D01*
X34255Y205430D01*
X34277Y205457D01*
X34367Y205625D01*
X34461Y205791D01*
X34473Y205823D01*
X34489Y205854D01*
X34548Y206035D01*
X34612Y206215D01*
X34618Y206249D01*
X34628Y206282D01*
X34654Y206471D01*
X34686Y206659D01*
X34685Y206694D01*
X34690Y206728D01*
X34682Y206919D01*
X34679Y207109D01*
X34673Y207144D01*
X34671Y207178D01*
X34630Y207364D01*
X34594Y207552D01*
X34581Y207584D01*
X34574Y207618D01*
X34500Y207794D01*
X34432Y207972D01*
X34414Y208001D01*
X34400Y208033D01*
X34297Y208194D01*
X34198Y208356D01*
X34175Y208382D01*
X34156Y208411D01*
X33949Y208646D01*
X32220Y210375D01*
X30479Y214576D01*
X30479Y219124D01*
X32220Y223325D01*
X34090Y225195D01*
X34112Y225222D01*
X34138Y225245D01*
X34257Y225395D01*
X34379Y225541D01*
X34396Y225571D01*
X34417Y225598D01*
X34508Y225766D01*
X34602Y225932D01*
X34614Y225964D01*
X34630Y225995D01*
X34689Y226176D01*
X34753Y226356D01*
X34759Y226390D01*
X34769Y226423D01*
X34795Y226612D01*
X34826Y226800D01*
X34826Y226835D01*
X34831Y226869D01*
X34823Y227060D01*
X34820Y227250D01*
X34814Y227284D01*
X34812Y227319D01*
X34771Y227505D01*
X34735Y227692D01*
X34722Y227725D01*
X34715Y227758D01*
X34641Y227934D01*
X34572Y228112D01*
X34554Y228142D01*
X34541Y228174D01*
X34438Y228334D01*
X34338Y228497D01*
X34316Y228523D01*
X34297Y228552D01*
X34090Y228786D01*
X31789Y231087D01*
X29971Y235475D01*
X29971Y240225D01*
X31789Y244613D01*
X35147Y247971D01*
X39535Y249789D01*
X44285Y249789D01*
X48673Y247971D01*
X52031Y244613D01*
X53849Y240225D01*
X53849Y235475D01*
X52031Y231087D01*
X49730Y228786D01*
X49708Y228760D01*
X49682Y228737D01*
X49563Y228587D01*
X49441Y228441D01*
X49424Y228411D01*
X49403Y228384D01*
X49312Y228215D01*
X49218Y228050D01*
X49206Y228017D01*
X49190Y227987D01*
X49131Y227806D01*
X49067Y227626D01*
X49061Y227591D01*
X49051Y227559D01*
X49025Y227370D01*
X48994Y227181D01*
X48994Y227147D01*
X48989Y227113D01*
X48997Y226922D01*
X49000Y226731D01*
X49006Y226697D01*
X49008Y226663D01*
X49049Y226476D01*
X49085Y226289D01*
X49098Y226257D01*
X49105Y226223D01*
X49179Y226047D01*
X49248Y225869D01*
X49266Y225840D01*
X49279Y225808D01*
X49382Y225648D01*
X49482Y225484D01*
X49504Y225458D01*
X49523Y225429D01*
X49730Y225195D01*
X51600Y223325D01*
X53341Y219124D01*
X53341Y214576D01*
X51600Y210375D01*
X49871Y208646D01*
X49849Y208619D01*
X49823Y208596D01*
X49705Y208447D01*
X49582Y208300D01*
X49565Y208270D01*
X49543Y208243D01*
X49453Y208075D01*
X49359Y207909D01*
X49347Y207877D01*
X49331Y207846D01*
X49272Y207665D01*
X49208Y207485D01*
X49202Y207451D01*
X49192Y207418D01*
X49166Y207229D01*
X49134Y207041D01*
X49135Y207006D01*
X49130Y206972D01*
X49138Y206781D01*
X49141Y206590D01*
X49147Y206556D01*
X49149Y206522D01*
X49190Y206336D01*
X49226Y206148D01*
X49239Y206116D01*
X49246Y206082D01*
X49319Y205907D01*
X49388Y205728D01*
X49406Y205699D01*
X49420Y205667D01*
X49523Y205507D01*
X49622Y205344D01*
X49645Y205318D01*
X49664Y205289D01*
X49871Y205054D01*
X51600Y203325D01*
X53341Y199124D01*
X53341Y194576D01*
X51600Y190375D01*
X49871Y188646D01*
X49849Y188619D01*
X49823Y188596D01*
X49705Y188447D01*
X49582Y188300D01*
X49565Y188270D01*
X49543Y188243D01*
X49453Y188075D01*
X49359Y187909D01*
X49347Y187877D01*
X49331Y187846D01*
X49272Y187665D01*
X49208Y187485D01*
X49202Y187451D01*
X49192Y187418D01*
X49166Y187229D01*
X49134Y187041D01*
X49135Y187006D01*
X49130Y186972D01*
X49138Y186781D01*
X49141Y186590D01*
X49147Y186556D01*
X49149Y186522D01*
X49190Y186336D01*
X49226Y186148D01*
X49239Y186116D01*
X49246Y186082D01*
X49319Y185907D01*
X49388Y185728D01*
X49406Y185699D01*
X49420Y185667D01*
X49523Y185507D01*
X49622Y185344D01*
X49645Y185318D01*
X49664Y185289D01*
X49871Y185054D01*
X51600Y183325D01*
X53341Y179124D01*
X53341Y174576D01*
X51600Y170375D01*
X49730Y168505D01*
X49708Y168478D01*
X49682Y168455D01*
X49563Y168305D01*
X49441Y168159D01*
X49424Y168129D01*
X49403Y168102D01*
X49312Y167934D01*
X49218Y167768D01*
X49206Y167736D01*
X49190Y167705D01*
X49131Y167524D01*
X49067Y167344D01*
X49061Y167310D01*
X49051Y167277D01*
X49025Y167088D01*
X48994Y166900D01*
X48994Y166865D01*
X48989Y166831D01*
X48997Y166640D01*
X49000Y166450D01*
X49006Y166416D01*
X49008Y166381D01*
X49049Y166195D01*
X49085Y166008D01*
X49098Y165975D01*
X49105Y165942D01*
X49179Y165766D01*
X49248Y165588D01*
X49266Y165558D01*
X49279Y165526D01*
X49382Y165366D01*
X49482Y165203D01*
X49504Y165177D01*
X49523Y165148D01*
X49730Y164914D01*
X52031Y162613D01*
X53849Y158225D01*
X53849Y153475D01*
X52031Y149087D01*
X48673Y145729D01*
X44285Y143911D01*
X39535Y143911D01*
G37*
%LPD*%
%LPC*%
G36*
X711323Y410971D02*
X711323Y410971D01*
X706468Y412982D01*
X702752Y416698D01*
X702617Y417024D01*
X702519Y417212D01*
X702423Y417401D01*
X702415Y417411D01*
X702409Y417423D01*
X702279Y417590D01*
X702151Y417759D01*
X702141Y417768D01*
X702133Y417779D01*
X701975Y417921D01*
X701820Y418065D01*
X701809Y418072D01*
X701799Y418080D01*
X701618Y418193D01*
X701440Y418306D01*
X701428Y418311D01*
X701416Y418318D01*
X701219Y418397D01*
X701023Y418477D01*
X701010Y418480D01*
X700998Y418485D01*
X700790Y418527D01*
X700583Y418572D01*
X700567Y418573D01*
X700557Y418575D01*
X700518Y418576D01*
X700271Y418591D01*
X693420Y418591D01*
X693385Y418588D01*
X693351Y418590D01*
X693162Y418568D01*
X692971Y418551D01*
X692938Y418542D01*
X692904Y418538D01*
X692721Y418483D01*
X692537Y418433D01*
X692506Y418418D01*
X692473Y418408D01*
X692302Y418321D01*
X692130Y418239D01*
X692102Y418219D01*
X692071Y418204D01*
X691919Y418088D01*
X691764Y417977D01*
X691740Y417952D01*
X691713Y417932D01*
X691584Y417792D01*
X691450Y417655D01*
X691431Y417626D01*
X691407Y417600D01*
X691305Y417439D01*
X691198Y417282D01*
X691184Y417250D01*
X691166Y417221D01*
X691093Y417044D01*
X691016Y416870D01*
X691008Y416836D01*
X690995Y416804D01*
X690955Y416617D01*
X690909Y416432D01*
X690907Y416398D01*
X690900Y416364D01*
X690881Y416052D01*
X690881Y413265D01*
X689095Y411479D01*
X667265Y411479D01*
X665413Y413331D01*
X665405Y413362D01*
X665380Y413489D01*
X665346Y413578D01*
X665321Y413670D01*
X665265Y413788D01*
X665218Y413909D01*
X665168Y413991D01*
X665127Y414077D01*
X665052Y414183D01*
X664984Y414294D01*
X664921Y414365D01*
X664865Y414443D01*
X664772Y414534D01*
X664686Y414631D01*
X664611Y414690D01*
X664543Y414757D01*
X664435Y414830D01*
X664333Y414911D01*
X664249Y414956D01*
X664170Y415009D01*
X664051Y415062D01*
X663936Y415123D01*
X663845Y415153D01*
X663758Y415191D01*
X663631Y415222D01*
X663508Y415262D01*
X663413Y415275D01*
X663320Y415298D01*
X663191Y415306D01*
X663062Y415324D01*
X662966Y415320D01*
X662871Y415326D01*
X662742Y415311D01*
X662612Y415305D01*
X662519Y415285D01*
X662424Y415274D01*
X662299Y415236D01*
X662172Y415208D01*
X662084Y415171D01*
X661993Y415143D01*
X661877Y415084D01*
X661757Y415034D01*
X661677Y414982D01*
X661591Y414939D01*
X661488Y414861D01*
X661379Y414790D01*
X661281Y414704D01*
X661233Y414667D01*
X661202Y414634D01*
X661144Y414583D01*
X659974Y413413D01*
X655306Y411479D01*
X650254Y411479D01*
X645586Y413413D01*
X642013Y416986D01*
X640079Y421654D01*
X640079Y426706D01*
X642013Y431374D01*
X645586Y434947D01*
X650254Y436881D01*
X655306Y436881D01*
X659974Y434947D01*
X661144Y433777D01*
X661244Y433694D01*
X661337Y433603D01*
X661417Y433549D01*
X661490Y433488D01*
X661603Y433424D01*
X661710Y433351D01*
X661798Y433312D01*
X661881Y433265D01*
X662003Y433221D01*
X662122Y433169D01*
X662215Y433146D01*
X662305Y433114D01*
X662433Y433093D01*
X662560Y433062D01*
X662655Y433056D01*
X662749Y433040D01*
X662879Y433042D01*
X663009Y433034D01*
X663104Y433045D01*
X663200Y433047D01*
X663327Y433071D01*
X663456Y433086D01*
X663548Y433114D01*
X663642Y433132D01*
X663763Y433179D01*
X663887Y433217D01*
X663973Y433260D01*
X664062Y433294D01*
X664173Y433362D01*
X664289Y433421D01*
X664365Y433479D01*
X664446Y433528D01*
X664544Y433614D01*
X664647Y433693D01*
X664712Y433763D01*
X664784Y433827D01*
X664864Y433928D01*
X664953Y434024D01*
X665004Y434105D01*
X665063Y434180D01*
X665125Y434294D01*
X665194Y434404D01*
X665231Y434492D01*
X665276Y434576D01*
X665316Y434700D01*
X665365Y434820D01*
X665385Y434914D01*
X665415Y435005D01*
X665419Y435035D01*
X667265Y436881D01*
X689095Y436881D01*
X690881Y435095D01*
X690881Y432308D01*
X690884Y432273D01*
X690882Y432239D01*
X690904Y432050D01*
X690921Y431859D01*
X690930Y431826D01*
X690934Y431792D01*
X690989Y431608D01*
X691039Y431425D01*
X691054Y431394D01*
X691064Y431361D01*
X691151Y431190D01*
X691233Y431018D01*
X691253Y430990D01*
X691268Y430959D01*
X691384Y430807D01*
X691495Y430652D01*
X691520Y430628D01*
X691540Y430601D01*
X691680Y430472D01*
X691817Y430338D01*
X691846Y430319D01*
X691872Y430295D01*
X692033Y430193D01*
X692190Y430086D01*
X692222Y430072D01*
X692251Y430054D01*
X692428Y429981D01*
X692602Y429904D01*
X692636Y429896D01*
X692668Y429883D01*
X692855Y429843D01*
X693040Y429797D01*
X693074Y429795D01*
X693108Y429788D01*
X693420Y429769D01*
X700271Y429769D01*
X700483Y429788D01*
X700694Y429804D01*
X700706Y429807D01*
X700720Y429809D01*
X700924Y429864D01*
X701129Y429918D01*
X701142Y429924D01*
X701154Y429927D01*
X701344Y430017D01*
X701538Y430107D01*
X701549Y430115D01*
X701561Y430121D01*
X701733Y430244D01*
X701907Y430366D01*
X701916Y430375D01*
X701927Y430383D01*
X702075Y430535D01*
X702224Y430685D01*
X702232Y430696D01*
X702241Y430705D01*
X702360Y430881D01*
X702480Y431055D01*
X702487Y431070D01*
X702493Y431078D01*
X702509Y431114D01*
X702617Y431336D01*
X702752Y431662D01*
X706468Y435378D01*
X711323Y437389D01*
X716577Y437389D01*
X721432Y435378D01*
X725148Y431662D01*
X727159Y426807D01*
X727159Y421553D01*
X725148Y416698D01*
X721432Y412982D01*
X716577Y410971D01*
X711323Y410971D01*
G37*
%LPD*%
%LPC*%
G36*
X710343Y342391D02*
X710343Y342391D01*
X705488Y344402D01*
X701772Y348118D01*
X701637Y348444D01*
X701539Y348632D01*
X701443Y348821D01*
X701435Y348831D01*
X701429Y348843D01*
X701299Y349010D01*
X701171Y349179D01*
X701161Y349188D01*
X701153Y349199D01*
X700995Y349341D01*
X700840Y349485D01*
X700829Y349492D01*
X700819Y349500D01*
X700638Y349613D01*
X700460Y349726D01*
X700448Y349731D01*
X700436Y349738D01*
X700239Y349817D01*
X700043Y349897D01*
X700030Y349900D01*
X700018Y349905D01*
X699810Y349947D01*
X699603Y349992D01*
X699587Y349993D01*
X699577Y349995D01*
X699538Y349996D01*
X699291Y350011D01*
X693420Y350011D01*
X693385Y350008D01*
X693351Y350010D01*
X693162Y349988D01*
X692971Y349971D01*
X692938Y349962D01*
X692904Y349958D01*
X692721Y349903D01*
X692537Y349853D01*
X692506Y349838D01*
X692473Y349828D01*
X692302Y349741D01*
X692130Y349659D01*
X692102Y349639D01*
X692071Y349624D01*
X691919Y349508D01*
X691764Y349397D01*
X691740Y349372D01*
X691713Y349352D01*
X691584Y349212D01*
X691450Y349075D01*
X691431Y349046D01*
X691407Y349020D01*
X691305Y348859D01*
X691198Y348702D01*
X691184Y348670D01*
X691166Y348641D01*
X691093Y348464D01*
X691016Y348290D01*
X691008Y348256D01*
X690995Y348224D01*
X690955Y348037D01*
X690909Y347852D01*
X690907Y347818D01*
X690900Y347784D01*
X690881Y347472D01*
X690881Y344685D01*
X689095Y342899D01*
X667265Y342899D01*
X665413Y344751D01*
X665405Y344782D01*
X665380Y344909D01*
X665346Y344998D01*
X665321Y345090D01*
X665265Y345208D01*
X665218Y345329D01*
X665168Y345411D01*
X665127Y345497D01*
X665052Y345603D01*
X664984Y345714D01*
X664921Y345785D01*
X664865Y345863D01*
X664772Y345954D01*
X664686Y346051D01*
X664611Y346110D01*
X664543Y346177D01*
X664435Y346250D01*
X664333Y346331D01*
X664249Y346376D01*
X664170Y346429D01*
X664051Y346482D01*
X663936Y346543D01*
X663845Y346573D01*
X663758Y346611D01*
X663631Y346642D01*
X663508Y346682D01*
X663413Y346695D01*
X663320Y346718D01*
X663191Y346726D01*
X663062Y346744D01*
X662966Y346740D01*
X662871Y346746D01*
X662742Y346731D01*
X662612Y346725D01*
X662519Y346705D01*
X662424Y346694D01*
X662299Y346656D01*
X662172Y346628D01*
X662084Y346591D01*
X661993Y346563D01*
X661877Y346504D01*
X661757Y346454D01*
X661677Y346402D01*
X661591Y346359D01*
X661488Y346281D01*
X661379Y346210D01*
X661281Y346124D01*
X661233Y346087D01*
X661202Y346054D01*
X661144Y346003D01*
X659974Y344833D01*
X655306Y342899D01*
X650254Y342899D01*
X645586Y344833D01*
X642013Y348406D01*
X640079Y353074D01*
X640079Y358126D01*
X642013Y362794D01*
X645586Y366367D01*
X650254Y368301D01*
X655306Y368301D01*
X659974Y366367D01*
X661144Y365197D01*
X661244Y365114D01*
X661337Y365023D01*
X661417Y364969D01*
X661490Y364908D01*
X661603Y364844D01*
X661710Y364771D01*
X661798Y364732D01*
X661881Y364685D01*
X662003Y364641D01*
X662122Y364589D01*
X662215Y364566D01*
X662305Y364534D01*
X662433Y364513D01*
X662560Y364482D01*
X662655Y364476D01*
X662749Y364460D01*
X662879Y364462D01*
X663009Y364454D01*
X663104Y364465D01*
X663200Y364467D01*
X663327Y364491D01*
X663456Y364506D01*
X663548Y364534D01*
X663642Y364552D01*
X663763Y364599D01*
X663887Y364637D01*
X663973Y364680D01*
X664062Y364714D01*
X664173Y364782D01*
X664289Y364841D01*
X664365Y364899D01*
X664446Y364948D01*
X664544Y365034D01*
X664647Y365113D01*
X664712Y365183D01*
X664784Y365247D01*
X664864Y365348D01*
X664953Y365444D01*
X665004Y365525D01*
X665063Y365600D01*
X665125Y365714D01*
X665194Y365824D01*
X665231Y365912D01*
X665276Y365996D01*
X665316Y366120D01*
X665365Y366240D01*
X665385Y366334D01*
X665415Y366425D01*
X665419Y366455D01*
X667265Y368301D01*
X689095Y368301D01*
X690881Y366515D01*
X690881Y363728D01*
X690884Y363693D01*
X690882Y363659D01*
X690904Y363470D01*
X690921Y363279D01*
X690930Y363246D01*
X690934Y363212D01*
X690989Y363029D01*
X691039Y362845D01*
X691054Y362814D01*
X691064Y362781D01*
X691151Y362610D01*
X691233Y362438D01*
X691253Y362410D01*
X691268Y362379D01*
X691384Y362227D01*
X691495Y362072D01*
X691520Y362048D01*
X691540Y362021D01*
X691681Y361891D01*
X691817Y361758D01*
X691846Y361739D01*
X691872Y361715D01*
X692033Y361613D01*
X692190Y361506D01*
X692222Y361492D01*
X692251Y361474D01*
X692428Y361401D01*
X692602Y361324D01*
X692636Y361316D01*
X692668Y361303D01*
X692855Y361263D01*
X693040Y361217D01*
X693074Y361215D01*
X693108Y361208D01*
X693420Y361189D01*
X699291Y361189D01*
X699503Y361208D01*
X699714Y361224D01*
X699726Y361227D01*
X699740Y361229D01*
X699944Y361284D01*
X700149Y361338D01*
X700162Y361344D01*
X700174Y361347D01*
X700364Y361437D01*
X700558Y361527D01*
X700569Y361535D01*
X700581Y361541D01*
X700753Y361664D01*
X700927Y361786D01*
X700936Y361795D01*
X700947Y361803D01*
X701095Y361955D01*
X701244Y362105D01*
X701252Y362116D01*
X701261Y362125D01*
X701380Y362301D01*
X701500Y362475D01*
X701507Y362490D01*
X701513Y362498D01*
X701529Y362534D01*
X701637Y362756D01*
X701772Y363082D01*
X705488Y366798D01*
X710343Y368809D01*
X715597Y368809D01*
X720452Y366798D01*
X724168Y363082D01*
X726179Y358227D01*
X726179Y352973D01*
X724168Y348118D01*
X720452Y344402D01*
X715597Y342391D01*
X710343Y342391D01*
G37*
%LPD*%
%LPC*%
G36*
X120637Y375411D02*
X120637Y375411D01*
X115782Y377422D01*
X112066Y381138D01*
X110055Y385993D01*
X110055Y391247D01*
X112066Y396102D01*
X115782Y399818D01*
X116108Y399953D01*
X116296Y400051D01*
X116485Y400147D01*
X116495Y400155D01*
X116507Y400161D01*
X116674Y400291D01*
X116843Y400419D01*
X116852Y400429D01*
X116863Y400437D01*
X117005Y400595D01*
X117149Y400750D01*
X117156Y400761D01*
X117164Y400771D01*
X117277Y400952D01*
X117390Y401130D01*
X117395Y401142D01*
X117402Y401154D01*
X117481Y401351D01*
X117561Y401547D01*
X117564Y401560D01*
X117569Y401572D01*
X117611Y401780D01*
X117656Y401987D01*
X117657Y402003D01*
X117659Y402013D01*
X117660Y402052D01*
X117675Y402299D01*
X117675Y408856D01*
X118526Y410910D01*
X151148Y443531D01*
X151253Y443658D01*
X151365Y443778D01*
X151397Y443830D01*
X151436Y443877D01*
X151518Y444019D01*
X151606Y444158D01*
X151630Y444215D01*
X151660Y444268D01*
X151715Y444422D01*
X151777Y444575D01*
X151790Y444634D01*
X151811Y444692D01*
X151837Y444854D01*
X151872Y445015D01*
X151877Y445092D01*
X151884Y445136D01*
X151883Y445197D01*
X151891Y445327D01*
X151891Y451141D01*
X151872Y451353D01*
X151856Y451564D01*
X151853Y451576D01*
X151851Y451590D01*
X151796Y451794D01*
X151742Y451999D01*
X151736Y452012D01*
X151733Y452024D01*
X151643Y452214D01*
X151553Y452408D01*
X151545Y452419D01*
X151539Y452431D01*
X151416Y452603D01*
X151294Y452777D01*
X151285Y452786D01*
X151277Y452797D01*
X151125Y452945D01*
X150975Y453094D01*
X150964Y453102D01*
X150955Y453111D01*
X150779Y453230D01*
X150605Y453350D01*
X150590Y453357D01*
X150582Y453363D01*
X150546Y453379D01*
X150324Y453487D01*
X149998Y453622D01*
X146282Y457338D01*
X144271Y462193D01*
X144271Y467447D01*
X146282Y472302D01*
X149998Y476018D01*
X154853Y478029D01*
X160107Y478029D01*
X164962Y476018D01*
X168678Y472302D01*
X170689Y467447D01*
X170689Y462193D01*
X168678Y457338D01*
X164962Y453622D01*
X164636Y453487D01*
X164448Y453389D01*
X164259Y453293D01*
X164249Y453285D01*
X164237Y453279D01*
X164070Y453149D01*
X163901Y453021D01*
X163892Y453011D01*
X163881Y453003D01*
X163739Y452845D01*
X163595Y452690D01*
X163588Y452679D01*
X163580Y452669D01*
X163467Y452488D01*
X163354Y452310D01*
X163349Y452298D01*
X163342Y452286D01*
X163263Y452089D01*
X163183Y451893D01*
X163180Y451880D01*
X163175Y451868D01*
X163133Y451660D01*
X163088Y451453D01*
X163087Y451437D01*
X163085Y451427D01*
X163084Y451388D01*
X163069Y451141D01*
X163069Y440848D01*
X162218Y438794D01*
X129596Y406173D01*
X129491Y406046D01*
X129379Y405926D01*
X129347Y405874D01*
X129308Y405827D01*
X129226Y405685D01*
X129138Y405546D01*
X129114Y405489D01*
X129084Y405436D01*
X129029Y405282D01*
X128967Y405129D01*
X128954Y405070D01*
X128933Y405012D01*
X128907Y404850D01*
X128872Y404689D01*
X128867Y404612D01*
X128860Y404568D01*
X128861Y404507D01*
X128853Y404377D01*
X128853Y402299D01*
X128872Y402086D01*
X128888Y401876D01*
X128891Y401864D01*
X128893Y401850D01*
X128948Y401646D01*
X129002Y401441D01*
X129008Y401428D01*
X129011Y401416D01*
X129101Y401226D01*
X129191Y401032D01*
X129199Y401021D01*
X129205Y401009D01*
X129328Y400837D01*
X129450Y400663D01*
X129459Y400654D01*
X129467Y400643D01*
X129619Y400495D01*
X129769Y400346D01*
X129780Y400338D01*
X129789Y400329D01*
X129965Y400210D01*
X130139Y400090D01*
X130154Y400083D01*
X130162Y400077D01*
X130198Y400061D01*
X130420Y399953D01*
X130746Y399818D01*
X134462Y396102D01*
X136473Y391247D01*
X136473Y385993D01*
X134462Y381138D01*
X130746Y377422D01*
X125891Y375411D01*
X120637Y375411D01*
G37*
%LPD*%
%LPC*%
G36*
X655319Y149860D02*
X655319Y149860D01*
X655319Y164386D01*
X655661Y164341D01*
X657526Y163841D01*
X659310Y163102D01*
X660983Y162136D01*
X662530Y160948D01*
X662610Y160898D01*
X662683Y160840D01*
X662800Y160778D01*
X662911Y160707D01*
X662998Y160671D01*
X663080Y160627D01*
X663205Y160586D01*
X663327Y160537D01*
X663419Y160517D01*
X663508Y160488D01*
X663639Y160470D01*
X663768Y160442D01*
X663862Y160439D01*
X663955Y160427D01*
X664086Y160432D01*
X664218Y160428D01*
X664311Y160441D01*
X664404Y160445D01*
X664533Y160473D01*
X664663Y160492D01*
X664752Y160522D01*
X664844Y160542D01*
X664965Y160593D01*
X665090Y160635D01*
X665173Y160680D01*
X665259Y160716D01*
X665370Y160788D01*
X665486Y160851D01*
X665559Y160909D01*
X665638Y160960D01*
X665794Y161098D01*
X665837Y161133D01*
X665850Y161148D01*
X665872Y161167D01*
X667265Y162561D01*
X689095Y162561D01*
X690881Y160775D01*
X690881Y157988D01*
X690884Y157953D01*
X690882Y157919D01*
X690904Y157730D01*
X690921Y157539D01*
X690930Y157506D01*
X690934Y157472D01*
X690989Y157289D01*
X691039Y157105D01*
X691054Y157074D01*
X691064Y157041D01*
X691151Y156870D01*
X691233Y156698D01*
X691253Y156670D01*
X691268Y156639D01*
X691384Y156487D01*
X691495Y156332D01*
X691520Y156308D01*
X691540Y156281D01*
X691680Y156152D01*
X691817Y156018D01*
X691846Y155999D01*
X691872Y155975D01*
X692033Y155873D01*
X692190Y155766D01*
X692222Y155752D01*
X692251Y155734D01*
X692428Y155661D01*
X692602Y155584D01*
X692636Y155576D01*
X692668Y155563D01*
X692855Y155523D01*
X693040Y155477D01*
X693074Y155475D01*
X693108Y155468D01*
X693420Y155449D01*
X698771Y155449D01*
X698982Y155468D01*
X699194Y155484D01*
X699207Y155487D01*
X699220Y155489D01*
X699424Y155544D01*
X699629Y155598D01*
X699642Y155604D01*
X699654Y155607D01*
X699844Y155697D01*
X700038Y155787D01*
X700049Y155795D01*
X700061Y155801D01*
X700232Y155923D01*
X700407Y156046D01*
X700416Y156055D01*
X700427Y156063D01*
X700575Y156215D01*
X700724Y156365D01*
X700732Y156376D01*
X700741Y156385D01*
X700860Y156561D01*
X700980Y156736D01*
X700987Y156750D01*
X700993Y156758D01*
X701009Y156794D01*
X701117Y157016D01*
X701252Y157342D01*
X704968Y161058D01*
X709823Y163069D01*
X715077Y163069D01*
X719932Y161058D01*
X723648Y157342D01*
X725659Y152487D01*
X725659Y147233D01*
X723648Y142378D01*
X719932Y138662D01*
X715077Y136651D01*
X709823Y136651D01*
X704968Y138662D01*
X701252Y142378D01*
X701117Y142704D01*
X701019Y142892D01*
X700923Y143081D01*
X700915Y143091D01*
X700909Y143103D01*
X700778Y143271D01*
X700651Y143439D01*
X700641Y143448D01*
X700633Y143459D01*
X700476Y143601D01*
X700320Y143745D01*
X700309Y143752D01*
X700299Y143760D01*
X700120Y143872D01*
X699940Y143986D01*
X699928Y143991D01*
X699917Y143998D01*
X699720Y144077D01*
X699523Y144157D01*
X699510Y144160D01*
X699498Y144165D01*
X699291Y144207D01*
X699083Y144252D01*
X699067Y144253D01*
X699057Y144255D01*
X699018Y144256D01*
X698771Y144271D01*
X693420Y144271D01*
X693385Y144268D01*
X693351Y144270D01*
X693162Y144248D01*
X692971Y144231D01*
X692938Y144222D01*
X692904Y144218D01*
X692721Y144163D01*
X692537Y144113D01*
X692506Y144098D01*
X692473Y144088D01*
X692302Y144001D01*
X692130Y143919D01*
X692102Y143899D01*
X692071Y143884D01*
X691919Y143768D01*
X691764Y143657D01*
X691740Y143632D01*
X691713Y143612D01*
X691584Y143472D01*
X691450Y143335D01*
X691431Y143306D01*
X691407Y143280D01*
X691305Y143119D01*
X691198Y142962D01*
X691184Y142930D01*
X691166Y142901D01*
X691093Y142724D01*
X691016Y142550D01*
X691008Y142516D01*
X690995Y142484D01*
X690955Y142297D01*
X690909Y142112D01*
X690907Y142078D01*
X690900Y142044D01*
X690881Y141732D01*
X690881Y138945D01*
X689095Y137159D01*
X667265Y137159D01*
X665872Y138553D01*
X665800Y138613D01*
X665734Y138680D01*
X665627Y138757D01*
X665526Y138842D01*
X665445Y138888D01*
X665369Y138943D01*
X665250Y139000D01*
X665136Y139065D01*
X665047Y139096D01*
X664962Y139137D01*
X664836Y139172D01*
X664711Y139216D01*
X664619Y139231D01*
X664528Y139256D01*
X664397Y139268D01*
X664267Y139289D01*
X664173Y139288D01*
X664080Y139296D01*
X663949Y139285D01*
X663817Y139283D01*
X663724Y139265D01*
X663631Y139257D01*
X663504Y139223D01*
X663375Y139198D01*
X663287Y139164D01*
X663197Y139139D01*
X663077Y139083D01*
X662955Y139035D01*
X662874Y138986D01*
X662790Y138946D01*
X662617Y138830D01*
X662570Y138801D01*
X662555Y138788D01*
X662530Y138772D01*
X660983Y137584D01*
X659310Y136618D01*
X657526Y135879D01*
X655661Y135379D01*
X655319Y135334D01*
X655319Y149860D01*
G37*
%LPD*%
%LPC*%
G36*
X264753Y157143D02*
X264753Y157143D01*
X262888Y157643D01*
X261104Y158382D01*
X259431Y159348D01*
X257899Y160524D01*
X256533Y161889D01*
X255660Y163028D01*
X255524Y163176D01*
X255391Y163326D01*
X255372Y163342D01*
X255355Y163360D01*
X255196Y163481D01*
X255038Y163606D01*
X255016Y163617D01*
X254996Y163632D01*
X254818Y163723D01*
X254641Y163818D01*
X254618Y163826D01*
X254595Y163837D01*
X254403Y163896D01*
X254213Y163957D01*
X254188Y163961D01*
X254165Y163968D01*
X253965Y163991D01*
X253767Y164019D01*
X253742Y164018D01*
X253717Y164021D01*
X253518Y164009D01*
X253317Y164000D01*
X253293Y163995D01*
X253268Y163994D01*
X253073Y163946D01*
X252877Y163903D01*
X252854Y163893D01*
X252830Y163887D01*
X252646Y163806D01*
X252462Y163729D01*
X252441Y163716D01*
X252418Y163706D01*
X252252Y163593D01*
X252084Y163485D01*
X252061Y163465D01*
X252045Y163454D01*
X252006Y163416D01*
X251849Y163278D01*
X249428Y160857D01*
X244760Y158923D01*
X239708Y158923D01*
X235040Y160857D01*
X231467Y164430D01*
X229533Y169098D01*
X229533Y174150D01*
X231467Y178818D01*
X234658Y182009D01*
X234763Y182135D01*
X234875Y182256D01*
X234907Y182308D01*
X234946Y182354D01*
X235028Y182497D01*
X235116Y182636D01*
X235140Y182693D01*
X235170Y182745D01*
X235225Y182900D01*
X235287Y183053D01*
X235300Y183112D01*
X235321Y183170D01*
X235347Y183332D01*
X235382Y183493D01*
X235387Y183570D01*
X235394Y183614D01*
X235393Y183675D01*
X235401Y183805D01*
X235401Y202793D01*
X235382Y203005D01*
X235366Y203216D01*
X235363Y203228D01*
X235361Y203242D01*
X235306Y203446D01*
X235252Y203651D01*
X235246Y203664D01*
X235243Y203676D01*
X235153Y203866D01*
X235063Y204060D01*
X235055Y204071D01*
X235049Y204083D01*
X234928Y204253D01*
X234804Y204429D01*
X234795Y204438D01*
X234787Y204449D01*
X234635Y204597D01*
X234485Y204746D01*
X234474Y204754D01*
X234465Y204763D01*
X234289Y204882D01*
X234115Y205002D01*
X234100Y205009D01*
X234092Y205015D01*
X234056Y205031D01*
X233834Y205139D01*
X233508Y205274D01*
X229792Y208990D01*
X227781Y213845D01*
X227781Y219099D01*
X229792Y223954D01*
X233508Y227670D01*
X238363Y229681D01*
X243617Y229681D01*
X248472Y227670D01*
X252188Y223954D01*
X254199Y219099D01*
X254199Y213845D01*
X252188Y208990D01*
X248472Y205274D01*
X248146Y205139D01*
X247958Y205041D01*
X247769Y204945D01*
X247759Y204937D01*
X247747Y204931D01*
X247580Y204801D01*
X247411Y204673D01*
X247402Y204663D01*
X247391Y204655D01*
X247249Y204497D01*
X247105Y204342D01*
X247098Y204331D01*
X247090Y204321D01*
X246977Y204140D01*
X246864Y203962D01*
X246859Y203950D01*
X246852Y203938D01*
X246773Y203741D01*
X246693Y203545D01*
X246690Y203532D01*
X246685Y203520D01*
X246642Y203311D01*
X246598Y203105D01*
X246597Y203089D01*
X246595Y203079D01*
X246594Y203040D01*
X246579Y202793D01*
X246579Y185268D01*
X246598Y185056D01*
X246614Y184846D01*
X246617Y184833D01*
X246619Y184820D01*
X246675Y184614D01*
X246728Y184410D01*
X246734Y184398D01*
X246737Y184385D01*
X246827Y184195D01*
X246917Y184001D01*
X246925Y183991D01*
X246931Y183979D01*
X247054Y183806D01*
X247176Y183633D01*
X247185Y183623D01*
X247193Y183613D01*
X247345Y183464D01*
X247495Y183315D01*
X247506Y183308D01*
X247515Y183299D01*
X247691Y183180D01*
X247865Y183059D01*
X247880Y183052D01*
X247888Y183046D01*
X247924Y183031D01*
X248146Y182922D01*
X249428Y182391D01*
X251849Y179970D01*
X252003Y179842D01*
X252155Y179710D01*
X252176Y179697D01*
X252195Y179681D01*
X252369Y179582D01*
X252541Y179479D01*
X252564Y179470D01*
X252586Y179458D01*
X252775Y179391D01*
X252962Y179320D01*
X252987Y179315D01*
X253010Y179307D01*
X253208Y179274D01*
X253405Y179238D01*
X253430Y179238D01*
X253454Y179233D01*
X253655Y179236D01*
X253855Y179235D01*
X253880Y179239D01*
X253905Y179240D01*
X254101Y179278D01*
X254299Y179312D01*
X254322Y179320D01*
X254347Y179325D01*
X254533Y179397D01*
X254722Y179466D01*
X254743Y179479D01*
X254767Y179487D01*
X254938Y179591D01*
X255111Y179692D01*
X255130Y179708D01*
X255151Y179721D01*
X255302Y179854D01*
X255454Y179984D01*
X255474Y180007D01*
X255489Y180020D01*
X255523Y180063D01*
X255660Y180220D01*
X256533Y181359D01*
X257899Y182724D01*
X259431Y183900D01*
X261104Y184866D01*
X262888Y185605D01*
X264753Y186105D01*
X265095Y186150D01*
X265095Y171624D01*
X265095Y157098D01*
X264753Y157143D01*
G37*
%LPD*%
%LPC*%
G36*
X163674Y68459D02*
X163674Y68459D01*
X163719Y68801D01*
X164219Y70666D01*
X164958Y72450D01*
X165924Y74123D01*
X167100Y75655D01*
X167942Y76497D01*
X168056Y76634D01*
X168175Y76765D01*
X168200Y76806D01*
X168231Y76843D01*
X168319Y76997D01*
X168413Y77148D01*
X168431Y77192D01*
X168454Y77234D01*
X168514Y77401D01*
X168580Y77566D01*
X168589Y77613D01*
X168605Y77658D01*
X168634Y77833D01*
X168670Y78007D01*
X168671Y78055D01*
X168679Y78102D01*
X168676Y78280D01*
X168681Y78457D01*
X168673Y78504D01*
X168673Y78552D01*
X168639Y78727D01*
X168612Y78902D01*
X168596Y78948D01*
X168587Y78994D01*
X168523Y79160D01*
X168465Y79328D01*
X168442Y79370D01*
X168425Y79415D01*
X168333Y79566D01*
X168246Y79721D01*
X168216Y79758D01*
X168191Y79799D01*
X168074Y79932D01*
X167961Y80070D01*
X167924Y80101D01*
X167893Y80137D01*
X167753Y80247D01*
X167618Y80362D01*
X167577Y80386D01*
X167540Y80416D01*
X167383Y80500D01*
X167230Y80590D01*
X167185Y80606D01*
X167143Y80629D01*
X166974Y80684D01*
X166807Y80745D01*
X166760Y80753D01*
X166715Y80768D01*
X166539Y80792D01*
X166364Y80823D01*
X166316Y80823D01*
X166269Y80829D01*
X166091Y80822D01*
X165913Y80821D01*
X165866Y80813D01*
X165819Y80811D01*
X165645Y80772D01*
X165470Y80741D01*
X165414Y80721D01*
X165379Y80713D01*
X165321Y80689D01*
X165175Y80639D01*
X162090Y79361D01*
X154310Y79361D01*
X147121Y82339D01*
X141619Y87841D01*
X138641Y95030D01*
X138641Y102810D01*
X141619Y109999D01*
X147121Y115501D01*
X154310Y118479D01*
X162090Y118479D01*
X169279Y115501D01*
X174781Y109999D01*
X177759Y102810D01*
X177759Y95030D01*
X174781Y87841D01*
X171121Y84181D01*
X171114Y84172D01*
X171105Y84165D01*
X170969Y83999D01*
X170833Y83836D01*
X170827Y83826D01*
X170819Y83817D01*
X170714Y83629D01*
X170609Y83445D01*
X170605Y83434D01*
X170600Y83424D01*
X170530Y83221D01*
X170458Y83021D01*
X170456Y83009D01*
X170453Y82998D01*
X170419Y82786D01*
X170385Y82576D01*
X170385Y82565D01*
X170383Y82553D01*
X170388Y82337D01*
X170391Y82126D01*
X170393Y82115D01*
X170393Y82103D01*
X170436Y81894D01*
X170477Y81684D01*
X170481Y81673D01*
X170483Y81662D01*
X170562Y81464D01*
X170639Y81264D01*
X170645Y81254D01*
X170649Y81243D01*
X170762Y81062D01*
X170873Y80879D01*
X170880Y80871D01*
X170886Y80861D01*
X171030Y80702D01*
X171171Y80542D01*
X171180Y80535D01*
X171188Y80526D01*
X171356Y80395D01*
X171524Y80263D01*
X171534Y80257D01*
X171543Y80250D01*
X171733Y80151D01*
X171921Y80050D01*
X171932Y80046D01*
X171942Y80041D01*
X172146Y79977D01*
X172349Y79911D01*
X172361Y79909D01*
X172372Y79906D01*
X172584Y79878D01*
X172795Y79849D01*
X172807Y79850D01*
X172818Y79848D01*
X173031Y79859D01*
X173245Y79868D01*
X173256Y79870D01*
X173268Y79871D01*
X173574Y79933D01*
X175320Y80401D01*
X175661Y80446D01*
X175661Y68459D01*
X163674Y68459D01*
G37*
%LPD*%
%LPC*%
G36*
X349057Y440131D02*
X349057Y440131D01*
X347271Y441917D01*
X347271Y474443D01*
X349057Y476229D01*
X381583Y476229D01*
X383369Y474443D01*
X383369Y441917D01*
X381583Y440131D01*
X349057Y440131D01*
G37*
%LPD*%
%LPC*%
G36*
X180739Y65920D02*
X180739Y65920D01*
X180739Y80446D01*
X181081Y80401D01*
X182946Y79901D01*
X184730Y79162D01*
X186403Y78196D01*
X187935Y77020D01*
X189300Y75655D01*
X190001Y74742D01*
X190137Y74594D01*
X190269Y74444D01*
X190289Y74429D01*
X190305Y74411D01*
X190465Y74289D01*
X190622Y74165D01*
X190644Y74153D01*
X190664Y74138D01*
X190842Y74047D01*
X191019Y73952D01*
X191043Y73944D01*
X191065Y73933D01*
X191257Y73875D01*
X191447Y73813D01*
X191472Y73810D01*
X191496Y73802D01*
X191694Y73779D01*
X191894Y73752D01*
X191918Y73753D01*
X191943Y73750D01*
X192142Y73762D01*
X192343Y73770D01*
X192368Y73775D01*
X192392Y73777D01*
X192586Y73824D01*
X192783Y73867D01*
X192806Y73877D01*
X192830Y73883D01*
X193013Y73964D01*
X193198Y74041D01*
X193219Y74055D01*
X193242Y74065D01*
X193408Y74176D01*
X193577Y74285D01*
X193599Y74305D01*
X193615Y74316D01*
X193655Y74354D01*
X193811Y74492D01*
X196006Y76687D01*
X200674Y78621D01*
X205726Y78621D01*
X210394Y76687D01*
X213904Y73177D01*
X213931Y73155D01*
X213954Y73129D01*
X214103Y73011D01*
X214250Y72888D01*
X214280Y72871D01*
X214307Y72849D01*
X214475Y72759D01*
X214641Y72665D01*
X214673Y72653D01*
X214704Y72637D01*
X214885Y72578D01*
X215065Y72514D01*
X215099Y72508D01*
X215132Y72498D01*
X215321Y72472D01*
X215509Y72440D01*
X215544Y72441D01*
X215578Y72436D01*
X215769Y72444D01*
X215960Y72447D01*
X215994Y72453D01*
X216028Y72455D01*
X216214Y72496D01*
X216402Y72532D01*
X216434Y72545D01*
X216468Y72552D01*
X216643Y72626D01*
X216822Y72694D01*
X216851Y72713D01*
X216883Y72726D01*
X217043Y72829D01*
X217206Y72928D01*
X217232Y72951D01*
X217261Y72970D01*
X217496Y73177D01*
X221006Y76687D01*
X225674Y78621D01*
X230726Y78621D01*
X235394Y76687D01*
X238967Y73114D01*
X240901Y68446D01*
X240901Y63394D01*
X238967Y58726D01*
X235394Y55153D01*
X230726Y53219D01*
X225674Y53219D01*
X221006Y55153D01*
X217496Y58663D01*
X217469Y58685D01*
X217446Y58711D01*
X217297Y58829D01*
X217150Y58952D01*
X217120Y58969D01*
X217093Y58991D01*
X216925Y59081D01*
X216759Y59175D01*
X216727Y59187D01*
X216696Y59203D01*
X216515Y59262D01*
X216335Y59326D01*
X216301Y59332D01*
X216268Y59342D01*
X216079Y59368D01*
X215891Y59399D01*
X215856Y59399D01*
X215822Y59404D01*
X215631Y59396D01*
X215441Y59393D01*
X215406Y59387D01*
X215372Y59385D01*
X215186Y59344D01*
X214998Y59308D01*
X214966Y59295D01*
X214932Y59288D01*
X214756Y59214D01*
X214578Y59146D01*
X214549Y59128D01*
X214517Y59114D01*
X214356Y59011D01*
X214194Y58912D01*
X214168Y58889D01*
X214139Y58870D01*
X213904Y58663D01*
X210394Y55153D01*
X205726Y53219D01*
X200674Y53219D01*
X196006Y55153D01*
X193811Y57348D01*
X193657Y57477D01*
X193506Y57608D01*
X193485Y57621D01*
X193465Y57637D01*
X193291Y57736D01*
X193119Y57839D01*
X193096Y57848D01*
X193075Y57860D01*
X192886Y57927D01*
X192698Y57998D01*
X192674Y58002D01*
X192650Y58011D01*
X192453Y58043D01*
X192255Y58080D01*
X192230Y58080D01*
X192206Y58084D01*
X192006Y58081D01*
X191805Y58083D01*
X191781Y58078D01*
X191756Y58078D01*
X191558Y58040D01*
X191361Y58006D01*
X191338Y57997D01*
X191314Y57993D01*
X191126Y57920D01*
X190938Y57852D01*
X190917Y57839D01*
X190894Y57830D01*
X190722Y57726D01*
X190549Y57625D01*
X190530Y57609D01*
X190509Y57596D01*
X190359Y57463D01*
X190206Y57334D01*
X190186Y57311D01*
X190172Y57298D01*
X190138Y57255D01*
X190001Y57098D01*
X189300Y56185D01*
X187935Y54820D01*
X186403Y53644D01*
X184730Y52678D01*
X182946Y51939D01*
X181081Y51439D01*
X180739Y51394D01*
X180739Y65920D01*
G37*
%LPD*%
%LPC*%
G36*
X244310Y79361D02*
X244310Y79361D01*
X237121Y82339D01*
X231619Y87841D01*
X228641Y95030D01*
X228641Y102810D01*
X231619Y109999D01*
X237121Y115501D01*
X244310Y118479D01*
X252090Y118479D01*
X259279Y115501D01*
X264781Y109999D01*
X267759Y102810D01*
X267759Y95030D01*
X264781Y87841D01*
X259279Y82339D01*
X252090Y79361D01*
X244310Y79361D01*
G37*
%LPD*%
%LPC*%
G36*
X364844Y90099D02*
X364844Y90099D01*
X360176Y92033D01*
X356603Y95606D01*
X354669Y100274D01*
X354669Y105326D01*
X356603Y109994D01*
X357573Y110964D01*
X357656Y111064D01*
X357747Y111157D01*
X357801Y111237D01*
X357862Y111310D01*
X357926Y111423D01*
X357999Y111530D01*
X358038Y111618D01*
X358085Y111701D01*
X358129Y111823D01*
X358181Y111942D01*
X358204Y112035D01*
X358236Y112125D01*
X358257Y112253D01*
X358288Y112380D01*
X358294Y112475D01*
X358310Y112569D01*
X358308Y112699D01*
X358316Y112829D01*
X358305Y112924D01*
X358303Y113020D01*
X358279Y113147D01*
X358264Y113276D01*
X358236Y113368D01*
X358218Y113462D01*
X358171Y113583D01*
X358133Y113707D01*
X358090Y113793D01*
X358056Y113882D01*
X357988Y113993D01*
X357929Y114109D01*
X357871Y114185D01*
X357822Y114266D01*
X357736Y114364D01*
X357657Y114467D01*
X357587Y114532D01*
X357523Y114604D01*
X357422Y114684D01*
X357326Y114773D01*
X357245Y114824D01*
X357170Y114883D01*
X357056Y114945D01*
X356946Y115014D01*
X356858Y115051D01*
X356774Y115096D01*
X356650Y115136D01*
X356597Y115158D01*
X354669Y117085D01*
X354669Y138915D01*
X356455Y140701D01*
X378285Y140701D01*
X380071Y138915D01*
X380071Y117085D01*
X378144Y115158D01*
X378080Y115141D01*
X377962Y115085D01*
X377841Y115038D01*
X377759Y114988D01*
X377673Y114947D01*
X377567Y114872D01*
X377456Y114804D01*
X377385Y114741D01*
X377307Y114685D01*
X377216Y114592D01*
X377119Y114506D01*
X377060Y114431D01*
X376993Y114363D01*
X376920Y114255D01*
X376839Y114153D01*
X376794Y114069D01*
X376741Y113990D01*
X376688Y113871D01*
X376627Y113756D01*
X376597Y113665D01*
X376559Y113578D01*
X376528Y113451D01*
X376488Y113328D01*
X376475Y113233D01*
X376452Y113140D01*
X376444Y113011D01*
X376426Y112882D01*
X376430Y112786D01*
X376424Y112691D01*
X376439Y112562D01*
X376445Y112432D01*
X376465Y112339D01*
X376476Y112244D01*
X376514Y112119D01*
X376542Y111992D01*
X376579Y111904D01*
X376607Y111813D01*
X376666Y111697D01*
X376716Y111577D01*
X376768Y111497D01*
X376811Y111411D01*
X376889Y111308D01*
X376960Y111199D01*
X377046Y111101D01*
X377083Y111053D01*
X377116Y111022D01*
X377167Y110964D01*
X378137Y109994D01*
X380071Y105326D01*
X380071Y100274D01*
X378137Y95606D01*
X374564Y92033D01*
X369896Y90099D01*
X364844Y90099D01*
G37*
%LPD*%
%LPC*%
G36*
X356155Y196899D02*
X356155Y196899D01*
X354369Y198685D01*
X354369Y220515D01*
X356296Y222442D01*
X356360Y222459D01*
X356478Y222515D01*
X356599Y222562D01*
X356681Y222612D01*
X356767Y222653D01*
X356873Y222728D01*
X356984Y222796D01*
X357055Y222859D01*
X357133Y222915D01*
X357224Y223008D01*
X357321Y223094D01*
X357380Y223169D01*
X357447Y223237D01*
X357520Y223345D01*
X357601Y223447D01*
X357646Y223531D01*
X357699Y223610D01*
X357752Y223729D01*
X357813Y223844D01*
X357843Y223935D01*
X357881Y224022D01*
X357912Y224149D01*
X357952Y224272D01*
X357965Y224367D01*
X357988Y224460D01*
X357996Y224589D01*
X358014Y224718D01*
X358010Y224814D01*
X358016Y224909D01*
X358001Y225038D01*
X357995Y225168D01*
X357975Y225261D01*
X357964Y225356D01*
X357926Y225481D01*
X357898Y225608D01*
X357861Y225696D01*
X357833Y225787D01*
X357774Y225903D01*
X357724Y226023D01*
X357672Y226103D01*
X357629Y226189D01*
X357551Y226292D01*
X357480Y226401D01*
X357394Y226499D01*
X357357Y226547D01*
X357324Y226578D01*
X357273Y226636D01*
X356303Y227606D01*
X354369Y232274D01*
X354369Y237326D01*
X356303Y241994D01*
X359876Y245567D01*
X364544Y247501D01*
X369596Y247501D01*
X374264Y245567D01*
X377837Y241994D01*
X379771Y237326D01*
X379771Y232274D01*
X377837Y227606D01*
X376867Y226636D01*
X376784Y226536D01*
X376693Y226443D01*
X376639Y226363D01*
X376578Y226290D01*
X376514Y226177D01*
X376441Y226070D01*
X376402Y225982D01*
X376355Y225899D01*
X376311Y225777D01*
X376259Y225658D01*
X376236Y225565D01*
X376204Y225475D01*
X376183Y225347D01*
X376152Y225220D01*
X376146Y225125D01*
X376130Y225031D01*
X376132Y224901D01*
X376124Y224771D01*
X376135Y224676D01*
X376137Y224580D01*
X376161Y224453D01*
X376176Y224324D01*
X376204Y224232D01*
X376222Y224138D01*
X376269Y224017D01*
X376307Y223893D01*
X376350Y223807D01*
X376384Y223718D01*
X376452Y223607D01*
X376511Y223491D01*
X376569Y223415D01*
X376618Y223334D01*
X376704Y223236D01*
X376783Y223133D01*
X376853Y223068D01*
X376917Y222996D01*
X377018Y222916D01*
X377114Y222827D01*
X377195Y222776D01*
X377270Y222717D01*
X377384Y222655D01*
X377494Y222586D01*
X377582Y222549D01*
X377666Y222504D01*
X377790Y222464D01*
X377843Y222442D01*
X379771Y220515D01*
X379771Y198685D01*
X377985Y196899D01*
X356155Y196899D01*
G37*
%LPD*%
%LPC*%
G36*
X159685Y247336D02*
X159685Y247336D01*
X155017Y249270D01*
X151444Y252843D01*
X149510Y257511D01*
X149510Y261462D01*
X149503Y261544D01*
X149505Y261626D01*
X149483Y261767D01*
X149470Y261910D01*
X149449Y261990D01*
X149436Y262071D01*
X149390Y262206D01*
X149352Y262345D01*
X149316Y262419D01*
X149290Y262497D01*
X149220Y262622D01*
X149158Y262751D01*
X149111Y262818D01*
X149070Y262890D01*
X148980Y263001D01*
X148896Y263117D01*
X148837Y263175D01*
X148785Y263238D01*
X148676Y263331D01*
X148574Y263431D01*
X148505Y263477D01*
X148443Y263531D01*
X148319Y263603D01*
X148201Y263683D01*
X148125Y263717D01*
X148054Y263758D01*
X147920Y263808D01*
X147789Y263866D01*
X147709Y263885D01*
X147631Y263914D01*
X147490Y263938D01*
X147351Y263972D01*
X147269Y263977D01*
X147188Y263992D01*
X147045Y263991D01*
X146902Y264000D01*
X146820Y263990D01*
X146738Y263990D01*
X146597Y263964D01*
X146455Y263948D01*
X146376Y263924D01*
X146295Y263909D01*
X146061Y263829D01*
X146024Y263818D01*
X146014Y263813D01*
X145999Y263808D01*
X140880Y261687D01*
X135828Y261687D01*
X131160Y263621D01*
X127587Y267194D01*
X125653Y271862D01*
X125653Y276914D01*
X127587Y281582D01*
X131160Y285155D01*
X135828Y287089D01*
X140880Y287089D01*
X145548Y285155D01*
X149121Y281582D01*
X151055Y276914D01*
X151055Y272963D01*
X151058Y272932D01*
X151056Y272902D01*
X151061Y272853D01*
X151060Y272799D01*
X151082Y272658D01*
X151095Y272515D01*
X151105Y272476D01*
X151108Y272455D01*
X151119Y272417D01*
X151129Y272354D01*
X151175Y272219D01*
X151213Y272080D01*
X151235Y272035D01*
X151238Y272024D01*
X151251Y271998D01*
X151275Y271928D01*
X151345Y271803D01*
X151407Y271674D01*
X151441Y271626D01*
X151442Y271623D01*
X151455Y271607D01*
X151495Y271535D01*
X151585Y271424D01*
X151669Y271308D01*
X151728Y271250D01*
X151780Y271187D01*
X151889Y271094D01*
X151991Y270994D01*
X152060Y270948D01*
X152122Y270894D01*
X152246Y270822D01*
X152364Y270742D01*
X152440Y270708D01*
X152511Y270667D01*
X152645Y270617D01*
X152776Y270559D01*
X152856Y270540D01*
X152934Y270511D01*
X153075Y270487D01*
X153214Y270453D01*
X153296Y270448D01*
X153377Y270433D01*
X153520Y270434D01*
X153663Y270425D01*
X153745Y270435D01*
X153827Y270435D01*
X153968Y270461D01*
X154110Y270477D01*
X154189Y270501D01*
X154270Y270516D01*
X154454Y270579D01*
X154496Y270590D01*
X154515Y270599D01*
X154541Y270607D01*
X154551Y270612D01*
X154566Y270617D01*
X159685Y272738D01*
X164737Y272738D01*
X167570Y271564D01*
X167649Y271540D01*
X167724Y271506D01*
X167863Y271472D01*
X168000Y271430D01*
X168082Y271419D01*
X168162Y271400D01*
X168304Y271391D01*
X168447Y271373D01*
X168529Y271377D01*
X168611Y271372D01*
X168753Y271389D01*
X168896Y271396D01*
X168976Y271414D01*
X169058Y271424D01*
X169196Y271466D01*
X169335Y271498D01*
X169410Y271530D01*
X169489Y271554D01*
X169617Y271619D01*
X169748Y271676D01*
X169817Y271721D01*
X169891Y271759D01*
X170005Y271845D01*
X170010Y271849D01*
X183275Y271849D01*
X183275Y259862D01*
X182933Y259907D01*
X181068Y260407D01*
X179284Y261146D01*
X178721Y261471D01*
X178700Y261481D01*
X178681Y261494D01*
X178496Y261576D01*
X178312Y261661D01*
X178290Y261667D01*
X178269Y261676D01*
X178072Y261724D01*
X177877Y261776D01*
X177854Y261778D01*
X177831Y261783D01*
X177630Y261795D01*
X177428Y261812D01*
X177405Y261809D01*
X177382Y261811D01*
X177181Y261787D01*
X176980Y261768D01*
X176958Y261761D01*
X176935Y261759D01*
X176740Y261700D01*
X176547Y261645D01*
X176526Y261635D01*
X176504Y261628D01*
X176323Y261536D01*
X176142Y261448D01*
X176123Y261434D01*
X176102Y261424D01*
X175942Y261302D01*
X175778Y261183D01*
X175762Y261166D01*
X175744Y261152D01*
X175607Y261004D01*
X175467Y260857D01*
X175454Y260838D01*
X175438Y260821D01*
X175330Y260650D01*
X175218Y260482D01*
X175209Y260461D01*
X175197Y260441D01*
X175120Y260254D01*
X175040Y260068D01*
X175034Y260046D01*
X175026Y260025D01*
X174983Y259826D01*
X174937Y259630D01*
X174936Y259607D01*
X174931Y259584D01*
X174912Y259272D01*
X174912Y257511D01*
X172978Y252843D01*
X169405Y249270D01*
X164737Y247336D01*
X159685Y247336D01*
G37*
%LPD*%
%LPC*%
G36*
X31818Y16749D02*
X31818Y16749D01*
X24905Y19613D01*
X19613Y24905D01*
X16749Y31818D01*
X16749Y39302D01*
X19613Y46215D01*
X24905Y51507D01*
X31818Y54371D01*
X39302Y54371D01*
X46215Y51507D01*
X51507Y46215D01*
X54371Y39302D01*
X54371Y31818D01*
X51507Y24905D01*
X46215Y19613D01*
X39302Y16749D01*
X31818Y16749D01*
G37*
%LPD*%
%LPC*%
G36*
X31818Y446009D02*
X31818Y446009D01*
X24905Y448873D01*
X19613Y454165D01*
X16749Y461078D01*
X16749Y468562D01*
X19613Y475475D01*
X24905Y480767D01*
X31818Y483631D01*
X39302Y483631D01*
X46215Y480767D01*
X51507Y475475D01*
X54371Y468562D01*
X54371Y461078D01*
X51507Y454165D01*
X46215Y448873D01*
X39302Y446009D01*
X31818Y446009D01*
G37*
%LPD*%
%LPC*%
G36*
X783658Y443469D02*
X783658Y443469D01*
X776745Y446333D01*
X771453Y451625D01*
X768589Y458538D01*
X768589Y466022D01*
X771453Y472935D01*
X776745Y478227D01*
X783658Y481091D01*
X791142Y481091D01*
X798055Y478227D01*
X803347Y472935D01*
X806211Y466022D01*
X806211Y458538D01*
X803347Y451625D01*
X798055Y446333D01*
X791142Y443469D01*
X783658Y443469D01*
G37*
%LPD*%
%LPC*%
G36*
X783658Y16749D02*
X783658Y16749D01*
X776745Y19613D01*
X771453Y24905D01*
X768589Y31818D01*
X768589Y39302D01*
X771453Y46215D01*
X776745Y51507D01*
X783658Y54371D01*
X791142Y54371D01*
X798055Y51507D01*
X803347Y46215D01*
X806211Y39302D01*
X806211Y31818D01*
X803347Y24905D01*
X798055Y19613D01*
X791142Y16749D01*
X783658Y16749D01*
G37*
%LPD*%
%LPC*%
G36*
X106720Y205577D02*
X106720Y205577D01*
X102052Y207511D01*
X98479Y211084D01*
X96545Y215752D01*
X96545Y220804D01*
X98479Y225472D01*
X102052Y229045D01*
X106720Y230979D01*
X111772Y230979D01*
X116440Y229045D01*
X120150Y225335D01*
X120177Y225313D01*
X120200Y225287D01*
X120349Y225169D01*
X120496Y225046D01*
X120526Y225029D01*
X120553Y225007D01*
X120721Y224917D01*
X120887Y224823D01*
X120919Y224811D01*
X120950Y224795D01*
X121131Y224736D01*
X121311Y224672D01*
X121345Y224666D01*
X121378Y224656D01*
X121567Y224630D01*
X121755Y224598D01*
X121790Y224599D01*
X121824Y224594D01*
X122015Y224602D01*
X122206Y224605D01*
X122240Y224611D01*
X122274Y224613D01*
X122460Y224654D01*
X122648Y224690D01*
X122680Y224703D01*
X122714Y224710D01*
X122889Y224784D01*
X123068Y224852D01*
X123097Y224871D01*
X123129Y224884D01*
X123289Y224987D01*
X123452Y225086D01*
X123478Y225109D01*
X123507Y225128D01*
X123742Y225335D01*
X127452Y229045D01*
X132120Y230979D01*
X137172Y230979D01*
X141840Y229045D01*
X145413Y225472D01*
X147347Y220804D01*
X147347Y215752D01*
X145413Y211084D01*
X141840Y207511D01*
X137172Y205577D01*
X132120Y205577D01*
X127452Y207511D01*
X123742Y211221D01*
X123715Y211243D01*
X123692Y211269D01*
X123543Y211387D01*
X123396Y211510D01*
X123366Y211527D01*
X123339Y211549D01*
X123171Y211639D01*
X123005Y211733D01*
X122973Y211745D01*
X122942Y211761D01*
X122761Y211820D01*
X122581Y211884D01*
X122547Y211890D01*
X122514Y211900D01*
X122325Y211926D01*
X122137Y211957D01*
X122102Y211957D01*
X122068Y211962D01*
X121877Y211954D01*
X121687Y211951D01*
X121652Y211945D01*
X121618Y211943D01*
X121432Y211902D01*
X121244Y211866D01*
X121212Y211853D01*
X121178Y211846D01*
X121002Y211772D01*
X120824Y211704D01*
X120795Y211686D01*
X120763Y211672D01*
X120602Y211569D01*
X120440Y211470D01*
X120414Y211447D01*
X120385Y211428D01*
X120150Y211221D01*
X116440Y207511D01*
X111772Y205577D01*
X106720Y205577D01*
G37*
%LPD*%
%LPC*%
G36*
X361730Y389731D02*
X361730Y389731D01*
X355096Y392479D01*
X350019Y397556D01*
X347271Y404190D01*
X347271Y411370D01*
X350019Y418004D01*
X355096Y423081D01*
X361730Y425829D01*
X368910Y425829D01*
X375544Y423081D01*
X380621Y418004D01*
X383369Y411370D01*
X383369Y404190D01*
X380621Y397556D01*
X375544Y392479D01*
X368910Y389731D01*
X361730Y389731D01*
G37*
%LPD*%
%LPC*%
G36*
X527464Y104179D02*
X527464Y104179D01*
X522796Y106113D01*
X519223Y109686D01*
X517289Y114354D01*
X517289Y119406D01*
X519223Y124074D01*
X522796Y127647D01*
X527464Y129581D01*
X532516Y129581D01*
X537184Y127647D01*
X540694Y124137D01*
X540721Y124115D01*
X540744Y124089D01*
X540893Y123971D01*
X541040Y123848D01*
X541070Y123831D01*
X541097Y123809D01*
X541265Y123719D01*
X541431Y123625D01*
X541463Y123613D01*
X541494Y123597D01*
X541675Y123538D01*
X541855Y123474D01*
X541889Y123468D01*
X541922Y123458D01*
X542111Y123432D01*
X542299Y123401D01*
X542334Y123401D01*
X542368Y123396D01*
X542559Y123404D01*
X542749Y123407D01*
X542784Y123413D01*
X542818Y123415D01*
X543004Y123456D01*
X543192Y123492D01*
X543224Y123505D01*
X543258Y123512D01*
X543434Y123586D01*
X543612Y123654D01*
X543641Y123672D01*
X543673Y123686D01*
X543834Y123789D01*
X543996Y123888D01*
X544022Y123911D01*
X544051Y123930D01*
X544286Y124137D01*
X547796Y127647D01*
X552464Y129581D01*
X557516Y129581D01*
X562184Y127647D01*
X565757Y124074D01*
X567691Y119406D01*
X567691Y114354D01*
X565757Y109686D01*
X562184Y106113D01*
X557516Y104179D01*
X552464Y104179D01*
X547796Y106113D01*
X544286Y109623D01*
X544259Y109645D01*
X544236Y109671D01*
X544087Y109789D01*
X543940Y109912D01*
X543910Y109929D01*
X543883Y109951D01*
X543715Y110041D01*
X543549Y110135D01*
X543517Y110147D01*
X543486Y110163D01*
X543305Y110222D01*
X543125Y110286D01*
X543091Y110292D01*
X543058Y110302D01*
X542869Y110328D01*
X542681Y110360D01*
X542646Y110359D01*
X542612Y110364D01*
X542421Y110356D01*
X542230Y110353D01*
X542196Y110347D01*
X542162Y110345D01*
X541976Y110304D01*
X541788Y110268D01*
X541756Y110255D01*
X541722Y110248D01*
X541547Y110174D01*
X541368Y110106D01*
X541339Y110087D01*
X541307Y110074D01*
X541147Y109971D01*
X540984Y109872D01*
X540958Y109849D01*
X540929Y109830D01*
X540694Y109623D01*
X537184Y106113D01*
X532516Y104179D01*
X527464Y104179D01*
G37*
%LPD*%
%LPC*%
G36*
X452464Y104179D02*
X452464Y104179D01*
X447796Y106113D01*
X444223Y109686D01*
X442289Y114354D01*
X442289Y119406D01*
X444223Y124074D01*
X447796Y127647D01*
X452464Y129581D01*
X457516Y129581D01*
X462184Y127647D01*
X465694Y124137D01*
X465721Y124115D01*
X465744Y124089D01*
X465893Y123971D01*
X466040Y123848D01*
X466070Y123831D01*
X466097Y123809D01*
X466265Y123719D01*
X466431Y123625D01*
X466463Y123613D01*
X466494Y123597D01*
X466675Y123538D01*
X466855Y123474D01*
X466889Y123468D01*
X466922Y123458D01*
X467111Y123432D01*
X467299Y123401D01*
X467334Y123401D01*
X467368Y123396D01*
X467559Y123404D01*
X467749Y123407D01*
X467784Y123413D01*
X467818Y123415D01*
X468004Y123456D01*
X468192Y123492D01*
X468224Y123505D01*
X468258Y123512D01*
X468434Y123586D01*
X468612Y123654D01*
X468641Y123672D01*
X468673Y123686D01*
X468834Y123789D01*
X468996Y123888D01*
X469022Y123911D01*
X469051Y123930D01*
X469286Y124137D01*
X472796Y127647D01*
X477464Y129581D01*
X482516Y129581D01*
X487184Y127647D01*
X490757Y124074D01*
X492691Y119406D01*
X492691Y114354D01*
X490757Y109686D01*
X487184Y106113D01*
X482516Y104179D01*
X477464Y104179D01*
X472796Y106113D01*
X469286Y109623D01*
X469259Y109645D01*
X469236Y109671D01*
X469087Y109789D01*
X468940Y109912D01*
X468910Y109929D01*
X468883Y109951D01*
X468715Y110041D01*
X468549Y110135D01*
X468517Y110147D01*
X468486Y110163D01*
X468305Y110222D01*
X468125Y110286D01*
X468091Y110292D01*
X468058Y110302D01*
X467869Y110328D01*
X467681Y110360D01*
X467646Y110359D01*
X467612Y110364D01*
X467421Y110356D01*
X467230Y110353D01*
X467196Y110347D01*
X467162Y110345D01*
X466976Y110304D01*
X466788Y110268D01*
X466756Y110255D01*
X466722Y110248D01*
X466547Y110174D01*
X466368Y110106D01*
X466339Y110087D01*
X466307Y110074D01*
X466147Y109971D01*
X465984Y109872D01*
X465958Y109849D01*
X465929Y109830D01*
X465694Y109623D01*
X462184Y106113D01*
X457516Y104179D01*
X452464Y104179D01*
G37*
%LPD*%
%LPC*%
G36*
X530662Y423623D02*
X530662Y423623D01*
X516136Y423623D01*
X516181Y423965D01*
X516681Y425830D01*
X517420Y427614D01*
X518386Y429287D01*
X519487Y430721D01*
X519537Y430801D01*
X519595Y430874D01*
X519658Y430990D01*
X519728Y431101D01*
X519764Y431188D01*
X519808Y431271D01*
X519849Y431396D01*
X519899Y431518D01*
X519918Y431610D01*
X519947Y431699D01*
X519965Y431830D01*
X519993Y431959D01*
X519996Y432052D01*
X520009Y432145D01*
X520003Y432277D01*
X520008Y432409D01*
X519994Y432501D01*
X519990Y432595D01*
X519962Y432724D01*
X519943Y432854D01*
X519913Y432943D01*
X519893Y433035D01*
X519842Y433156D01*
X519800Y433281D01*
X519755Y433364D01*
X519719Y433450D01*
X519648Y433561D01*
X519585Y433676D01*
X519526Y433750D01*
X519475Y433829D01*
X519337Y433985D01*
X519302Y434027D01*
X519288Y434040D01*
X519268Y434063D01*
X517961Y435369D01*
X517961Y457199D01*
X519747Y458985D01*
X541577Y458985D01*
X543363Y457199D01*
X543363Y435369D01*
X542056Y434063D01*
X541996Y433991D01*
X541929Y433925D01*
X541852Y433818D01*
X541767Y433717D01*
X541721Y433636D01*
X541666Y433560D01*
X541609Y433441D01*
X541544Y433326D01*
X541512Y433238D01*
X541472Y433153D01*
X541437Y433026D01*
X541393Y432902D01*
X541378Y432809D01*
X541353Y432719D01*
X541341Y432588D01*
X541320Y432458D01*
X541321Y432364D01*
X541312Y432270D01*
X541324Y432139D01*
X541326Y432008D01*
X541344Y431915D01*
X541352Y431822D01*
X541386Y431695D01*
X541411Y431566D01*
X541445Y431478D01*
X541470Y431387D01*
X541526Y431268D01*
X541574Y431146D01*
X541622Y431065D01*
X541663Y430980D01*
X541779Y430808D01*
X541808Y430761D01*
X541820Y430746D01*
X541837Y430721D01*
X542938Y429287D01*
X543904Y427614D01*
X544643Y425830D01*
X545143Y423965D01*
X545188Y423623D01*
X530662Y423623D01*
X530662Y423623D01*
G37*
%LPD*%
%LPC*%
G36*
X331235Y31449D02*
X331235Y31449D01*
X329449Y33235D01*
X329449Y57605D01*
X331235Y59391D01*
X355605Y59391D01*
X357391Y57605D01*
X357391Y47030D01*
X357396Y46971D01*
X357393Y46911D01*
X357416Y46747D01*
X357431Y46581D01*
X357446Y46524D01*
X357454Y46465D01*
X357505Y46307D01*
X357549Y46147D01*
X357575Y46093D01*
X357593Y46037D01*
X357671Y45890D01*
X357743Y45740D01*
X357777Y45692D01*
X357805Y45640D01*
X357908Y45509D01*
X357971Y45421D01*
X357958Y45402D01*
X357917Y45359D01*
X357828Y45218D01*
X357733Y45083D01*
X357708Y45029D01*
X357676Y44979D01*
X357613Y44825D01*
X357542Y44675D01*
X357527Y44617D01*
X357505Y44562D01*
X357470Y44400D01*
X357427Y44239D01*
X357422Y44180D01*
X357410Y44122D01*
X357391Y43810D01*
X357391Y33235D01*
X355605Y31449D01*
X331235Y31449D01*
G37*
%LPD*%
%LPC*%
G36*
X46062Y95622D02*
X46062Y95622D01*
X46019Y95663D01*
X45878Y95752D01*
X45743Y95847D01*
X45689Y95872D01*
X45639Y95904D01*
X45485Y95967D01*
X45335Y96038D01*
X45277Y96053D01*
X45222Y96075D01*
X45060Y96110D01*
X44899Y96153D01*
X44840Y96158D01*
X44782Y96170D01*
X44470Y96189D01*
X33895Y96189D01*
X32109Y97975D01*
X32109Y122345D01*
X33895Y124131D01*
X58265Y124131D01*
X60051Y122345D01*
X60051Y97975D01*
X58265Y96189D01*
X47690Y96189D01*
X47631Y96184D01*
X47571Y96187D01*
X47407Y96164D01*
X47241Y96149D01*
X47184Y96134D01*
X47125Y96126D01*
X46967Y96075D01*
X46807Y96031D01*
X46753Y96005D01*
X46697Y95987D01*
X46550Y95909D01*
X46400Y95837D01*
X46352Y95803D01*
X46300Y95775D01*
X46169Y95672D01*
X46081Y95609D01*
X46062Y95622D01*
G37*
%LPD*%
%LPC*%
G36*
X454502Y447642D02*
X454502Y447642D01*
X454459Y447683D01*
X454319Y447772D01*
X454183Y447867D01*
X454129Y447893D01*
X454079Y447924D01*
X453925Y447987D01*
X453775Y448058D01*
X453717Y448073D01*
X453662Y448095D01*
X453500Y448130D01*
X453339Y448173D01*
X453280Y448178D01*
X453222Y448190D01*
X452910Y448209D01*
X442335Y448209D01*
X440549Y449995D01*
X440549Y474365D01*
X442335Y476151D01*
X466705Y476151D01*
X468491Y474365D01*
X468491Y449995D01*
X466705Y448209D01*
X456130Y448209D01*
X456071Y448204D01*
X456011Y448207D01*
X455847Y448184D01*
X455681Y448169D01*
X455624Y448154D01*
X455565Y448146D01*
X455407Y448095D01*
X455247Y448051D01*
X455193Y448025D01*
X455137Y448007D01*
X454990Y447929D01*
X454840Y447857D01*
X454792Y447823D01*
X454740Y447795D01*
X454609Y447692D01*
X454521Y447629D01*
X454502Y447642D01*
G37*
%LPD*%
%LPC*%
G36*
X595696Y427815D02*
X595696Y427815D01*
X581170Y427815D01*
X581215Y428157D01*
X581715Y430022D01*
X582454Y431806D01*
X583420Y433479D01*
X584596Y435011D01*
X585961Y436377D01*
X587100Y437250D01*
X587247Y437386D01*
X587398Y437519D01*
X587414Y437538D01*
X587432Y437555D01*
X587553Y437714D01*
X587678Y437872D01*
X587689Y437894D01*
X587704Y437914D01*
X587795Y438092D01*
X587890Y438269D01*
X587898Y438292D01*
X587909Y438315D01*
X587968Y438507D01*
X588029Y438697D01*
X588033Y438722D01*
X588040Y438745D01*
X588063Y438944D01*
X588091Y439143D01*
X588090Y439168D01*
X588093Y439193D01*
X588081Y439392D01*
X588072Y439593D01*
X588067Y439617D01*
X588066Y439642D01*
X588018Y439837D01*
X587975Y440033D01*
X587965Y440056D01*
X587959Y440080D01*
X587878Y440264D01*
X587801Y440448D01*
X587788Y440469D01*
X587778Y440492D01*
X587665Y440658D01*
X587557Y440826D01*
X587537Y440849D01*
X587526Y440865D01*
X587488Y440904D01*
X587350Y441061D01*
X584929Y443482D01*
X582995Y448150D01*
X582995Y453202D01*
X584929Y457870D01*
X588502Y461443D01*
X593170Y463377D01*
X598222Y463377D01*
X602890Y461443D01*
X606463Y457870D01*
X608397Y453202D01*
X608397Y448150D01*
X606463Y443482D01*
X604042Y441061D01*
X603914Y440907D01*
X603782Y440755D01*
X603769Y440734D01*
X603753Y440715D01*
X603654Y440541D01*
X603551Y440369D01*
X603542Y440346D01*
X603530Y440324D01*
X603463Y440135D01*
X603392Y439948D01*
X603387Y439923D01*
X603379Y439900D01*
X603346Y439700D01*
X603310Y439505D01*
X603310Y439480D01*
X603305Y439456D01*
X603308Y439255D01*
X603307Y439055D01*
X603311Y439030D01*
X603312Y439005D01*
X603350Y438809D01*
X603384Y438611D01*
X603392Y438588D01*
X603397Y438563D01*
X603469Y438377D01*
X603538Y438188D01*
X603551Y438167D01*
X603559Y438143D01*
X603663Y437972D01*
X603764Y437799D01*
X603780Y437780D01*
X603793Y437759D01*
X603926Y437608D01*
X604056Y437456D01*
X604079Y437436D01*
X604092Y437421D01*
X604135Y437387D01*
X604292Y437250D01*
X605431Y436377D01*
X606796Y435011D01*
X607972Y433479D01*
X608938Y431806D01*
X609677Y430022D01*
X610177Y428157D01*
X610222Y427815D01*
X595696Y427815D01*
X595696Y427815D01*
G37*
%LPD*%
%LPC*%
G36*
X191061Y452989D02*
X191061Y452989D01*
X185926Y455116D01*
X181996Y459046D01*
X179869Y464181D01*
X179869Y469739D01*
X181996Y474874D01*
X185926Y478804D01*
X191061Y480931D01*
X196619Y480931D01*
X201754Y478804D01*
X205684Y474874D01*
X207811Y469739D01*
X207811Y464181D01*
X205684Y459046D01*
X201754Y455116D01*
X196619Y452989D01*
X191061Y452989D01*
G37*
%LPD*%
%LPC*%
G36*
X83733Y451611D02*
X83733Y451611D01*
X78878Y453622D01*
X75162Y457338D01*
X73151Y462193D01*
X73151Y467447D01*
X75162Y472302D01*
X78878Y476018D01*
X83733Y478029D01*
X88987Y478029D01*
X93842Y476018D01*
X97558Y472302D01*
X99569Y467447D01*
X99569Y462193D01*
X97558Y457338D01*
X93842Y453622D01*
X88987Y451611D01*
X83733Y451611D01*
G37*
%LPD*%
%LPC*%
G36*
X787523Y410971D02*
X787523Y410971D01*
X782668Y412982D01*
X778952Y416698D01*
X776941Y421553D01*
X776941Y426807D01*
X778952Y431662D01*
X782668Y435378D01*
X787523Y437389D01*
X792777Y437389D01*
X797632Y435378D01*
X801348Y431662D01*
X803359Y426807D01*
X803359Y421553D01*
X801348Y416698D01*
X797632Y412982D01*
X792777Y410971D01*
X787523Y410971D01*
G37*
%LPD*%
%LPC*%
G36*
X154853Y375411D02*
X154853Y375411D01*
X149998Y377422D01*
X146282Y381138D01*
X144271Y385993D01*
X144271Y391247D01*
X146282Y396102D01*
X149998Y399818D01*
X154853Y401829D01*
X160107Y401829D01*
X164962Y399818D01*
X168678Y396102D01*
X170689Y391247D01*
X170689Y385993D01*
X168678Y381138D01*
X164962Y377422D01*
X160107Y375411D01*
X154853Y375411D01*
G37*
%LPD*%
%LPC*%
G36*
X83733Y375411D02*
X83733Y375411D01*
X78878Y377422D01*
X75162Y381138D01*
X73151Y385993D01*
X73151Y391247D01*
X75162Y396102D01*
X78878Y399818D01*
X83733Y401829D01*
X88987Y401829D01*
X93842Y399818D01*
X97558Y396102D01*
X99569Y391247D01*
X99569Y385993D01*
X97558Y381138D01*
X93842Y377422D01*
X88987Y375411D01*
X83733Y375411D01*
G37*
%LPD*%
%LPC*%
G36*
X444413Y360171D02*
X444413Y360171D01*
X439558Y362182D01*
X435842Y365898D01*
X433831Y370753D01*
X433831Y376007D01*
X435842Y380862D01*
X439558Y384578D01*
X444413Y386589D01*
X449667Y386589D01*
X454522Y384578D01*
X458238Y380862D01*
X460249Y376007D01*
X460249Y370753D01*
X458238Y365898D01*
X454522Y362182D01*
X449667Y360171D01*
X444413Y360171D01*
G37*
%LPD*%
%LPC*%
G36*
X786543Y342391D02*
X786543Y342391D01*
X781688Y344402D01*
X777972Y348118D01*
X775961Y352973D01*
X775961Y358227D01*
X777972Y363082D01*
X781688Y366798D01*
X786543Y368809D01*
X791797Y368809D01*
X796652Y366798D01*
X800368Y363082D01*
X802379Y358227D01*
X802379Y352973D01*
X800368Y348118D01*
X796652Y344402D01*
X791797Y342391D01*
X786543Y342391D01*
G37*
%LPD*%
%LPC*%
G36*
X786023Y273811D02*
X786023Y273811D01*
X781168Y275822D01*
X777452Y279538D01*
X775441Y284393D01*
X775441Y289647D01*
X777452Y294502D01*
X781168Y298218D01*
X786023Y300229D01*
X791277Y300229D01*
X796132Y298218D01*
X799848Y294502D01*
X801859Y289647D01*
X801859Y284393D01*
X799848Y279538D01*
X796132Y275822D01*
X791277Y273811D01*
X786023Y273811D01*
G37*
%LPD*%
%LPC*%
G36*
X314563Y203263D02*
X314563Y203263D01*
X309708Y205274D01*
X305992Y208990D01*
X303981Y213845D01*
X303981Y219099D01*
X305992Y223954D01*
X309708Y227670D01*
X314563Y229681D01*
X319817Y229681D01*
X324672Y227670D01*
X328388Y223954D01*
X330399Y219099D01*
X330399Y213845D01*
X328388Y208990D01*
X324672Y205274D01*
X319817Y203263D01*
X314563Y203263D01*
G37*
%LPD*%
%LPC*%
G36*
X408853Y238251D02*
X408853Y238251D01*
X403998Y240262D01*
X400282Y243978D01*
X398271Y248833D01*
X398271Y254087D01*
X400282Y258942D01*
X403998Y262658D01*
X408853Y264669D01*
X414107Y264669D01*
X418962Y262658D01*
X422678Y258942D01*
X424689Y254087D01*
X424689Y248833D01*
X422678Y243978D01*
X418962Y240262D01*
X414107Y238251D01*
X408853Y238251D01*
G37*
%LPD*%
%LPC*%
G36*
X785503Y205231D02*
X785503Y205231D01*
X780648Y207242D01*
X776932Y210958D01*
X774921Y215813D01*
X774921Y221067D01*
X776932Y225922D01*
X780648Y229638D01*
X785503Y231649D01*
X790757Y231649D01*
X795612Y229638D01*
X799328Y225922D01*
X801339Y221067D01*
X801339Y215813D01*
X799328Y210958D01*
X795612Y207242D01*
X790757Y205231D01*
X785503Y205231D01*
G37*
%LPD*%
%LPC*%
G36*
X786023Y136651D02*
X786023Y136651D01*
X781168Y138662D01*
X777452Y142378D01*
X775441Y147233D01*
X775441Y152487D01*
X777452Y157342D01*
X781168Y161058D01*
X786023Y163069D01*
X791277Y163069D01*
X796132Y161058D01*
X799848Y157342D01*
X801859Y152487D01*
X801859Y147233D01*
X799848Y142378D01*
X796132Y138662D01*
X791277Y136651D01*
X786023Y136651D01*
G37*
%LPD*%
%LPC*%
G36*
X120637Y451611D02*
X120637Y451611D01*
X115782Y453622D01*
X112066Y457338D01*
X110055Y462193D01*
X110055Y467447D01*
X112066Y472302D01*
X115782Y476018D01*
X120637Y478029D01*
X125891Y478029D01*
X130746Y476018D01*
X134462Y472302D01*
X136473Y467447D01*
X136473Y462193D01*
X134462Y457338D01*
X130746Y453622D01*
X125891Y451611D01*
X120637Y451611D01*
G37*
%LPD*%
%LPC*%
G36*
X46080Y77699D02*
X46080Y77699D01*
X30273Y77699D01*
X30351Y78289D01*
X30894Y80315D01*
X31697Y82253D01*
X32746Y84070D01*
X34023Y85734D01*
X35506Y87217D01*
X37170Y88494D01*
X38987Y89543D01*
X40925Y90346D01*
X42951Y90889D01*
X44802Y91132D01*
X44859Y91145D01*
X44919Y91151D01*
X45079Y91194D01*
X45241Y91231D01*
X45296Y91254D01*
X45353Y91269D01*
X45503Y91341D01*
X45656Y91405D01*
X45706Y91437D01*
X45760Y91463D01*
X45895Y91559D01*
X46034Y91650D01*
X46077Y91690D01*
X46081Y91693D01*
X46141Y91638D01*
X46192Y91606D01*
X46237Y91567D01*
X46381Y91485D01*
X46521Y91396D01*
X46576Y91373D01*
X46628Y91344D01*
X46784Y91288D01*
X46938Y91225D01*
X46996Y91212D01*
X47052Y91192D01*
X47358Y91132D01*
X49209Y90889D01*
X51235Y90346D01*
X53173Y89543D01*
X54990Y88494D01*
X56654Y87217D01*
X58137Y85734D01*
X59414Y84070D01*
X60463Y82253D01*
X61266Y80315D01*
X61809Y78289D01*
X61887Y77699D01*
X46080Y77699D01*
X46080Y77699D01*
G37*
%LPD*%
%LPC*%
G36*
X454520Y429719D02*
X454520Y429719D01*
X438713Y429719D01*
X438791Y430309D01*
X439334Y432335D01*
X440137Y434273D01*
X441186Y436090D01*
X442463Y437754D01*
X443946Y439237D01*
X445610Y440514D01*
X447427Y441563D01*
X449365Y442366D01*
X451391Y442909D01*
X453242Y443152D01*
X453299Y443165D01*
X453359Y443171D01*
X453519Y443214D01*
X453681Y443251D01*
X453736Y443274D01*
X453793Y443289D01*
X453943Y443361D01*
X454096Y443425D01*
X454146Y443457D01*
X454200Y443483D01*
X454335Y443579D01*
X454474Y443670D01*
X454517Y443710D01*
X454521Y443713D01*
X454581Y443658D01*
X454632Y443626D01*
X454677Y443587D01*
X454821Y443505D01*
X454961Y443416D01*
X455016Y443393D01*
X455068Y443364D01*
X455224Y443308D01*
X455378Y443245D01*
X455436Y443232D01*
X455492Y443212D01*
X455798Y443152D01*
X457649Y442909D01*
X459675Y442366D01*
X461613Y441563D01*
X463430Y440514D01*
X465094Y439237D01*
X466577Y437754D01*
X467854Y436090D01*
X468903Y434273D01*
X469706Y432335D01*
X470249Y430309D01*
X470327Y429719D01*
X454520Y429719D01*
X454520Y429719D01*
G37*
%LPD*%
%LPC*%
G36*
X375291Y29691D02*
X375291Y29691D01*
X373265Y30234D01*
X371327Y31037D01*
X369510Y32086D01*
X367846Y33363D01*
X366363Y34846D01*
X365086Y36510D01*
X364037Y38327D01*
X363234Y40265D01*
X362691Y42291D01*
X362448Y44141D01*
X362435Y44199D01*
X362429Y44259D01*
X362386Y44419D01*
X362349Y44581D01*
X362326Y44636D01*
X362311Y44693D01*
X362240Y44843D01*
X362175Y44996D01*
X362143Y45046D01*
X362117Y45100D01*
X362021Y45235D01*
X361930Y45374D01*
X361890Y45417D01*
X361887Y45421D01*
X361942Y45481D01*
X361974Y45532D01*
X362013Y45577D01*
X362095Y45721D01*
X362184Y45861D01*
X362207Y45916D01*
X362236Y45968D01*
X362292Y46124D01*
X362355Y46278D01*
X362368Y46336D01*
X362388Y46392D01*
X362448Y46699D01*
X362691Y48549D01*
X363234Y50575D01*
X364037Y52513D01*
X365086Y54330D01*
X366363Y55994D01*
X367846Y57477D01*
X369510Y58754D01*
X371327Y59803D01*
X373265Y60606D01*
X375291Y61149D01*
X375881Y61227D01*
X375881Y45420D01*
X375881Y29613D01*
X375291Y29691D01*
G37*
%LPD*%
%LPC*%
G36*
X380959Y47959D02*
X380959Y47959D01*
X380959Y61227D01*
X381549Y61149D01*
X383575Y60606D01*
X385513Y59803D01*
X387330Y58754D01*
X388994Y57477D01*
X390477Y55994D01*
X391754Y54330D01*
X392803Y52513D01*
X393606Y50575D01*
X394149Y48549D01*
X394227Y47959D01*
X380959Y47959D01*
G37*
%LPD*%
%LPC*%
G36*
X380959Y42881D02*
X380959Y42881D01*
X394227Y42881D01*
X394149Y42291D01*
X393606Y40265D01*
X392803Y38327D01*
X391754Y36510D01*
X390477Y34846D01*
X388994Y33363D01*
X387330Y32086D01*
X385513Y31037D01*
X383575Y30234D01*
X381549Y29691D01*
X380959Y29613D01*
X380959Y42881D01*
G37*
%LPD*%
%LPC*%
G36*
X457059Y424641D02*
X457059Y424641D01*
X470327Y424641D01*
X470249Y424051D01*
X469706Y422025D01*
X468903Y420087D01*
X467854Y418270D01*
X466577Y416606D01*
X465094Y415123D01*
X463430Y413846D01*
X461613Y412797D01*
X459675Y411994D01*
X457649Y411451D01*
X457059Y411373D01*
X457059Y424641D01*
G37*
%LPD*%
%LPC*%
G36*
X48619Y72621D02*
X48619Y72621D01*
X61887Y72621D01*
X61809Y72031D01*
X61266Y70005D01*
X60463Y68067D01*
X59414Y66250D01*
X58137Y64586D01*
X56654Y63103D01*
X54990Y61826D01*
X53173Y60777D01*
X51235Y59974D01*
X49209Y59431D01*
X48619Y59353D01*
X48619Y72621D01*
G37*
%LPD*%
%LPC*%
G36*
X42951Y59431D02*
X42951Y59431D01*
X40925Y59974D01*
X38987Y60777D01*
X37170Y61826D01*
X35506Y63103D01*
X34023Y64586D01*
X32746Y66250D01*
X31697Y68067D01*
X30894Y70005D01*
X30351Y72031D01*
X30273Y72621D01*
X43541Y72621D01*
X43541Y59353D01*
X42951Y59431D01*
G37*
%LPD*%
%LPC*%
G36*
X451391Y411451D02*
X451391Y411451D01*
X449365Y411994D01*
X447427Y412797D01*
X445610Y413846D01*
X443946Y415123D01*
X442463Y416606D01*
X441186Y418270D01*
X440137Y420087D01*
X439334Y422025D01*
X438791Y424051D01*
X438713Y424641D01*
X451981Y424641D01*
X451981Y411373D01*
X451391Y411451D01*
G37*
%LPD*%
%LPC*%
G36*
X414019Y177799D02*
X414019Y177799D01*
X414019Y190298D01*
X414460Y190240D01*
X416389Y189723D01*
X418235Y188958D01*
X419966Y187959D01*
X421550Y186743D01*
X422963Y185330D01*
X424179Y183746D01*
X425178Y182015D01*
X425943Y180169D01*
X426460Y178240D01*
X426518Y177799D01*
X414019Y177799D01*
G37*
%LPD*%
%LPC*%
G36*
X596899Y375919D02*
X596899Y375919D01*
X596899Y388418D01*
X597340Y388360D01*
X599269Y387843D01*
X601115Y387078D01*
X602846Y386079D01*
X604430Y384863D01*
X605843Y383450D01*
X607059Y381866D01*
X608058Y380135D01*
X608823Y378289D01*
X609340Y376360D01*
X609398Y375919D01*
X596899Y375919D01*
G37*
%LPD*%
%LPC*%
G36*
X396442Y177799D02*
X396442Y177799D01*
X396500Y178240D01*
X397017Y180169D01*
X397782Y182015D01*
X398781Y183746D01*
X399997Y185330D01*
X401410Y186743D01*
X402994Y187959D01*
X404725Y188958D01*
X406571Y189723D01*
X408500Y190240D01*
X408941Y190298D01*
X408941Y177799D01*
X396442Y177799D01*
G37*
%LPD*%
%LPC*%
G36*
X414019Y172721D02*
X414019Y172721D01*
X426518Y172721D01*
X426460Y172280D01*
X425943Y170351D01*
X425178Y168505D01*
X424179Y166774D01*
X422963Y165190D01*
X421550Y163777D01*
X419966Y162561D01*
X418235Y161562D01*
X416389Y160797D01*
X414460Y160280D01*
X414019Y160222D01*
X414019Y172721D01*
G37*
%LPD*%
%LPC*%
G36*
X579322Y375919D02*
X579322Y375919D01*
X579380Y376360D01*
X579897Y378289D01*
X580662Y380135D01*
X581661Y381866D01*
X582877Y383450D01*
X584290Y384863D01*
X585874Y386079D01*
X587605Y387078D01*
X589451Y387843D01*
X591380Y388360D01*
X591821Y388418D01*
X591821Y375919D01*
X579322Y375919D01*
G37*
%LPD*%
%LPC*%
G36*
X596899Y370841D02*
X596899Y370841D01*
X609398Y370841D01*
X609340Y370400D01*
X608823Y368471D01*
X608058Y366625D01*
X607059Y364894D01*
X605843Y363310D01*
X604430Y361897D01*
X602846Y360681D01*
X601115Y359682D01*
X599269Y358917D01*
X597340Y358400D01*
X596899Y358342D01*
X596899Y370841D01*
G37*
%LPD*%
%LPC*%
G36*
X591380Y358400D02*
X591380Y358400D01*
X589451Y358917D01*
X587605Y359682D01*
X585874Y360681D01*
X584290Y361897D01*
X582877Y363310D01*
X581661Y364894D01*
X580662Y366625D01*
X579897Y368471D01*
X579380Y370400D01*
X579322Y370841D01*
X591821Y370841D01*
X591821Y358342D01*
X591380Y358400D01*
G37*
%LPD*%
%LPC*%
G36*
X408500Y160280D02*
X408500Y160280D01*
X406571Y160797D01*
X404725Y161562D01*
X402994Y162561D01*
X401410Y163777D01*
X399997Y165190D01*
X398781Y166774D01*
X397782Y168505D01*
X397017Y170351D01*
X396500Y172280D01*
X396442Y172721D01*
X408941Y172721D01*
X408941Y160222D01*
X408500Y160280D01*
G37*
%LPD*%
%LPC*%
G36*
X188353Y271849D02*
X188353Y271849D01*
X200340Y271849D01*
X200295Y271508D01*
X199871Y269925D01*
X199869Y269914D01*
X199865Y269903D01*
X199830Y269691D01*
X199793Y269482D01*
X199793Y269470D01*
X199791Y269459D01*
X199794Y269246D01*
X199795Y269031D01*
X199797Y269020D01*
X199797Y269009D01*
X199838Y268799D01*
X199877Y268589D01*
X199881Y268578D01*
X199883Y268566D01*
X199961Y268365D01*
X200035Y268167D01*
X200041Y268157D01*
X200045Y268146D01*
X200158Y267962D01*
X200266Y267780D01*
X200273Y267772D01*
X200279Y267762D01*
X200421Y267601D01*
X200561Y267440D01*
X200570Y267433D01*
X200577Y267424D01*
X200746Y267291D01*
X200911Y267158D01*
X200921Y267152D01*
X200930Y267145D01*
X201118Y267044D01*
X201144Y267030D01*
X201111Y267043D01*
X200970Y267105D01*
X200901Y267122D01*
X200835Y267147D01*
X200682Y267175D01*
X200532Y267212D01*
X200462Y267216D01*
X200392Y267229D01*
X200237Y267230D01*
X200083Y267240D01*
X200013Y267231D01*
X199942Y267232D01*
X199789Y267205D01*
X199636Y267188D01*
X199568Y267167D01*
X199498Y267155D01*
X199353Y267102D01*
X199205Y267057D01*
X199142Y267025D01*
X199075Y267001D01*
X198941Y266923D01*
X198803Y266853D01*
X198747Y266810D01*
X198686Y266774D01*
X198568Y266674D01*
X198445Y266581D01*
X198397Y266529D01*
X198343Y266483D01*
X198145Y266255D01*
X198140Y266250D01*
X198139Y266249D01*
X198137Y266247D01*
X196915Y264653D01*
X195549Y263288D01*
X194017Y262112D01*
X192344Y261146D01*
X190560Y260407D01*
X188695Y259907D01*
X188353Y259862D01*
X188353Y271849D01*
G37*
%LPD*%
%LPC*%
G36*
X388337Y303555D02*
X388337Y303555D01*
X388337Y315542D01*
X388679Y315497D01*
X390544Y314997D01*
X392328Y314258D01*
X394001Y313292D01*
X395533Y312116D01*
X396898Y310751D01*
X398074Y309219D01*
X399040Y307546D01*
X399779Y305762D01*
X400279Y303897D01*
X400324Y303555D01*
X388337Y303555D01*
G37*
%LPD*%
%LPC*%
G36*
X507529Y69419D02*
X507529Y69419D01*
X507529Y81406D01*
X507871Y81361D01*
X509736Y80861D01*
X511520Y80122D01*
X513193Y79156D01*
X514725Y77980D01*
X516090Y76615D01*
X517266Y75083D01*
X518232Y73410D01*
X518971Y71626D01*
X519471Y69761D01*
X519516Y69419D01*
X507529Y69419D01*
G37*
%LPD*%
%LPC*%
G36*
X188353Y276927D02*
X188353Y276927D01*
X188353Y288914D01*
X188695Y288869D01*
X190560Y288369D01*
X192344Y287630D01*
X194017Y286664D01*
X195549Y285488D01*
X196914Y284123D01*
X198090Y282591D01*
X199056Y280918D01*
X199795Y279134D01*
X200295Y277269D01*
X200340Y276927D01*
X188353Y276927D01*
G37*
%LPD*%
%LPC*%
G36*
X270173Y174163D02*
X270173Y174163D01*
X270173Y186150D01*
X270515Y186105D01*
X272380Y185605D01*
X274164Y184866D01*
X275837Y183900D01*
X277369Y182724D01*
X278734Y181359D01*
X279910Y179827D01*
X280876Y178154D01*
X281615Y176370D01*
X282115Y174505D01*
X282160Y174163D01*
X270173Y174163D01*
G37*
%LPD*%
%LPC*%
G36*
X490464Y69419D02*
X490464Y69419D01*
X490509Y69761D01*
X491009Y71626D01*
X491748Y73410D01*
X492714Y75083D01*
X493890Y76615D01*
X495255Y77980D01*
X496787Y79156D01*
X498460Y80122D01*
X500244Y80861D01*
X502109Y81361D01*
X502451Y81406D01*
X502451Y69419D01*
X490464Y69419D01*
G37*
%LPD*%
%LPC*%
G36*
X388337Y298477D02*
X388337Y298477D01*
X400324Y298477D01*
X400279Y298135D01*
X399779Y296270D01*
X399040Y294486D01*
X398074Y292813D01*
X396898Y291281D01*
X395533Y289916D01*
X394001Y288740D01*
X392328Y287774D01*
X390544Y287035D01*
X388679Y286535D01*
X388337Y286490D01*
X388337Y298477D01*
G37*
%LPD*%
%LPC*%
G36*
X46954Y330484D02*
X46954Y330484D01*
X46999Y330826D01*
X47499Y332691D01*
X48238Y334475D01*
X49204Y336148D01*
X50380Y337680D01*
X51745Y339045D01*
X53277Y340221D01*
X54950Y341187D01*
X56734Y341926D01*
X58599Y342426D01*
X58941Y342471D01*
X58941Y330484D01*
X46954Y330484D01*
G37*
%LPD*%
%LPC*%
G36*
X270173Y169085D02*
X270173Y169085D01*
X282160Y169085D01*
X282115Y168743D01*
X281615Y166878D01*
X280876Y165094D01*
X279910Y163421D01*
X278734Y161889D01*
X277369Y160524D01*
X275837Y159348D01*
X274164Y158382D01*
X272380Y157643D01*
X270515Y157143D01*
X270173Y157098D01*
X270173Y169085D01*
G37*
%LPD*%
%LPC*%
G36*
X507529Y64341D02*
X507529Y64341D01*
X519516Y64341D01*
X519471Y63999D01*
X518971Y62134D01*
X518232Y60350D01*
X517266Y58677D01*
X516090Y57145D01*
X514725Y55780D01*
X513193Y54604D01*
X511520Y53638D01*
X509736Y52899D01*
X507871Y52399D01*
X507529Y52354D01*
X507529Y64341D01*
G37*
%LPD*%
%LPC*%
G36*
X638254Y152399D02*
X638254Y152399D01*
X638299Y152741D01*
X638799Y154606D01*
X639538Y156390D01*
X640504Y158063D01*
X641680Y159595D01*
X643045Y160960D01*
X644577Y162136D01*
X646250Y163102D01*
X648034Y163841D01*
X649899Y164341D01*
X650241Y164386D01*
X650241Y152399D01*
X638254Y152399D01*
G37*
%LPD*%
%LPC*%
G36*
X171288Y276927D02*
X171288Y276927D01*
X171333Y277269D01*
X171833Y279134D01*
X172572Y280918D01*
X173538Y282591D01*
X174714Y284123D01*
X176079Y285488D01*
X177611Y286664D01*
X179284Y287630D01*
X181068Y288369D01*
X182933Y288869D01*
X183275Y288914D01*
X183275Y276927D01*
X171288Y276927D01*
G37*
%LPD*%
%LPC*%
G36*
X533201Y418545D02*
X533201Y418545D01*
X545188Y418545D01*
X545143Y418203D01*
X544643Y416338D01*
X543904Y414554D01*
X542938Y412881D01*
X541762Y411349D01*
X540397Y409984D01*
X538865Y408808D01*
X537192Y407842D01*
X535408Y407103D01*
X533543Y406603D01*
X533201Y406558D01*
X533201Y418545D01*
G37*
%LPD*%
%LPC*%
G36*
X598235Y422737D02*
X598235Y422737D01*
X610222Y422737D01*
X610177Y422395D01*
X609677Y420530D01*
X608938Y418746D01*
X607972Y417073D01*
X606796Y415541D01*
X605431Y414176D01*
X603899Y413000D01*
X602226Y412034D01*
X600442Y411295D01*
X598577Y410795D01*
X598235Y410750D01*
X598235Y422737D01*
G37*
%LPD*%
%LPC*%
G36*
X175319Y51439D02*
X175319Y51439D01*
X173454Y51939D01*
X171670Y52678D01*
X169997Y53644D01*
X168465Y54820D01*
X167100Y56185D01*
X165924Y57717D01*
X164958Y59390D01*
X164219Y61174D01*
X163719Y63039D01*
X163674Y63381D01*
X175661Y63381D01*
X175661Y51394D01*
X175319Y51439D01*
G37*
%LPD*%
%LPC*%
G36*
X58599Y313464D02*
X58599Y313464D01*
X56734Y313964D01*
X54950Y314703D01*
X53277Y315669D01*
X51745Y316845D01*
X50380Y318210D01*
X49204Y319742D01*
X48238Y321415D01*
X47499Y323199D01*
X46999Y325064D01*
X46954Y325406D01*
X58941Y325406D01*
X58941Y313419D01*
X58599Y313464D01*
G37*
%LPD*%
%LPC*%
G36*
X592815Y410795D02*
X592815Y410795D01*
X590950Y411295D01*
X589166Y412034D01*
X587493Y413000D01*
X585961Y414176D01*
X584596Y415541D01*
X583420Y417073D01*
X582454Y418746D01*
X581715Y420530D01*
X581215Y422395D01*
X581170Y422737D01*
X593157Y422737D01*
X593157Y410750D01*
X592815Y410795D01*
G37*
%LPD*%
%LPC*%
G36*
X649899Y135379D02*
X649899Y135379D01*
X648034Y135879D01*
X646250Y136618D01*
X644577Y137584D01*
X643045Y138760D01*
X641680Y140125D01*
X640504Y141657D01*
X639538Y143330D01*
X638799Y145114D01*
X638299Y146979D01*
X638254Y147321D01*
X650241Y147321D01*
X650241Y135334D01*
X649899Y135379D01*
G37*
%LPD*%
%LPC*%
G36*
X502109Y52399D02*
X502109Y52399D01*
X500244Y52899D01*
X498460Y53638D01*
X496787Y54604D01*
X495255Y55780D01*
X493890Y57145D01*
X492714Y58677D01*
X491748Y60350D01*
X491009Y62134D01*
X490509Y63999D01*
X490464Y64341D01*
X502451Y64341D01*
X502451Y52354D01*
X502109Y52399D01*
G37*
%LPD*%
%LPC*%
G36*
X527781Y406603D02*
X527781Y406603D01*
X525916Y407103D01*
X524132Y407842D01*
X522459Y408808D01*
X520927Y409984D01*
X519562Y411349D01*
X518386Y412881D01*
X517420Y414554D01*
X516681Y416338D01*
X516181Y418203D01*
X516136Y418545D01*
X528123Y418545D01*
X528123Y406558D01*
X527781Y406603D01*
G37*
%LPD*%
%LPC*%
G36*
X242869Y267841D02*
X242869Y267841D01*
X254087Y267841D01*
X254062Y267648D01*
X253588Y265880D01*
X252887Y264188D01*
X251971Y262602D01*
X250856Y261149D01*
X249561Y259854D01*
X248108Y258739D01*
X246522Y257823D01*
X244830Y257122D01*
X243062Y256648D01*
X242869Y256623D01*
X242869Y267841D01*
G37*
%LPD*%
D10*
X481610Y363660D03*
D11*
X481610Y338260D03*
X481610Y312860D03*
X481610Y287460D03*
X481610Y262060D03*
X481610Y236660D03*
X481610Y211260D03*
X557810Y211260D03*
X557810Y236660D03*
X557810Y262060D03*
X557810Y287460D03*
X557810Y312860D03*
X557810Y338260D03*
X557810Y363660D03*
D12*
X185814Y274388D03*
X162211Y260037D03*
X138354Y274388D03*
D10*
X240330Y346580D03*
D11*
X240330Y321180D03*
X240330Y295780D03*
X240330Y270380D03*
X316530Y270380D03*
X316530Y295780D03*
X316530Y321180D03*
X316530Y346580D03*
D12*
X182680Y200510D03*
D13*
X182680Y175310D03*
D12*
X378440Y339708D03*
D13*
X378440Y364908D03*
D12*
X530662Y421084D03*
D13*
X530662Y446284D03*
D12*
X367370Y102800D03*
D13*
X367370Y128000D03*
D12*
X652780Y424180D03*
D13*
X678180Y424180D03*
D12*
X652780Y355600D03*
D13*
X678180Y355600D03*
D12*
X652780Y287020D03*
D13*
X678180Y287020D03*
D12*
X652780Y218440D03*
D13*
X678180Y218440D03*
D12*
X367070Y234800D03*
D13*
X367070Y209600D03*
D14*
X240990Y216472D03*
X317190Y216472D03*
X713950Y424180D03*
X790150Y424180D03*
X712970Y355600D03*
X789170Y355600D03*
X712450Y287020D03*
X788650Y287020D03*
X711930Y218440D03*
X788130Y218440D03*
X594360Y373380D03*
X594360Y297180D03*
X594360Y251460D03*
X594360Y175260D03*
X447040Y175260D03*
X447040Y251460D03*
X447040Y297180D03*
X447040Y373380D03*
X556260Y172720D03*
X480060Y172720D03*
X123264Y464820D03*
X123264Y388620D03*
X157480Y388620D03*
X157480Y464820D03*
X86360Y388620D03*
X86360Y464820D03*
D12*
X595696Y450676D03*
X595696Y425276D03*
X242234Y171624D03*
X267634Y171624D03*
X360398Y301016D03*
X385798Y301016D03*
X134646Y218278D03*
X109246Y218278D03*
X157480Y329692D03*
X182880Y329692D03*
D15*
X41910Y176850D03*
X41910Y196850D03*
X41910Y216850D03*
D11*
X41910Y155850D03*
X41910Y237850D03*
D16*
X248200Y98920D03*
X158200Y98920D03*
D12*
X228200Y65920D03*
X203200Y65920D03*
X178200Y65920D03*
X504990Y66880D03*
X454990Y116880D03*
X479990Y116880D03*
X529990Y116880D03*
X554990Y116880D03*
X61480Y327945D03*
D13*
X86680Y327945D03*
D17*
X365320Y458180D03*
D18*
X365320Y407780D03*
D19*
X454520Y427180D03*
D20*
X454520Y462180D03*
D19*
X46080Y75160D03*
D20*
X46080Y110160D03*
D19*
X378420Y45420D03*
D20*
X343420Y45420D03*
D19*
X193840Y466960D03*
X293840Y441960D03*
X193840Y416960D03*
D14*
X411480Y175260D03*
X411480Y251460D03*
D12*
X652780Y149860D03*
D13*
X678180Y149860D03*
D14*
X712450Y149860D03*
X788650Y149860D03*
D21*
X713950Y424180D02*
X678180Y424180D01*
X678180Y355600D02*
X712970Y355600D01*
X712450Y287020D02*
X678180Y287020D01*
X678180Y218440D02*
X711930Y218440D01*
X576030Y345440D02*
X557810Y363660D01*
X576030Y345440D02*
X624840Y345440D01*
X652780Y317500D01*
X652780Y287020D01*
X624840Y246380D02*
X652780Y218440D01*
X624840Y314960D02*
X606620Y333180D01*
X562890Y333180D01*
X557810Y338260D01*
X624840Y314960D02*
X624840Y246380D01*
D22*
X462280Y190500D02*
X447040Y175260D01*
D21*
X481610Y211260D02*
X480780Y212090D01*
X468630Y212090D01*
X466090Y214630D01*
X466090Y275590D01*
X447040Y294640D01*
X447040Y297180D01*
X466090Y214630D02*
X466090Y194310D01*
X462280Y190500D01*
X482050Y261620D02*
X481610Y262060D01*
X482050Y261620D02*
X500380Y261620D01*
X513080Y248920D01*
X513080Y193040D01*
X492760Y172720D01*
X480060Y172720D01*
X556260Y172720D02*
X558800Y175260D01*
X594360Y175260D01*
X594360Y218440D01*
X576140Y236660D02*
X557810Y236660D01*
X576140Y236660D02*
X594360Y218440D01*
X594360Y251460D02*
X558360Y287460D01*
X557810Y287460D01*
X582100Y287460D01*
X591820Y297180D02*
X594360Y297180D01*
X591820Y297180D02*
X582100Y287460D01*
X240330Y346580D02*
X240330Y392300D01*
X215670Y416960D01*
X193840Y416960D01*
X345492Y364908D02*
X378440Y364908D01*
X345492Y364908D02*
X293840Y416560D01*
X293840Y441960D01*
X371568Y346580D02*
X378440Y339708D01*
X371568Y346580D02*
X316530Y346580D01*
X208280Y226110D02*
X182680Y200510D01*
X208280Y263730D02*
X240330Y295780D01*
X208280Y263730D02*
X208280Y226110D01*
X341930Y321180D02*
X360398Y302712D01*
X341930Y321180D02*
X316530Y321180D01*
X360398Y302712D02*
X360398Y301016D01*
X240990Y216472D02*
X240990Y172868D01*
X242234Y171624D01*
X157480Y329692D02*
X147320Y339852D01*
X98587Y339852D01*
X86680Y327945D01*
X157480Y441960D02*
X157480Y464820D01*
X123264Y407744D02*
X123264Y388620D01*
X123264Y407744D02*
X157480Y441960D01*
X678180Y149860D02*
X712450Y149860D01*
M02*
