G04 EAGLE Gerber RS-274X export*
G75*
%MOMM*%
%FSLAX34Y34*%
%LPD*%
%IN*%
%IPPOS*%
%AMOC8*
5,1,8,0,0,1.08239X$1,22.5*%
G01*
%ADD10C,0.254000*%


D10*
X0Y17344D02*
X66Y15832D01*
X264Y14332D01*
X591Y12855D01*
X1046Y11412D01*
X1625Y10014D01*
X2324Y8672D01*
X3137Y7396D01*
X4058Y6196D01*
X5080Y5080D01*
X6196Y4058D01*
X7396Y3137D01*
X8672Y2324D01*
X10014Y1625D01*
X11412Y1046D01*
X12855Y591D01*
X14332Y264D01*
X15832Y66D01*
X17344Y0D01*
X797948Y0D01*
X800061Y92D01*
X802159Y368D01*
X804225Y826D01*
X806242Y1463D01*
X808197Y2272D01*
X810074Y3249D01*
X811858Y4386D01*
X813537Y5674D01*
X815097Y7103D01*
X816526Y8663D01*
X817814Y10342D01*
X818951Y12126D01*
X819928Y14003D01*
X820737Y15958D01*
X821374Y17975D01*
X821832Y20041D01*
X822108Y22139D01*
X822200Y24252D01*
X822200Y478950D01*
X822136Y480420D01*
X821944Y481878D01*
X821626Y483314D01*
X821183Y484717D01*
X820620Y486076D01*
X819941Y487380D01*
X819151Y488621D01*
X818256Y489788D01*
X817262Y490872D01*
X816178Y491866D01*
X815011Y492761D01*
X813770Y493551D01*
X812466Y494230D01*
X811107Y494793D01*
X809704Y495236D01*
X808268Y495554D01*
X806810Y495746D01*
X805340Y495810D01*
X18206Y495810D01*
X16620Y495741D01*
X15045Y495533D01*
X13494Y495190D01*
X11979Y494712D01*
X10512Y494104D01*
X9103Y493371D01*
X7764Y492517D01*
X6504Y491551D01*
X5333Y490477D01*
X4260Y489306D01*
X3293Y488046D01*
X2439Y486707D01*
X1706Y485298D01*
X1098Y483831D01*
X620Y482316D01*
X277Y480765D01*
X69Y479190D01*
X0Y477604D01*
X0Y17344D01*
X802400Y35024D02*
X802324Y33956D01*
X802171Y32895D01*
X801943Y31848D01*
X801641Y30820D01*
X801267Y29816D01*
X800822Y28841D01*
X800308Y27901D01*
X799729Y27000D01*
X799087Y26142D01*
X798385Y25332D01*
X797628Y24575D01*
X796818Y23873D01*
X795960Y23231D01*
X795059Y22652D01*
X794119Y22138D01*
X793144Y21693D01*
X792140Y21319D01*
X791112Y21017D01*
X790065Y20789D01*
X789004Y20636D01*
X787936Y20560D01*
X786864Y20560D01*
X785796Y20636D01*
X784735Y20789D01*
X783688Y21017D01*
X782660Y21319D01*
X781656Y21693D01*
X780681Y22138D01*
X779741Y22652D01*
X778840Y23231D01*
X777982Y23873D01*
X777172Y24575D01*
X776415Y25332D01*
X775713Y26142D01*
X775071Y27000D01*
X774492Y27901D01*
X773978Y28841D01*
X773533Y29816D01*
X773159Y30820D01*
X772857Y31848D01*
X772629Y32895D01*
X772476Y33956D01*
X772400Y35024D01*
X772400Y36096D01*
X772476Y37164D01*
X772629Y38225D01*
X772857Y39272D01*
X773159Y40300D01*
X773533Y41304D01*
X773978Y42279D01*
X774492Y43219D01*
X775071Y44120D01*
X775713Y44978D01*
X776415Y45788D01*
X777172Y46545D01*
X777982Y47247D01*
X778840Y47889D01*
X779741Y48468D01*
X780681Y48982D01*
X781656Y49427D01*
X782660Y49801D01*
X783688Y50103D01*
X784735Y50331D01*
X785796Y50484D01*
X786864Y50560D01*
X787936Y50560D01*
X789004Y50484D01*
X790065Y50331D01*
X791112Y50103D01*
X792140Y49801D01*
X793144Y49427D01*
X794119Y48982D01*
X795059Y48468D01*
X795960Y47889D01*
X796818Y47247D01*
X797628Y46545D01*
X798385Y45788D01*
X799087Y44978D01*
X799729Y44120D01*
X800308Y43219D01*
X800822Y42279D01*
X801267Y41304D01*
X801641Y40300D01*
X801943Y39272D01*
X802171Y38225D01*
X802324Y37164D01*
X802400Y36096D01*
X802400Y35024D01*
X802400Y461744D02*
X802324Y460676D01*
X802171Y459615D01*
X801943Y458568D01*
X801641Y457540D01*
X801267Y456536D01*
X800822Y455561D01*
X800308Y454621D01*
X799729Y453720D01*
X799087Y452862D01*
X798385Y452052D01*
X797628Y451295D01*
X796818Y450593D01*
X795960Y449951D01*
X795059Y449372D01*
X794119Y448858D01*
X793144Y448413D01*
X792140Y448039D01*
X791112Y447737D01*
X790065Y447509D01*
X789004Y447356D01*
X787936Y447280D01*
X786864Y447280D01*
X785796Y447356D01*
X784735Y447509D01*
X783688Y447737D01*
X782660Y448039D01*
X781656Y448413D01*
X780681Y448858D01*
X779741Y449372D01*
X778840Y449951D01*
X777982Y450593D01*
X777172Y451295D01*
X776415Y452052D01*
X775713Y452862D01*
X775071Y453720D01*
X774492Y454621D01*
X773978Y455561D01*
X773533Y456536D01*
X773159Y457540D01*
X772857Y458568D01*
X772629Y459615D01*
X772476Y460676D01*
X772400Y461744D01*
X772400Y462816D01*
X772476Y463884D01*
X772629Y464945D01*
X772857Y465992D01*
X773159Y467020D01*
X773533Y468024D01*
X773978Y468999D01*
X774492Y469939D01*
X775071Y470840D01*
X775713Y471698D01*
X776415Y472508D01*
X777172Y473265D01*
X777982Y473967D01*
X778840Y474609D01*
X779741Y475188D01*
X780681Y475702D01*
X781656Y476147D01*
X782660Y476521D01*
X783688Y476823D01*
X784735Y477051D01*
X785796Y477204D01*
X786864Y477280D01*
X787936Y477280D01*
X789004Y477204D01*
X790065Y477051D01*
X791112Y476823D01*
X792140Y476521D01*
X793144Y476147D01*
X794119Y475702D01*
X795059Y475188D01*
X795960Y474609D01*
X796818Y473967D01*
X797628Y473265D01*
X798385Y472508D01*
X799087Y471698D01*
X799729Y470840D01*
X800308Y469939D01*
X800822Y468999D01*
X801267Y468024D01*
X801641Y467020D01*
X801943Y465992D01*
X802171Y464945D01*
X802324Y463884D01*
X802400Y462816D01*
X802400Y461744D01*
X50560Y464284D02*
X50484Y463216D01*
X50331Y462155D01*
X50103Y461108D01*
X49801Y460080D01*
X49427Y459076D01*
X48982Y458101D01*
X48468Y457161D01*
X47889Y456260D01*
X47247Y455402D01*
X46545Y454592D01*
X45788Y453835D01*
X44978Y453133D01*
X44120Y452491D01*
X43219Y451912D01*
X42279Y451398D01*
X41304Y450953D01*
X40300Y450579D01*
X39272Y450277D01*
X38225Y450049D01*
X37164Y449896D01*
X36096Y449820D01*
X35024Y449820D01*
X33956Y449896D01*
X32895Y450049D01*
X31848Y450277D01*
X30820Y450579D01*
X29816Y450953D01*
X28841Y451398D01*
X27901Y451912D01*
X27000Y452491D01*
X26142Y453133D01*
X25332Y453835D01*
X24575Y454592D01*
X23873Y455402D01*
X23231Y456260D01*
X22652Y457161D01*
X22138Y458101D01*
X21693Y459076D01*
X21319Y460080D01*
X21017Y461108D01*
X20789Y462155D01*
X20636Y463216D01*
X20560Y464284D01*
X20560Y465356D01*
X20636Y466424D01*
X20789Y467485D01*
X21017Y468532D01*
X21319Y469560D01*
X21693Y470564D01*
X22138Y471539D01*
X22652Y472479D01*
X23231Y473380D01*
X23873Y474238D01*
X24575Y475048D01*
X25332Y475805D01*
X26142Y476507D01*
X27000Y477149D01*
X27901Y477728D01*
X28841Y478242D01*
X29816Y478687D01*
X30820Y479061D01*
X31848Y479363D01*
X32895Y479591D01*
X33956Y479744D01*
X35024Y479820D01*
X36096Y479820D01*
X37164Y479744D01*
X38225Y479591D01*
X39272Y479363D01*
X40300Y479061D01*
X41304Y478687D01*
X42279Y478242D01*
X43219Y477728D01*
X44120Y477149D01*
X44978Y476507D01*
X45788Y475805D01*
X46545Y475048D01*
X47247Y474238D01*
X47889Y473380D01*
X48468Y472479D01*
X48982Y471539D01*
X49427Y470564D01*
X49801Y469560D01*
X50103Y468532D01*
X50331Y467485D01*
X50484Y466424D01*
X50560Y465356D01*
X50560Y464284D01*
X50560Y35024D02*
X50484Y33956D01*
X50331Y32895D01*
X50103Y31848D01*
X49801Y30820D01*
X49427Y29816D01*
X48982Y28841D01*
X48468Y27901D01*
X47889Y27000D01*
X47247Y26142D01*
X46545Y25332D01*
X45788Y24575D01*
X44978Y23873D01*
X44120Y23231D01*
X43219Y22652D01*
X42279Y22138D01*
X41304Y21693D01*
X40300Y21319D01*
X39272Y21017D01*
X38225Y20789D01*
X37164Y20636D01*
X36096Y20560D01*
X35024Y20560D01*
X33956Y20636D01*
X32895Y20789D01*
X31848Y21017D01*
X30820Y21319D01*
X29816Y21693D01*
X28841Y22138D01*
X27901Y22652D01*
X27000Y23231D01*
X26142Y23873D01*
X25332Y24575D01*
X24575Y25332D01*
X23873Y26142D01*
X23231Y27000D01*
X22652Y27901D01*
X22138Y28841D01*
X21693Y29816D01*
X21319Y30820D01*
X21017Y31848D01*
X20789Y32895D01*
X20636Y33956D01*
X20560Y35024D01*
X20560Y36096D01*
X20636Y37164D01*
X20789Y38225D01*
X21017Y39272D01*
X21319Y40300D01*
X21693Y41304D01*
X22138Y42279D01*
X22652Y43219D01*
X23231Y44120D01*
X23873Y44978D01*
X24575Y45788D01*
X25332Y46545D01*
X26142Y47247D01*
X27000Y47889D01*
X27901Y48468D01*
X28841Y48982D01*
X29816Y49427D01*
X30820Y49801D01*
X31848Y50103D01*
X32895Y50331D01*
X33956Y50484D01*
X35024Y50560D01*
X36096Y50560D01*
X37164Y50484D01*
X38225Y50331D01*
X39272Y50103D01*
X40300Y49801D01*
X41304Y49427D01*
X42279Y48982D01*
X43219Y48468D01*
X44120Y47889D01*
X44978Y47247D01*
X45788Y46545D01*
X46545Y45788D01*
X47247Y44978D01*
X47889Y44120D01*
X48468Y43219D01*
X48982Y42279D01*
X49427Y41304D01*
X49801Y40300D01*
X50103Y39272D01*
X50331Y38225D01*
X50484Y37164D01*
X50560Y36096D01*
X50560Y35024D01*
M02*
