M48
;GenerationSoftware,Autodesk,EAGLE,9.3.1*%
;CreationDate,2019-03-12T04:09:36Z*%
FMAT,2
ICI,OFF
METRIC,TZ,000.000
T7C0.800
T6C0.900
T5C1.016
T4C1.200
T3C1.600
T2C2.000
T1C3.000
%
G90
M71
T1
X78740Y3556
X78740Y46228
X3556Y46482
X3556Y3556
T2
X15820Y9892
X24820Y9892
T3
X36532Y40778
X36532Y45818
T4
X4191Y15585
X4191Y23785
X19384Y41696
X29384Y44196
X19384Y46696
T5
X41148Y17526
X41148Y25146
X71245Y14986
X59436Y29718
X24099Y21647
X31719Y21647
X71395Y42418
X79015Y42418
X71297Y35560
X78917Y35560
X8636Y46482
X71245Y28702
X78865Y28702
X71193Y21844
X78813Y21844
X59436Y37338
X78865Y14986
X59436Y25146
X59436Y17526
X44704Y17526
X44704Y25146
X44704Y29718
X44704Y37338
X55626Y17272
X48006Y17272
X12326Y46482
X12326Y38862
X15748Y38862
X15748Y46482
X8636Y38862
T6
X48161Y36366
X48161Y33826
X48161Y31286
X48161Y28746
X48161Y26206
X48161Y23666
X48161Y21126
X55781Y21126
X55781Y23666
X55781Y26206
X55781Y31286
X55781Y33826
X55781Y36366
X18581Y27439
X16221Y26004
X13835Y27439
X24033Y34658
X24033Y32118
X24033Y29578
X24033Y27038
X31653Y27038
X31653Y29578
X31653Y32118
X31653Y34658
X20320Y6592
X17820Y6592
X50499Y6688
X45499Y11688
X47999Y11688
X52999Y11688
X55499Y11688
X34342Y4542
X55781Y28746
X45452Y46218
X4608Y7516
X4608Y11016
X37842Y4542
X45452Y42718
X4191Y17685
X4191Y19685
X4191Y21685
X22820Y6592
T7
X18268Y20051
X18268Y17531
X37844Y33971
X37844Y36491
X53066Y42108
X53066Y44628
X36737Y10280
X36737Y12800
X24223Y17162
X26763Y17162
X36040Y30102
X38580Y30102
X13465Y21828
X36707Y20960
X8668Y32795
X65278Y28702
X67818Y35560
X36707Y23480
X65278Y21844
X67818Y28702
X18288Y32969
X15748Y32969
X10925Y21828
X65278Y35560
X67818Y42418
X65278Y42418
X67818Y21844
X59570Y45068
X65278Y14986
X67818Y14986
X59570Y42528
X6148Y32795
M30